<svg xmlns="http://www.w3.org/2000/svg" viewBox="0 0 998.67 413.65"><defs><style>.cls-1,.cls-6{fill:#231f20;}.cls-2{fill:#6ac7b9;}.cls-3{fill:#1d99d6;}.cls-4{fill:#d51c5a;}.cls-5{fill:#bc9bc8;}.cls-6{font-size:193.56px;font-family:Porto, "Porto 400";}</style></defs><g id="Layer_2" data-name="Layer 2"><g id="Layer_1-2" data-name="Layer 1"><path class="cls-1" d="M91.41,191.43a88.29,88.29,0,0,1-35.53-7.25,91.35,91.35,0,0,1-29-19.67A90,90,0,0,1,7.24,135.64a90.29,90.29,0,0,1,0-70.85,91.52,91.52,0,0,1,19.67-29,96,96,0,0,1,29-19.67A88.29,88.29,0,0,1,91.41,8.91a91,91,0,0,1,45.41,11.94,10.16,10.16,0,0,1,5.28,6.45A10.6,10.6,0,0,1,141,35.53a10.29,10.29,0,0,1-6.66,5.28,10.71,10.71,0,0,1-8.32-1.08,62.25,62.25,0,0,0-16.54-6.85,73.74,73.74,0,0,0-18.1-2.25A66.17,66.17,0,0,0,64.3,36.21a71.48,71.48,0,0,0-22,14.88,68.09,68.09,0,0,0-14.88,22,66.61,66.61,0,0,0-5.48,27,67.81,67.81,0,0,0,5.48,27.11,72,72,0,0,0,14.88,22.11,70.58,70.58,0,0,0,22,15,66.44,66.44,0,0,0,27.11,5.48A69.08,69.08,0,0,0,111,167a71.27,71.27,0,0,0,17.81-8,10.66,10.66,0,0,1,8.32-1.77,10.55,10.55,0,0,1,6.85,4.9,10.33,10.33,0,0,1,1.47,8.22,11.73,11.73,0,0,1-4.89,7A90.44,90.44,0,0,1,91.41,191.43Z"/><path class="cls-1" d="M168.53,10a10.87,10.87,0,0,1,7.73,3,9.94,9.94,0,0,1,3.33,7.73V180a10.17,10.17,0,0,1-3.33,7.63,10.83,10.83,0,0,1-7.73,3.23,10.22,10.22,0,0,1-7.74-3.23,10.65,10.65,0,0,1-3-7.63V20.75A10.39,10.39,0,0,1,168.53,10Zm117,0a10.39,10.39,0,0,1,10.76,10.77V180a10.65,10.65,0,0,1-3,7.63,10.21,10.21,0,0,1-7.73,3.23,10.82,10.82,0,0,1-7.73-3.23,10.14,10.14,0,0,1-3.33-7.63v-68.8H205.13a10.65,10.65,0,0,1-7.64-3,10.12,10.12,0,0,1-3.22-7.63,10.84,10.84,0,0,1,10.86-10.86h69.29V20.75A9.9,9.9,0,0,1,277.75,13,10.84,10.84,0,0,1,285.48,10Z"/><path class="cls-1" d="M480.52,183.7a10,10,0,0,1-5.67,6,10.73,10.73,0,0,1-8.32.48,10.59,10.59,0,0,1-6.17-5.67L441,142.79H391.56A10.39,10.39,0,0,1,380.8,132a10.65,10.65,0,0,1,3-7.63,10.21,10.21,0,0,1,7.73-3.23h39.05L396.26,47.47,335.58,184.28a10.07,10.07,0,0,1-4.2,4.8,11.09,11.09,0,0,1-5.88,1.56,11.6,11.6,0,0,1-4.4-.78,10.51,10.51,0,0,1-5.77-6.16,9.91,9.91,0,0,1,.39-8.32L386.18,16.93a10.15,10.15,0,0,1,3.92-4.7A10.36,10.36,0,0,1,396,10.47,11,11,0,0,1,401.84,12a9.2,9.2,0,0,1,3.91,4.5l74.19,158.74A10.65,10.65,0,0,1,480.52,183.7Z"/><path class="cls-1" d="M778.33,192.7h-4.21a79.74,79.74,0,0,1-22.9-3.43,62.35,62.35,0,0,1-20.45-10.47A53.86,53.86,0,0,1,716,161c-3.82-7.24-5.67-15.76-5.67-25.54a10.46,10.46,0,0,1,3.22-7.64,10.75,10.75,0,0,1,7.83-3.23,11,11,0,0,1,10.87,10.87A34.26,34.26,0,0,0,735.08,150a30.1,30.1,0,0,0,7.14,10,33.55,33.55,0,0,0,9.3,6.17,58.9,58.9,0,0,0,9.69,3.32,49.71,49.71,0,0,0,8.22,1.37c2.35.2,3.91.2,4.5.2h4.21a42.69,42.69,0,0,0,13.31-2.25,43.6,43.6,0,0,0,12-6.17,33.84,33.84,0,0,0,8.81-9.2A20.92,20.92,0,0,0,815.72,142c0-6.55-3.13-12.23-9.5-17s-17-9.6-32.1-14.39l-4.4-1.47c-6.85-2.45-13.9-5.09-21-7.83A87.07,87.07,0,0,1,729.5,91a54.49,54.49,0,0,1-13.9-14.59c-3.62-5.67-5.38-12.52-5.38-20.74a41,41,0,0,1,4.6-19.09,45.57,45.57,0,0,1,12.72-15.07,63.36,63.36,0,0,1,19.18-10A78.24,78.24,0,0,1,770.6,8c4.4,0,9.2.29,14.39.78A71.07,71.07,0,0,1,800.45,12a61.44,61.44,0,0,1,15,7.14,48.58,48.58,0,0,1,12.92,12.53c1,1.47,2.06,3.33,3.23,5.38a40.46,40.46,0,0,1,2.94,6.66c.78,2.35,1.56,4.5,2,6.65a21.59,21.59,0,0,1,.88,5.68,10.71,10.71,0,0,1-3.13,7.63,10.41,10.41,0,0,1-7.83,3.23,10.67,10.67,0,0,1-7.73-3.23,10.45,10.45,0,0,1-3.23-7.63,50,50,0,0,0-1.86-5.29,30.48,30.48,0,0,0-3.33-6.55q-10.12-14.54-40-14.49a54.82,54.82,0,0,0-13.9,1.76,49.69,49.69,0,0,0-12.33,5,27.26,27.26,0,0,0-8.81,8.13,19,19,0,0,0-3.33,11.15,18.43,18.43,0,0,0,3,10.67,30.44,30.44,0,0,0,8.9,8.32,74.67,74.67,0,0,0,14.19,7c5.58,2.15,11.85,4.4,18.7,6.85l4.2,1.47c4.9,1.66,10.67,3.62,17.13,6a82.88,82.88,0,0,1,18.5,9.6,56.35,56.35,0,0,1,14.78,14.87c4,5.87,6.06,13.12,6.06,21.63a40.54,40.54,0,0,1-5.28,20.36,54.27,54.27,0,0,1-13.8,16.05,65.33,65.33,0,0,1-40,14.09Z"/><path class="cls-1" d="M919.36,192.7h-4.21a79.69,79.69,0,0,1-22.9-3.43,62.3,62.3,0,0,1-20.46-10.47A53.83,53.83,0,0,1,857,161c-3.82-7.24-5.68-15.76-5.68-25.54a10.47,10.47,0,0,1,3.23-7.64,10.73,10.73,0,0,1,7.83-3.23,11,11,0,0,1,10.86,10.87A34.26,34.26,0,0,0,876.1,150a30.27,30.27,0,0,0,7.15,10,33.51,33.51,0,0,0,9.29,6.17,59.54,59.54,0,0,0,9.69,3.32,49.71,49.71,0,0,0,8.22,1.37c2.35.2,3.92.2,4.5.2h4.21a42.6,42.6,0,0,0,13.31-2.25,43.52,43.52,0,0,0,12-6.17,34,34,0,0,0,8.81-9.2A20.91,20.91,0,0,0,956.74,142c0-6.55-3.13-12.23-9.49-17s-17-9.6-32.1-14.39l-4.4-1.47c-6.85-2.45-13.9-5.09-21-7.83A87.52,87.52,0,0,1,870.52,91a54.6,54.6,0,0,1-13.89-14.59c-3.63-5.67-5.39-12.52-5.39-20.74a41.07,41.07,0,0,1,4.6-19.09,45.6,45.6,0,0,1,12.73-15.07,63.36,63.36,0,0,1,19.18-10A78.2,78.2,0,0,1,911.63,8c4.4,0,9.2.29,14.38.78A71,71,0,0,1,941.48,12a61.79,61.79,0,0,1,15,7.14,48.87,48.87,0,0,1,12.92,12.53c1,1.47,2,3.33,3.23,5.38a40.42,40.42,0,0,1,2.93,6.66c.79,2.35,1.57,4.5,2.06,6.65a21.59,21.59,0,0,1,.88,5.68,10.75,10.75,0,0,1-3.13,7.63,10.43,10.43,0,0,1-7.83,3.23,10.65,10.65,0,0,1-7.73-3.23,10.41,10.41,0,0,1-3.23-7.63,55.42,55.42,0,0,0-1.86-5.29,31.42,31.42,0,0,0-3.33-6.55c-6.75-9.69-20.06-14.49-40-14.49a54.8,54.8,0,0,0-13.89,1.76,49.61,49.61,0,0,0-12.34,5,27.32,27.32,0,0,0-8.8,8.13A19,19,0,0,0,873,55.78a18.5,18.5,0,0,0,3,10.67,30.49,30.49,0,0,0,8.91,8.32,74.38,74.38,0,0,0,14.19,7c5.58,2.15,11.84,4.4,18.69,6.85L922,90.14c4.89,1.66,10.67,3.62,17.13,6a82.81,82.81,0,0,1,18.49,9.6,56,56,0,0,1,14.78,14.87c4,5.87,6.07,13.12,6.07,21.63a40.44,40.44,0,0,1-5.29,20.36,54.38,54.38,0,0,1-13.79,16.05,65.39,65.39,0,0,1-40,14.09Z"/><path class="cls-2" d="M634.57,46.1l-.49.88c1.66,1.37,3.32,2.83,4.89,4.3A71.66,71.66,0,0,1,654.34,74c.48,1.17,1,2.44,1.46,3.62l.3.88a29.84,29.84,0,0,1,1,3c.09.2.09.49.19.69.3,1.07.59,2.25.88,3.33,0,.09.1.29.1.39.29,1.27.59,2.54.78,3.81h30.44c-.2-1.56-.39-3.13-.59-4.6-.1-.39-.1-.68-.19-1.07-.3-1.47-.49-3-.88-4.5a2.4,2.4,0,0,0-.2-.69,112.86,112.86,0,0,0-4.11-13.8c-.1-.29-.2-.49-.29-.78-.49-1.37-1.08-2.74-1.67-4.11-.1-.3-.29-.69-.39-1a94.42,94.42,0,0,0-9.49-16.44l-.59-.88-2.64-3.53c-.2-.19-.3-.39-.49-.58a109.75,109.75,0,0,0-9.89-10.48c-.19-.09-.29-.29-.48-.48-1.18-1-2.26-2-3.43-2.94-.29-.2-.59-.49-.88-.69-1.18-1-2.45-2-3.72-2.83Z"/><path class="cls-3" d="M563.61,34.94c1.86-.69,3.72-1.27,5.68-1.86.2,0,.29-.1.49-.1,1.86-.49,3.72-.88,5.58-1.27.29,0,.49-.1.78-.1,1.86-.29,3.72-.59,5.68-.78a1.61,1.61,0,0,0,.68-.1,59.65,59.65,0,0,1,6-.29,58.23,58.23,0,0,1,6,.29,1.66,1.66,0,0,1,.69.1,52.9,52.9,0,0,1,5.57.78c.3,0,.59.1.79.1A48.55,48.55,0,0,1,607,33c.19.1.39.1.59.2A40.9,40.9,0,0,1,613.13,35h0l.49-.79L628.3,8.51h0c-1.37-.58-2.84-1.17-4.3-1.76-.39-.19-.79-.29-1.18-.49L618.71,4.8c-.49-.1-.88-.3-1.37-.4-2.54-.78-5.18-1.46-7.73-2.05-.39-.1-.88-.2-1.27-.29-1-.2-2-.4-2.84-.49a31.25,31.25,0,0,0-3.13-.49l-2.55-.3c-1.27-.19-2.44-.29-3.72-.39-.68-.1-1.37-.1-2.05-.19-2-.1-3.91-.2-5.87-.2s-3.92.1-5.87.2a14.34,14.34,0,0,0-2.06.19c-1.27.1-2.45.2-3.72.39l-2.54.3c-1.08.19-2.06.29-3.13.49s-2,.29-2.84.49l-1.28.29c-2.54.59-5.18,1.27-7.73,2.05-.49.1-.88.3-1.37.4-1.37.48-2.74.88-4.11,1.46a6.47,6.47,0,0,0-1.17.49c-1.47.59-2.84,1.18-4.31,1.76h0l15.07,25.65Z"/><path class="cls-4" d="M526,138.48l.79-.68c-.79-1.28-1.47-2.55-2.16-3.92s-1.37-2.84-2-4.21a60.06,60.06,0,0,1-2.45-6.55c-.68-2.25-1.27-4.51-1.76-6.85A69,69,0,0,1,517,101.88a76.18,76.18,0,0,1,1.37-14.29c.49-2.35,1.08-4.6,1.76-6.85s1.57-4.5,2.45-6.66A71.59,71.59,0,0,1,538,51.38c1.47-1.47,3-2.84,4.7-4.21l-.49-.88L527.4,20.65h0c-.58.39-1.17.88-1.76,1.37-.88.69-1.76,1.37-2.64,2.15h0l-.1.1c-1.27,1.08-2.54,2.15-3.72,3.33L518,28.77l-2.35,2.35c-.49.49-.88,1-1.37,1.47-.69.68-1.37,1.47-2,2.15-.49.49-.88,1.08-1.37,1.67s-1.17,1.37-1.76,2.15c-.49.59-.88,1.17-1.37,1.76a17.68,17.68,0,0,0-1.57,2.15A22,22,0,0,0,505,44.33c-.49.69-1,1.37-1.47,2.16s-.88,1.27-1.27,1.95A15.31,15.31,0,0,0,501,50.6c-.39.68-.78,1.37-1.18,2S499,54,498.63,54.81A15.42,15.42,0,0,0,497.55,57a21.21,21.21,0,0,0-1,2c-.39.79-.68,1.47-1.07,2.25s-.59,1.37-.88,2.06-.69,1.57-1,2.35c-.2.59-.49,1.27-.69,1.86-.29.88-.68,1.76-1,2.64a7.83,7.83,0,0,0-.39,1.37,113.31,113.31,0,0,0-3.72,15.76c0,.19-.09.49-.09.68-.2,1.18-.3,2.45-.49,3.62,0,.3-.1.59-.1,1-.1,1.18-.2,2.35-.29,3.62a3.24,3.24,0,0,1-.1,1c-.1,1.18-.1,2.35-.1,3.62v5.48c0,1.28.1,2.45.2,3.72a2.29,2.29,0,0,0,.09.78c.1,1.28.2,2.55.4,3.82,0,.2.09.39.09.59.2,1.37.39,2.74.59,4a.37.37,0,0,0,.1.3,101.53,101.53,0,0,0,15.07,38.36Z"/><path class="cls-5" d="M671.36,160.6c.79-1.08,1.47-2.15,2.16-3.23.1-.2.19-.29.29-.49.78-1.17,1.47-2.35,2.15-3.52a.35.35,0,0,1,.1-.2,101,101,0,0,0,13.12-39H658.74c-.2,1.27-.49,2.55-.78,3.82a.35.35,0,0,1-.1.29c-.29,1.18-.59,2.25-.88,3.33-.1.2-.1.39-.2.59-.29,1-.58,2-1,3-.09.29-.19.49-.29.78-.49,1.18-.88,2.45-1.47,3.63-1,2.15-2,4.2-3,6.26a69.65,69.65,0,0,1-12.33,16.34,68.91,68.91,0,0,1-10.57,8.61,77.18,77.18,0,0,1-12.24,6.66A68.14,68.14,0,0,1,588.18,173a68.84,68.84,0,0,1-27.6-5.58c-2-.88-3.82-1.76-5.58-2.74-.68-.39-1.47-.78-2.15-1.18a30.74,30.74,0,0,1-3-1.85c-.88-.59-1.76-1.18-2.54-1.77s-1.47-1.07-2.25-1.66-1.86-1.37-2.74-2.15h0l-.88.68-22.71,19.38c2.06,2.05,4.31,3.91,6.46,5.68a5.67,5.67,0,0,1,.88.78c.88.68,1.76,1.27,2.64,2a8.68,8.68,0,0,0,1.57,1.07c.78.59,1.66,1.18,2.55,1.76a14.37,14.37,0,0,0,1.76,1.08c.78.49,1.66,1.08,2.54,1.57.59.39,1.27.68,1.86,1.07.78.49,1.66.88,2.45,1.37a19.09,19.09,0,0,0,2.05,1c.79.39,1.67.79,2.45,1.18s1.57.68,2.35,1,1.56.68,2.35,1c1.47.59,3,1.18,4.5,1.67a16.4,16.4,0,0,1,2,.68c1,.3,1.86.59,2.84.88.69.2,1.47.39,2.16.59,1,.2,1.85.49,2.83.69.79.19,1.47.29,2.25.49l2.94.58c.69.1,1.47.2,2.25.39,1.08.2,2.06.3,3.13.4a15.93,15.93,0,0,0,2.06.19l3.52.29c.59,0,1.18.1,1.76.1,1.76.1,3.62.1,5.48.1,1.67,0,3.33,0,5.09-.1.59,0,1.08-.1,1.67-.1,1.07-.09,2.25-.09,3.32-.29a14.37,14.37,0,0,1,2-.19,29.63,29.63,0,0,0,2.94-.4,13.45,13.45,0,0,0,2-.39c.88-.19,1.86-.29,2.74-.49a15.26,15.26,0,0,0,2.16-.49l2.64-.58c.68-.2,1.47-.4,2.15-.59s1.66-.49,2.45-.69,1.47-.49,2.15-.68,1.57-.49,2.35-.78,1.47-.49,2.15-.79,1.47-.58,2.25-.88,1.47-.58,2.16-.88a21.44,21.44,0,0,0,2.15-1c.78-.39,1.47-.68,2.25-1.07s1.27-.69,2-1,1.56-.79,2.25-1.18,1.17-.68,1.66-1c.79-.48,1.67-.88,2.45-1.37.39-.29.78-.48,1.17-.78a104.4,104.4,0,0,0,12.92-9.69c.2-.19.39-.29.59-.49.88-.78,1.76-1.66,2.64-2.54l.69-.69,2.54-2.54c.2-.29.49-.49.69-.78.78-.88,1.56-1.77,2.35-2.65.19-.29.48-.49.68-.78a31.18,31.18,0,0,0,2.25-2.84c.2-.29.39-.49.59-.78.78-1,1.47-2,2.25-2.94A1.46,1.46,0,0,0,671.36,160.6Z"/><text class="cls-6" transform="translate(570.91 368.74)">AsiA</text></g></g></svg>