<svg xmlns="http://www.w3.org/2000/svg" xmlns:xlink="http://www.w3.org/1999/xlink" xmlns:lucid="lucid" width="1800" height="1240"><g transform="translate(580 -1740)" lucid:page-tab-id="0_0"><path d="M-1806.87 1258.83h3677.74V3840.5h-3677.74z" fill="#fff"/><path d="M-560 1766c0-3.3 2.7-6 6-6h1748c3.3 0 6 2.7 6 6v708c0 3.3-2.7 6-6 6H-554c-3.3 0-6-2.7-6-6z" stroke="#5e5e5e" stroke-width="3" fill="#b2b2b2"/><use xlink:href="#a" transform="matrix(1,0,0,1,-548,1772) translate(827.9074074074074 355.38715277777777)"/><path d="M-560 2526c0-3.3 2.7-6 6-6h1748c3.3 0 6 2.7 6 6v428c0 3.3-2.7 6-6 6H-554c-3.3 0-6-2.7-6-6z" stroke="#5e5e5e" stroke-width="3" fill="#99d5ca"/><path d="M-419.63 1846c0-3.3 2.7-6 6-6h148c3.32 0 6 2.7 6 6v100.6c0 3.3-2.68 6-6 6h-148c-3.3 0-6-2.7-6-6z" stroke="#5e5e5e" stroke-width="3" fill="#7ab648"/><use xlink:href="#b" transform="matrix(1,0,0,1,-407.625,1852) translate(5.716049382716051 34.46527777777778)"/><use xlink:href="#c" transform="matrix(1,0,0,1,-407.625,1852) translate(50.098765432098766 34.46527777777778)"/><use xlink:href="#d" transform="matrix(1,0,0,1,-407.625,1852) translate(31.580246913580247 61.13194444444445)"/><path d="M-520 2047.54c0-3.3 2.7-6 6-6h348.75c3.3 0 6 2.7 6 6V2394c0 3.3-2.7 6-6 6H-514c-3.3 0-6-2.7-6-6z" stroke="#5e5e5e" stroke-width="3" fill="#19967d"/><path d="M-460 2107.43c0-3.3 2.7-6 6-6h226.14c3.3 0 6 2.7 6 6v92c0 3.3-2.7 6-6 6H-454c-3.3 0-6-2.7-6-6z" stroke="#5e5e5e" stroke-width="3" fill="#99d2f2"/><use xlink:href="#e" transform="matrix(1,0,0,1,-448,2113.431053510184) translate(41.65246913580246 17.422222222222224)"/><use xlink:href="#f" transform="matrix(1,0,0,1,-448,2113.431053510184) translate(106.80432098765432 17.422222222222224)"/><use xlink:href="#g" transform="matrix(1,0,0,1,-448,2113.431053510184) translate(3.5413580246913625 43.55555555555556)"/><use xlink:href="#h" transform="matrix(1,0,0,1,-448,2113.431053510184) translate(94.2820987654321 43.55555555555556)"/><use xlink:href="#i" transform="matrix(1,0,0,1,-448,2113.431053510184) translate(192.1611111111111 43.55555555555556)"/><use xlink:href="#j" transform="matrix(1,0,0,1,-448,2113.431053510184) translate(65.21481481481482 69.6888888888889)"/><path d="M-460 2247.43c0-3.3 2.7-6 6-6h226.14c3.3 0 6 2.7 6 6v92c0 3.3-2.7 6-6 6H-454c-3.3 0-6-2.7-6-6z" stroke="#5e5e5e" stroke-width="3" fill="#99d2f2"/><use xlink:href="#k" transform="matrix(1,0,0,1,-448,2253.431053510184) translate(15.609876543209879 17.422222222222224)"/><use xlink:href="#l" transform="matrix(1,0,0,1,-448,2253.431053510184) translate(80.88271604938272 17.422222222222224)"/><use xlink:href="#f" transform="matrix(1,0,0,1,-448,2253.431053510184) translate(132.8469135802469 17.422222222222224)"/><use xlink:href="#g" transform="matrix(1,0,0,1,-448,2253.431053510184) translate(3.5413580246913625 43.55555555555556)"/><use xlink:href="#h" transform="matrix(1,0,0,1,-448,2253.431053510184) translate(94.2820987654321 43.55555555555556)"/><use xlink:href="#i" transform="matrix(1,0,0,1,-448,2253.431053510184) translate(192.1611111111111 43.55555555555556)"/><use xlink:href="#j" transform="matrix(1,0,0,1,-448,2253.431053510184) translate(65.21481481481482 69.6888888888889)"/><path d="M-540 2047.54c0-3.3 2.7-6 6-6h388c3.3 0 6 2.7 6 6v51.33c0 3.32-2.7 6-6 6h-388c-3.3 0-6-2.68-6-6z" stroke="#000" stroke-opacity="0" stroke-width="3" fill="#fff" fill-opacity="0"/><use xlink:href="#m" transform="matrix(1,0,0,1,-535,2046.540227002907) translate(32.25308641975312 31.27777777777778)"/><use xlink:href="#n" transform="matrix(1,0,0,1,-535,2046.540227002907) translate(86.51234567901238 31.27777777777778)"/><use xlink:href="#o" transform="matrix(1,0,0,1,-535,2046.540227002907) translate(111.20370370370374 31.27777777777778)"/><use xlink:href="#p" transform="matrix(1,0,0,1,-535,2046.540227002907) translate(195.0925925925926 31.27777777777778)"/><use xlink:href="#q" transform="matrix(1,0,0,1,-535,2046.540227002907) translate(296.08024691358025 31.27777777777778)"/><path d="M-180 2169.4c0-3.3 2.7-6 6-6H54c3.3 0 6 2.7 6 6v74.3c0 3.3-2.7 6-6 6h-228c-3.3 0-6-2.7-6-6z" stroke="#000" stroke-opacity="0" stroke-width="3" fill="#fff" fill-opacity="0"/><use xlink:href="#r" transform="matrix(1,0,0,1,-175,2168.4056898756544) translate(52.098765432098766 41.84027777777778)"/><use xlink:href="#s" transform="matrix(1,0,0,1,-175,2168.4056898756544) translate(124.81481481481481 41.84027777777778)"/><path d="M1001.5 2688.94c0-3.32 2.7-6 6-6h148c3.3 0 6 2.68 6 6v108c0 3.3-2.7 6-6 6h-148c-3.3 0-6-2.7-6-6z" stroke="#5e5e5e" stroke-width="3" fill="#ff8f80"/><use xlink:href="#t" transform="matrix(1,0,0,1,1013.5,2694.9361209351423) translate(29.75925925925926 26.77777777777778)"/><use xlink:href="#u" transform="matrix(1,0,0,1,1013.5,2694.9361209351423) translate(89.01851851851852 26.77777777777778)"/><use xlink:href="#v" transform="matrix(1,0,0,1,1013.5,2694.9361209351423) translate(8.03086419753086 53.44444444444445)"/><use xlink:href="#w" transform="matrix(1,0,0,1,1013.5,2694.9361209351423) translate(15.00617283950617 80.11111111111111)"/><path d="M617 2580.63c0-3.32 2.7-6 6-6h168c3.3 0 6 2.68 6 6v86.82c0 3.32-2.7 6-6 6H623c-3.3 0-6-2.68-6-6z" stroke="#5e5e5e" stroke-width="3" fill="#b391b5"/><use xlink:href="#x" transform="matrix(1,0,0,1,629,2586.62842862745) translate(5.7777777777777715 29.49652777777778)"/><use xlink:href="#y" transform="matrix(1,0,0,1,629,2586.62842862745) translate(51.456790123456784 29.49652777777778)"/><use xlink:href="#z" transform="matrix(1,0,0,1,629,2586.62842862745) translate(41.611111111111114 56.16319444444445)"/><use xlink:href="#A" transform="matrix(1,0,0,1,629,2586.62842862745) translate(60.12962962962963 56.16319444444445)"/><path d="M617 2816.16c0-3.3 2.7-6 6-6h168c3.3 0 6 2.7 6 6V2903c0 3.3-2.7 6-6 6H623c-3.3 0-6-2.7-6-6z" stroke="#5e5e5e" stroke-width="3" fill="#b391b5"/><use xlink:href="#x" transform="matrix(1,0,0,1,629,2822.1638735746596) translate(5.7777777777777715 29.49652777777778)"/><use xlink:href="#y" transform="matrix(1,0,0,1,629,2822.1638735746596) translate(51.456790123456784 29.49652777777778)"/><use xlink:href="#B" transform="matrix(1,0,0,1,629,2822.1638735746596) translate(41.611111111111114 56.16319444444445)"/><use xlink:href="#A" transform="matrix(1,0,0,1,629,2822.1638735746596) translate(60.12962962962963 56.16319444444445)"/><path d="M-120 2580.63c0-3.32 2.7-6 6-6H84c3.3 0 6 2.68 6 6v92c0 3.3-2.7 6-6 6h-198c-3.3 0-6-2.7-6-6z" stroke="#5e5e5e" stroke-width="3" fill="#b391b5"/><use xlink:href="#C" transform="matrix(1,0,0,1,-107.99999999999977,2586.62842862745) translate(51.7037037037037 30.27777777777778)"/><use xlink:href="#D" transform="matrix(1,0,0,1,-107.99999999999977,2586.62842862745) translate(4.141975308641975 56.94444444444445)"/><use xlink:href="#z" transform="matrix(1,0,0,1,-107.99999999999977,2586.62842862745) translate(109.08024691358025 56.94444444444445)"/><use xlink:href="#A" transform="matrix(1,0,0,1,-107.99999999999977,2586.62842862745) translate(127.59876543209877 56.94444444444445)"/><path d="M-120 2811c0-3.33 2.7-6 6-6H84c3.3 0 6 2.67 6 6v92c0 3.3-2.7 6-6 6h-198c-3.3 0-6-2.7-6-6z" stroke="#5e5e5e" stroke-width="3" fill="#b391b5"/><use xlink:href="#C" transform="matrix(1,0,0,1,-107.99999999999994,2816.9874029864245) translate(51.7037037037037 30.27777777777778)"/><use xlink:href="#D" transform="matrix(1,0,0,1,-107.99999999999994,2816.9874029864245) translate(4.141975308641975 56.94444444444445)"/><use xlink:href="#B" transform="matrix(1,0,0,1,-107.99999999999994,2816.9874029864245) translate(109.08024691358025 56.94444444444445)"/><use xlink:href="#A" transform="matrix(1,0,0,1,-107.99999999999994,2816.9874029864245) translate(127.59876543209877 56.94444444444445)"/><path d="M-480 2688.94c0-3.32 2.7-6 6-6h148c3.3 0 6 2.68 6 6v108c0 3.3-2.7 6-6 6h-148c-3.3 0-6-2.7-6-6z" stroke="#5e5e5e" stroke-width="3" fill="#c7e8ac"/><use xlink:href="#r" transform="matrix(1,0,0,1,-468,2694.9361209351423) translate(1.4876543209876445 26.77777777777778)"/><use xlink:href="#E" transform="matrix(1,0,0,1,-468,2694.9361209351423) translate(74.2037037037037 26.77777777777778)"/><use xlink:href="#F" transform="matrix(1,0,0,1,-468,2694.9361209351423) translate(11.302469135802468 53.44444444444445)"/><use xlink:href="#G" transform="matrix(1,0,0,1,-468,2694.9361209351423) translate(98.83333333333333 53.44444444444445)"/><use xlink:href="#H" transform="matrix(1,0,0,1,-468,2694.9361209351423) translate(18.617283950617278 80.11111111111111)"/><path d="M999 2742.94h-93.75c-3.3 0-6-2.7-6-6v-106.9c0-3.3-2.7-6-6-6H817" stroke="#5e5e5e" stroke-width="2" fill="none"/><path d="M1000 2743.94h-1.03v-2h1.03z" fill="#5e5e5e"/><path d="M801.74 2624.04l14.26-4.64v9.28z" stroke="#5e5e5e" stroke-width="2" fill="#5e5e5e"/><path d="M999 2742.94h-93.75c-3.3 0-6 2.68-6 6v104.64c0 3.3-2.7 6-6 6H817" stroke="#5e5e5e" stroke-width="2" fill="none"/><path d="M1000 2743.94h-1.03v-2h1.03z" fill="#5e5e5e"/><path d="M801.74 2859.58l14.26-4.64v9.27z" stroke="#5e5e5e" stroke-width="2" fill="#5e5e5e"/><path d="M617 2306c0-3.3 2.7-6 6-6h449.5c3.3 0 6 2.7 6 6v131.33c0 3.32-2.7 6-6 6H623c-3.3 0-6-2.68-6-6z" stroke="#000" stroke-opacity="0" stroke-width="3" fill="#fff" fill-opacity="0"/><use xlink:href="#b" transform="matrix(1,0,0,1,622,2305) translate(28.16049382716048 42.90277777777778)"/><use xlink:href="#I" transform="matrix(1,0,0,1,622,2305) translate(72.54320987654319 42.90277777777778)"/><use xlink:href="#J" transform="matrix(1,0,0,1,622,2305) translate(151.37037037037035 42.90277777777778)"/><use xlink:href="#K" transform="matrix(1,0,0,1,622,2305) translate(259.82716049382714 42.90277777777778)"/><use xlink:href="#L" transform="matrix(1,0,0,1,622,2305) translate(315.320987654321 42.90277777777778)"/><use xlink:href="#M" transform="matrix(1,0,0,1,622,2305) translate(344.9506172839506 42.90277777777778)"/><use xlink:href="#N" transform="matrix(1,0,0,1,622,2305) translate(31.802469135802482 69.56944444444446)"/><use xlink:href="#O" transform="matrix(1,0,0,1,622,2305) translate(89.76543209876544 69.56944444444446)"/><use xlink:href="#P" transform="matrix(1,0,0,1,622,2305) translate(113.16049382716051 69.56944444444446)"/><use xlink:href="#Q" transform="matrix(1,0,0,1,622,2305) translate(332.6049382716049 69.56944444444446)"/><use xlink:href="#R" transform="matrix(1,0,0,1,622,2305) translate(383.16049382716045 69.56944444444446)"/><use xlink:href="#S" transform="matrix(1,0,0,1,622,2305) translate(0.35185185185187606 96.23611111111111)"/><use xlink:href="#T" transform="matrix(1,0,0,1,622,2305) translate(100.22839506172842 96.23611111111111)"/><use xlink:href="#U" transform="matrix(1,0,0,1,622,2305) translate(137.26543209876544 96.23611111111111)"/><use xlink:href="#F" transform="matrix(1,0,0,1,622,2305) translate(203.7469135802469 96.23611111111111)"/><use xlink:href="#V" transform="matrix(1,0,0,1,622,2305) translate(291.2777777777777 96.23611111111111)"/><use xlink:href="#s" transform="matrix(1,0,0,1,622,2305) translate(398.56172839506166 96.23611111111111)"/><path d="M-300 2742.94h74c3.3 0 6-2.7 6-6v-98.5c0-3.32 2.7-6 6-6h91.5" stroke="#5e5e5e" stroke-width="2" fill="none"/><path d="M-315.26 2742.94l14.26-4.64v9.27z" stroke="#5e5e5e" stroke-width="2" fill="#5e5e5e"/><path d="M-121.5 2633.44h-1.03v-2h1.03z" fill="#5e5e5e"/><path d="M-300 2742.94h74c3.3 0 6 2.68 6 6v98.5c0 3.3 2.7 6 6 6h91.5" stroke="#5e5e5e" stroke-width="2" fill="none"/><path d="M-315.26 2742.94l14.26-4.64v9.27z" stroke="#5e5e5e" stroke-width="2" fill="#5e5e5e"/><path d="M-121.5 2854.44h-1.03v-2h1.03z" fill="#5e5e5e"/><path d="M240 2578.04c0-3.3 2.7-6 6-6h198c3.3 0 6 2.7 6 6v92c0 3.3-2.7 6-6 6H246c-3.3 0-6-2.7-6-6z" stroke="#5e5e5e" stroke-width="3" fill="#a3d977"/><use xlink:href="#W" transform="matrix(1,0,0,1,252,2584.0401933333324) translate(8.338888888888889 32.422222222222224)"/><use xlink:href="#X" transform="matrix(1,0,0,1,252,2584.0401933333324) translate(111.1783950617284 32.422222222222224)"/><use xlink:href="#Y" transform="matrix(1,0,0,1,252,2584.0401933333324) translate(129.32654320987655 32.422222222222224)"/><use xlink:href="#Z" transform="matrix(1,0,0,1,252,2584.0401933333324) translate(4.195061728395075 58.555555555555564)"/><use xlink:href="#aa" transform="matrix(1,0,0,1,252,2584.0401933333324) translate(81.56666666666668 58.555555555555564)"/><path d="M240 2812.7c0-3.3 2.7-6 6-6h198c3.3 0 6 2.7 6 6v92c0 3.32-2.7 6-6 6H246c-3.3 0-6-2.68-6-6z" stroke="#5e5e5e" stroke-width="3" fill="#a3d977"/><g><use xlink:href="#W" transform="matrix(1,0,0,1,252,2818.706859999999) translate(8.338888888888889 32.422222222222224)"/><use xlink:href="#ab" transform="matrix(1,0,0,1,252,2818.706859999999) translate(111.1783950617284 32.422222222222224)"/><use xlink:href="#Y" transform="matrix(1,0,0,1,252,2818.706859999999) translate(129.32654320987655 32.422222222222224)"/><use xlink:href="#Z" transform="matrix(1,0,0,1,252,2818.706859999999) translate(4.195061728395075 58.555555555555564)"/><use xlink:href="#aa" transform="matrix(1,0,0,1,252,2818.706859999999) translate(81.56666666666668 58.555555555555564)"/></g><path d="M237.5 2858.7H110" stroke="#5e5e5e" stroke-width="2" fill="none"/><path d="M238.5 2859.7h-1.03v-2h1.03z" fill="#5e5e5e"/><path d="M94.74 2858.7l14.26-4.63v9.27z" stroke="#5e5e5e" stroke-width="2" fill="#5e5e5e"/><path d="M237.5 2624.04H110" stroke="#5e5e5e" stroke-width="2" fill="none"/><path d="M238.5 2625.04h-1.03v-2h1.03z" fill="#5e5e5e"/><path d="M94.74 2624.04l14.26-4.64v9.28z" stroke="#5e5e5e" stroke-width="2" fill="#5e5e5e"/><path d="M40 2109.33c0-3.3 2.7-6 6-6h387.25c3.3 0 6 2.7 6 6v221.57c0 3.3-2.7 6-6 6H46c-3.3 0-6-2.7-6-6z" stroke="#5e5e5e" stroke-width="3" fill="#ffbbb1"/><g><use xlink:href="#ac" transform="matrix(1,0,0,1,52,2115.333333333333) translate(21.580246913580254 125.84209777777775)"/><use xlink:href="#ad" transform="matrix(1,0,0,1,52,2115.333333333333) translate(88.18518518518519 125.84209777777775)"/><use xlink:href="#F" transform="matrix(1,0,0,1,52,2115.333333333333) translate(165.77777777777777 125.84209777777775)"/><use xlink:href="#ae" transform="matrix(1,0,0,1,52,2115.333333333333) translate(253.30864197530863 125.84209777777775)"/><use xlink:href="#af" transform="matrix(1,0,0,1,52,2115.333333333333) translate(93.03086419753086 152.5087644444444)"/><use xlink:href="#ag" transform="matrix(1,0,0,1,52,2115.333333333333) translate(138.64814814814815 152.5087644444444)"/><use xlink:href="#ah" transform="matrix(1,0,0,1,52,2115.333333333333) translate(197.9074074074074 152.5087644444444)"/><use xlink:href="#ag" transform="matrix(1,0,0,1,52,2115.333333333333) translate(81.27160493827161 179.17543111111107)"/><use xlink:href="#ai" transform="matrix(1,0,0,1,52,2115.333333333333) translate(140.53086419753086 179.17543111111107)"/><use xlink:href="#aj" transform="matrix(1,0,0,1,52,2115.333333333333) translate(198.55555555555554 179.17543111111107)"/><use xlink:href="#ak" transform="matrix(1,0,0,1,52,2115.333333333333) translate(254.1111111111111 179.17543111111107)"/><use xlink:href="#al" transform="matrix(1,0,0,1,52,2115.333333333333) translate(70.90123456790124 205.84209777777772)"/><use xlink:href="#F" transform="matrix(1,0,0,1,52,2115.333333333333) translate(137.38271604938274 205.84209777777772)"/><use xlink:href="#am" transform="matrix(1,0,0,1,52,2115.333333333333) translate(224.9135802469136 205.84209777777772)"/></g><path d="M140 2134.1c0-3.32 2.7-6 6-6h189.5c3.3 0 6 2.68 6 6v62.8c0 3.32-2.7 6-6 6H146c-3.3 0-6-2.68-6-6z" stroke="#5e5e5e" stroke-width="3" fill="#ff8f80"/><g><use xlink:href="#t" transform="matrix(1,0,0,1,152,2140.0977201768505) translate(28.567901234567906 30.52777777777778)"/><use xlink:href="#O" transform="matrix(1,0,0,1,152,2140.0977201768505) translate(87.82716049382717 30.52777777777778)"/><use xlink:href="#an" transform="matrix(1,0,0,1,152,2140.0977201768505) translate(111.22222222222223 30.52777777777778)"/></g><path d="M-156.75 2220.77h96.8c.18 0 .32.15.32.33 0 .18.15.33.34.33H20" stroke="#5e5e5e" stroke-width="2" fill="none"/><path d="M-156.72 2221.77h-1.03v-2h1.03z" fill="#5e5e5e"/><path d="M35.26 2221.43L21 2226.07v-9.27z" stroke="#5e5e5e" stroke-width="2" fill="#5e5e5e"/><path d="M520 1889.1c0-3.3 2.7-6 6-6h348c3.3 0 6 2.7 6 6V2034c0 3.3-2.7 6-6 6H526c-3.3 0-6-2.7-6-6z" stroke="#5e5e5e" stroke-width="3" fill="#ffbbb1"/><g><use xlink:href="#ac" transform="matrix(1,0,0,1,532,1895.1020093203417) translate(65.09876543209876 127.20379377777778)"/><use xlink:href="#ao" transform="matrix(1,0,0,1,532,1895.1020093203417) translate(131.7037037037037 127.20379377777778)"/><use xlink:href="#ap" transform="matrix(1,0,0,1,532,1895.1020093203417) translate(198.2469135802469 127.20379377777778)"/></g><path d="M558.5 1911.28c0-3.3 2.7-6 6-6h268c3.3 0 6 2.7 6 6v65.34c0 3.3-2.7 6-6 6h-268c-3.3 0-6-2.7-6-6z" stroke="#5e5e5e" stroke-width="3" fill="#ff8f80"/><g><use xlink:href="#aq" transform="matrix(1,0,0,1,570.5000000000001,1917.282051282051) translate(4.358024691358025 31.27777777777778)"/><use xlink:href="#U" transform="matrix(1,0,0,1,570.5000000000001,1917.282051282051) translate(82.07407407407408 31.27777777777778)"/><use xlink:href="#O" transform="matrix(1,0,0,1,570.5000000000001,1917.282051282051) translate(148.55555555555554 31.27777777777778)"/><use xlink:href="#ar" transform="matrix(1,0,0,1,570.5000000000001,1917.282051282051) translate(171.9506172839506 31.27777777777778)"/></g><path d="M520 2134.1c0-3.32 2.7-6 6-6h348c3.3 0 6 2.68 6 6V2279c0 3.3-2.7 6-6 6H526c-3.3 0-6-2.7-6-6z" stroke="#5e5e5e" stroke-width="3" fill="#ffbbb1"/><g><use xlink:href="#ac" transform="matrix(1,0,0,1,532,2140.0977201768505) translate(28.709876543209873 127.20379377777778)"/><use xlink:href="#U" transform="matrix(1,0,0,1,532,2140.0977201768505) translate(95.31481481481481 127.20379377777778)"/><use xlink:href="#F" transform="matrix(1,0,0,1,532,2140.0977201768505) translate(161.7962962962963 127.20379377777778)"/><use xlink:href="#as" transform="matrix(1,0,0,1,532,2140.0977201768505) translate(249.32716049382717 127.20379377777778)"/></g><path d="M540 2155.1c0-3.3 2.7-6 6-6h308c3.3 0 6 2.7 6 6v65.34c0 3.32-2.7 6-6 6H546c-3.3 0-6-2.68-6-6z" stroke="#5e5e5e" stroke-width="3" fill="#ff8f80"/><g><use xlink:href="#t" transform="matrix(1,0,0,1,552,2161.11100987742) translate(5.62345679012347 31.27777777777778)"/><use xlink:href="#at" transform="matrix(1,0,0,1,552,2161.11100987742) translate(64.88271604938274 31.27777777777778)"/><use xlink:href="#U" transform="matrix(1,0,0,1,552,2161.11100987742) translate(78.40123456790124 31.27777777777778)"/><use xlink:href="#F" transform="matrix(1,0,0,1,552,2161.11100987742) translate(144.8827160493827 31.27777777777778)"/><use xlink:href="#as" transform="matrix(1,0,0,1,552,2161.11100987742) translate(232.41358024691357 31.27777777777778)"/></g><path d="M614.5 2624.04H470" stroke="#5e5e5e" stroke-width="2" fill="none"/><path d="M615.5 2625.04h-1.03v-2h1.03z" fill="#5e5e5e"/><path d="M454.74 2624.04l14.26-4.64v9.28z" stroke="#5e5e5e" stroke-width="2" fill="#5e5e5e"/><path d="M614.5 2859.58H470" stroke="#5e5e5e" stroke-width="2" fill="none"/><path d="M615.5 2860.58h-1.03v-2h1.03z" fill="#5e5e5e"/><path d="M454.74 2859.58l14.26-4.64v9.27z" stroke="#5e5e5e" stroke-width="2" fill="#5e5e5e"/><path d="M239.63 2339.4v74.6c0 3.3 2.68 6 6 6h829.87c3.3 0 6 2.7 6 6v236.93" stroke="#5e5e5e" stroke-width="2" fill="none"/><path d="M240.63 2339.42h-2v-1.02h2z" fill="#5e5e5e"/><path d="M1081.5 2678.2l-4.64-14.27h9.28z" stroke="#5e5e5e" stroke-width="2" fill="#5e5e5e"/><path d="M882.5 2206.55h193c3.3 0 6 2.68 6 6v450.38" stroke="#5e5e5e" stroke-width="2" fill="none"/><path d="M882.53 2207.55h-1.03v-2h1.03z" fill="#5e5e5e"/><path d="M1081.5 2678.2l-4.64-14.27h9.28z" stroke="#5e5e5e" stroke-width="2" fill="#5e5e5e"/><path d="M441.75 2220.12H500" stroke="#5e5e5e" stroke-width="2" fill="none"/><path d="M441.78 2221.12h-1.03v-2h1.03z" fill="#5e5e5e"/><path d="M515.26 2220.12l-14.26 4.63v-9.27z" stroke="#5e5e5e" stroke-width="2" fill="#5e5e5e"/><path d="M239.63 2100.83v-133.28c0-3.3 2.68-6 6-6H500" stroke="#5e5e5e" stroke-width="2" fill="none"/><path d="M240.63 2101.83h-2v-1.02h2z" fill="#5e5e5e"/><path d="M515.26 1961.55L501 1966.2v-9.28z" stroke="#5e5e5e" stroke-width="2" fill="#5e5e5e"/><path d="M882.5 1961.55h193c3.3 0 6 2.7 6 6v695.38" stroke="#5e5e5e" stroke-width="2" fill="none"/><path d="M882.53 1962.55h-1.03v-2h1.03z" fill="#5e5e5e"/><path d="M1081.5 2678.2l-4.64-14.27h9.28z" stroke="#5e5e5e" stroke-width="2" fill="#5e5e5e"/><path d="M-540 2527.67c0-3.3 2.7-6 6-6h228c3.3 0 6 2.7 6 6v48c0 3.3-2.7 6-6 6h-228c-3.3 0-6-2.7-6-6z" stroke="#000" stroke-opacity="0" stroke-width="3" fill="#fff" fill-opacity="0"/><g><use xlink:href="#au" transform="matrix(1,0,0,1,-535,2526.6692913385823) translate(0 30.27777777777778)"/><use xlink:href="#av" transform="matrix(1,0,0,1,-535,2526.6692913385823) translate(115 30.27777777777778)"/></g><path d="M-339.63 1955.1v66.44" stroke="#5e5e5e" stroke-width="2" fill="none"/><path d="M-338.63 1955.12h-2v-1.02h2z" fill="#5e5e5e"/><path d="M-339.63 2036.8l-4.63-14.26h9.27z" stroke="#5e5e5e" stroke-width="2" fill="#5e5e5e"/><path d="M-540 1766c0-3.3 2.7-6 6-6h228c3.3 0 6 2.7 6 6v48c0 3.3-2.7 6-6 6h-228c-3.3 0-6-2.7-6-6z" stroke="#000" stroke-opacity="0" stroke-width="3" fill="#fff" fill-opacity="0"/><g><use xlink:href="#al" transform="matrix(1,0,0,1,-535,1765) translate(0 30.27777777777778)"/><use xlink:href="#aw" transform="matrix(1,0,0,1,-535,1765) translate(66.48148148148148 30.27777777777778)"/><use xlink:href="#ax" transform="matrix(1,0,0,1,-535,1765) translate(153.51851851851853 30.27777777777778)"/></g><path d="M220 1918.6c0-3.32 2.7-6 6-6h228c3.3 0 6 2.68 6 6v48c0 3.3-2.7 6-6 6H226c-3.3 0-6-2.7-6-6z" stroke="#000" stroke-opacity="0" stroke-width="3" fill="#fff" fill-opacity="0"/><g><use xlink:href="#ay" transform="matrix(1,0,0,1,225,1917.5961538461545) translate(34.19753086419753 30.27777777777778)"/><use xlink:href="#s" transform="matrix(1,0,0,1,225,1917.5961538461545) translate(142.71604938271605 30.27777777777778)"/></g><defs><path fill="#333" d="M30-248c87 1 191-15 191 75 0 78-77 80-158 76V0H30v-248zm33 125c57 0 124 11 124-50 0-59-68-47-124-48v98" id="az"/><path fill="#333" d="M114-163C36-179 61-72 57 0H25l-1-190h30c1 12-1 29 2 39 6-27 23-49 58-41v29" id="aA"/><path fill="#333" d="M100-194c62-1 85 37 85 99 1 63-27 99-86 99S16-35 15-95c0-66 28-99 85-99zM99-20c44 1 53-31 53-75 0-43-8-75-51-75s-53 32-53 75 10 74 51 75" id="aB"/><path fill="#333" d="M96-169c-40 0-48 33-48 73s9 75 48 75c24 0 41-14 43-38l32 2c-6 37-31 61-74 61-59 0-76-41-82-99-10-93 101-131 147-64 4 7 5 14 7 22l-32 3c-4-21-16-35-41-35" id="aC"/><path fill="#333" d="M100-194c63 0 86 42 84 106H49c0 40 14 67 53 68 26 1 43-12 49-29l28 8c-11 28-37 45-77 45C44 4 14-33 15-96c1-61 26-98 85-98zm52 81c6-60-76-77-97-28-3 7-6 17-6 28h103" id="aD"/><path fill="#333" d="M135-143c-3-34-86-38-87 0 15 53 115 12 119 90S17 21 10-45l28-5c4 36 97 45 98 0-10-56-113-15-118-90-4-57 82-63 122-42 12 7 21 19 24 35" id="aE"/><g id="a"><use transform="matrix(0.06172839506172839,0,0,0.06172839506172839,0,0)" xlink:href="#az"/><use transform="matrix(0.06172839506172839,0,0,0.06172839506172839,14.814814814814813,0)" xlink:href="#aA"/><use transform="matrix(0.06172839506172839,0,0,0.06172839506172839,22.160493827160494,0)" xlink:href="#aB"/><use transform="matrix(0.06172839506172839,0,0,0.06172839506172839,34.50617283950617,0)" xlink:href="#aC"/><use transform="matrix(0.06172839506172839,0,0,0.06172839506172839,45.61728395061728,0)" xlink:href="#aD"/><use transform="matrix(0.06172839506172839,0,0,0.06172839506172839,57.962962962962955,0)" xlink:href="#aE"/><use transform="matrix(0.06172839506172839,0,0,0.06172839506172839,69.07407407407406,0)" xlink:href="#aE"/></g><path fill="#333" d="M266 0h-40l-56-210L115 0H75L2-248h35L96-30l15-64 43-154h32l59 218 59-218h35" id="aF"/><path fill="#333" d="M143 4C61 4 22-44 18-125c-5-107 100-154 193-111 17 8 29 25 37 43l-32 9c-13-25-37-40-76-40-61 0-88 39-88 99 0 61 29 100 91 101 35 0 62-11 79-27v-45h-74v-28h105v86C228-13 192 4 143 4" id="aG"/><g id="b"><use transform="matrix(0.06172839506172839,0,0,0.06172839506172839,0,0)" xlink:href="#aF"/><use transform="matrix(0.06172839506172839,0,0,0.06172839506172839,20.925925925925924,0)" xlink:href="#aG"/></g><path fill="#333" d="M115-194c55 1 70 41 70 98S169 2 115 4C84 4 66-9 55-30l1 105H24l-1-265h31l2 30c10-21 28-34 59-34zm-8 174c40 0 45-34 45-75s-6-73-45-74c-42 0-51 32-51 76 0 43 10 73 51 73" id="aH"/><g id="c"><use transform="matrix(0.06172839506172839,0,0,0.06172839506172839,0,0)" xlink:href="#aH"/><use transform="matrix(0.06172839506172839,0,0,0.06172839506172839,12.345679012345679,0)" xlink:href="#aA"/><use transform="matrix(0.06172839506172839,0,0,0.06172839506172839,19.691358024691358,0)" xlink:href="#aB"/><use transform="matrix(0.06172839506172839,0,0,0.06172839506172839,32.03703703703704,0)" xlink:href="#aH"/><use transform="matrix(0.06172839506172839,0,0,0.06172839506172839,44.382716049382715,0)" xlink:href="#aB"/><use transform="matrix(0.06172839506172839,0,0,0.06172839506172839,56.72839506172839,0)" xlink:href="#aE"/><use transform="matrix(0.06172839506172839,0,0,0.06172839506172839,67.8395061728395,0)" xlink:href="#aD"/></g><path fill="#333" d="M106-169C34-169 62-67 57 0H25v-261h32l-1 103c12-21 28-36 61-36 89 0 53 116 60 194h-32v-121c2-32-8-49-39-48" id="aI"/><path fill="#333" d="M141-36C126-15 110 5 73 4 37 3 15-17 15-53c-1-64 63-63 125-63 3-35-9-54-41-54-24 1-41 7-42 31l-33-3c5-37 33-52 76-52 45 0 72 20 72 64v82c-1 20 7 32 28 27v20c-31 9-61-2-59-35zM48-53c0 20 12 33 32 33 41-3 63-29 60-74-43 2-92-5-92 41" id="aJ"/><path fill="#333" d="M117-194c89-4 53 116 60 194h-32v-121c0-31-8-49-39-48C34-167 62-67 57 0H25l-1-190h30c1 10-1 24 2 32 11-22 29-35 61-36" id="aK"/><path fill="#333" d="M177-190C167-65 218 103 67 71c-23-6-38-20-44-43l32-5c15 47 100 32 89-28v-30C133-14 115 1 83 1 29 1 15-40 15-95c0-56 16-97 71-98 29-1 48 16 59 35 1-10 0-23 2-32h30zM94-22c36 0 50-32 50-73 0-42-14-75-50-75-39 0-46 34-46 75s6 73 46 73" id="aL"/><g id="d"><use transform="matrix(0.06172839506172839,0,0,0.06172839506172839,0,0)" xlink:href="#aC"/><use transform="matrix(0.06172839506172839,0,0,0.06172839506172839,11.11111111111111,0)" xlink:href="#aI"/><use transform="matrix(0.06172839506172839,0,0,0.06172839506172839,23.45679012345679,0)" xlink:href="#aJ"/><use transform="matrix(0.06172839506172839,0,0,0.06172839506172839,35.80246913580247,0)" xlink:href="#aK"/><use transform="matrix(0.06172839506172839,0,0,0.06172839506172839,48.148148148148145,0)" xlink:href="#aL"/><use transform="matrix(0.06172839506172839,0,0,0.06172839506172839,60.49382716049382,0)" xlink:href="#aD"/></g><path d="M240 0l2-218c-23 76-54 145-80 218h-23L58-218 59 0H30v-248h44l77 211c21-75 51-140 76-211h43V0h-30" id="aM"/><path d="M100-194c63 0 86 42 84 106H49c0 40 14 67 53 68 26 1 43-12 49-29l28 8c-11 28-37 45-77 45C44 4 14-33 15-96c1-61 26-98 85-98zm52 81c6-60-76-77-97-28-3 7-6 17-6 28h103" id="aN"/><path d="M59-47c-2 24 18 29 38 22v24C64 9 27 4 27-40v-127H5v-23h24l9-43h21v43h35v23H59v120" id="aO"/><path d="M114-163C36-179 61-72 57 0H25l-1-190h30c1 12-1 29 2 39 6-27 23-49 58-41v29" id="aP"/><path d="M24-231v-30h32v30H24zM24 0v-190h32V0H24" id="aQ"/><path d="M96-169c-40 0-48 33-48 73s9 75 48 75c24 0 41-14 43-38l32 2c-6 37-31 61-74 61-59 0-76-41-82-99-10-93 101-131 147-64 4 7 5 14 7 22l-32 3c-4-21-16-35-41-35" id="aR"/><g id="e"><use transform="matrix(0.06049382716049383,0,0,0.06049382716049383,0,0)" xlink:href="#aM"/><use transform="matrix(0.06049382716049383,0,0,0.06049382716049383,18.087654320987653,0)" xlink:href="#aN"/><use transform="matrix(0.06049382716049383,0,0,0.06049382716049383,30.18641975308642,0)" xlink:href="#aO"/><use transform="matrix(0.06049382716049383,0,0,0.06049382716049383,36.235802469135805,0)" xlink:href="#aP"/><use transform="matrix(0.06049382716049383,0,0,0.06049382716049383,43.43456790123457,0)" xlink:href="#aQ"/><use transform="matrix(0.06049382716049383,0,0,0.06049382716049383,48.21358024691359,0)" xlink:href="#aR"/></g><path d="M141-36C126-15 110 5 73 4 37 3 15-17 15-53c-1-64 63-63 125-63 3-35-9-54-41-54-24 1-41 7-42 31l-33-3c5-37 33-52 76-52 45 0 72 20 72 64v82c-1 20 7 32 28 27v20c-31 9-61-2-59-35zM48-53c0 20 12 33 32 33 41-3 63-29 60-74-43 2-92-5-92 41" id="aS"/><path d="M85-194c31 0 48 13 60 33l-1-100h32l1 261h-30c-2-10 0-23-3-31C134-8 116 4 85 4 32 4 16-35 15-94c0-66 23-100 70-100zm9 24c-40 0-46 34-46 75 0 40 6 74 45 74 42 0 51-32 51-76 0-42-9-74-50-73" id="aT"/><path d="M68-38c1 34 0 65-14 84H32c9-13 17-26 17-46H33v-38h35" id="aU"/><g id="f"><use transform="matrix(0.06049382716049383,0,0,0.06049382716049383,0,0)" xlink:href="#aS"/><use transform="matrix(0.06049382716049383,0,0,0.06049382716049383,12.098765432098766,0)" xlink:href="#aT"/><use transform="matrix(0.06049382716049383,0,0,0.06049382716049383,24.19753086419753,0)" xlink:href="#aT"/><use transform="matrix(0.06049382716049383,0,0,0.06049382716049383,36.2962962962963,0)" xlink:href="#aN"/><use transform="matrix(0.06049382716049383,0,0,0.06049382716049383,48.39506172839506,0)" xlink:href="#aT"/><use transform="matrix(0.06049382716049383,0,0,0.06049382716049383,60.49382716049383,0)" xlink:href="#aU"/></g><path d="M84 4C-5 8 30-112 23-190h32v120c0 31 7 50 39 49 72-2 45-101 50-169h31l1 190h-30c-1-10 1-25-2-33-11 22-28 36-60 37" id="aV"/><path d="M115-194c55 1 70 41 70 98S169 2 115 4C84 4 66-9 55-30l1 105H24l-1-265h31l2 30c10-21 28-34 59-34zm-8 174c40 0 45-34 45-75s-6-73-45-74c-42 0-51 32-51 76 0 43 10 73 51 73" id="aW"/><g id="g"><use transform="matrix(0.06049382716049383,0,0,0.06049382716049383,0,0)" xlink:href="#aV"/><use transform="matrix(0.06049382716049383,0,0,0.06049382716049383,12.098765432098766,0)" xlink:href="#aW"/><use transform="matrix(0.06049382716049383,0,0,0.06049382716049383,24.19753086419753,0)" xlink:href="#aT"/><use transform="matrix(0.06049382716049383,0,0,0.06049382716049383,36.2962962962963,0)" xlink:href="#aS"/><use transform="matrix(0.06049382716049383,0,0,0.06049382716049383,48.39506172839506,0)" xlink:href="#aO"/><use transform="matrix(0.06049382716049383,0,0,0.06049382716049383,54.44444444444444,0)" xlink:href="#aN"/><use transform="matrix(0.06049382716049383,0,0,0.06049382716049383,66.54320987654322,0)" xlink:href="#aT"/><use transform="matrix(0.06049382716049383,0,0,0.06049382716049383,78.64197530864197,0)" xlink:href="#aU"/></g><path d="M117-194c89-4 53 116 60 194h-32v-121c0-31-8-49-39-48C34-167 62-67 57 0H25l-1-190h30c1 10-1 24 2 32 11-22 29-35 61-36" id="aX"/><path d="M210-169c-67 3-38 105-44 169h-31v-121c0-29-5-50-35-48C34-165 62-65 56 0H25l-1-190h30c1 10-1 24 2 32 10-44 99-50 107 0 11-21 27-35 58-36 85-2 47 119 55 194h-31v-121c0-29-5-49-35-48" id="aY"/><g id="h"><use transform="matrix(0.06049382716049383,0,0,0.06049382716049383,0,0)" xlink:href="#aP"/><use transform="matrix(0.06049382716049383,0,0,0.06049382716049383,7.1987654320987655,0)" xlink:href="#aN"/><use transform="matrix(0.06049382716049383,0,0,0.06049382716049383,19.297530864197533,0)" xlink:href="#aX"/><use transform="matrix(0.06049382716049383,0,0,0.06049382716049383,31.396296296296295,0)" xlink:href="#aS"/><use transform="matrix(0.06049382716049383,0,0,0.06049382716049383,43.495061728395065,0)" xlink:href="#aY"/><use transform="matrix(0.06049382716049383,0,0,0.06049382716049383,61.58271604938272,0)" xlink:href="#aN"/><use transform="matrix(0.06049382716049383,0,0,0.06049382716049383,73.68148148148148,0)" xlink:href="#aT"/><use transform="matrix(0.06049382716049383,0,0,0.06049382716049383,85.78024691358024,0)" xlink:href="#aU"/></g><path d="M100-194c62-1 85 37 85 99 1 63-27 99-86 99S16-35 15-95c0-66 28-99 85-99zM99-20c44 1 53-31 53-75 0-43-8-75-51-75s-53 32-53 75 10 74 51 75" id="aZ"/><g id="i"><use transform="matrix(0.06049382716049383,0,0,0.06049382716049383,0,0)" xlink:href="#aZ"/><use transform="matrix(0.06049382716049383,0,0,0.06049382716049383,12.098765432098766,0)" xlink:href="#aP"/></g><path d="M108 0H70L1-190h34L89-25l56-165h34" id="ba"/><g id="j"><use transform="matrix(0.06049382716049383,0,0,0.06049382716049383,0,0)" xlink:href="#aP"/><use transform="matrix(0.06049382716049383,0,0,0.06049382716049383,7.1987654320987655,0)" xlink:href="#aN"/><use transform="matrix(0.06049382716049383,0,0,0.06049382716049383,19.297530864197533,0)" xlink:href="#aY"/><use transform="matrix(0.06049382716049383,0,0,0.06049382716049383,37.385185185185186,0)" xlink:href="#aZ"/><use transform="matrix(0.06049382716049383,0,0,0.06049382716049383,49.48395061728395,0)" xlink:href="#ba"/><use transform="matrix(0.06049382716049383,0,0,0.06049382716049383,60.37283950617284,0)" xlink:href="#aN"/><use transform="matrix(0.06049382716049383,0,0,0.06049382716049383,72.47160493827161,0)" xlink:href="#aT"/></g><path d="M63-220v92h138v28H63V0H30v-248h175v28H63" id="bb"/><path d="M135-143c-3-34-86-38-87 0 15 53 115 12 119 90S17 21 10-45l28-5c4 36 97 45 98 0-10-56-113-15-118-90-4-57 82-63 122-42 12 7 21 19 24 35" id="bc"/><g id="k"><use transform="matrix(0.06049382716049383,0,0,0.06049382716049383,0,0)" xlink:href="#bb"/><use transform="matrix(0.06049382716049383,0,0,0.06049382716049383,13.248148148148148,0)" xlink:href="#aZ"/><use transform="matrix(0.06049382716049383,0,0,0.06049382716049383,25.346913580246913,0)" xlink:href="#aR"/><use transform="matrix(0.06049382716049383,0,0,0.06049382716049383,36.235802469135805,0)" xlink:href="#aV"/><use transform="matrix(0.06049382716049383,0,0,0.06049382716049383,48.33456790123457,0)" xlink:href="#bc"/></g><path d="M205 0l-28-72H64L36 0H1l101-248h38L239 0h-34zm-38-99l-47-123c-12 45-31 82-46 123h93" id="bd"/><g id="l"><use transform="matrix(0.06049382716049383,0,0,0.06049382716049383,0,0)" xlink:href="#bd"/><use transform="matrix(0.06049382716049383,0,0,0.06049382716049383,14.518518518518519,0)" xlink:href="#aP"/><use transform="matrix(0.06049382716049383,0,0,0.06049382716049383,21.717283950617286,0)" xlink:href="#aN"/><use transform="matrix(0.06049382716049383,0,0,0.06049382716049383,33.81604938271605,0)" xlink:href="#aS"/></g><path fill="#333" d="M127-220V0H93v-220H8v-28h204v28h-85" id="be"/><path fill="#333" d="M179-190L93 31C79 59 56 82 12 73V49c39 6 53-20 64-50L1-190h34L92-34l54-156h33" id="bf"/><g id="m"><use transform="matrix(0.06172839506172839,0,0,0.06172839506172839,0,0)" xlink:href="#be"/><use transform="matrix(0.06172839506172839,0,0,0.06172839506172839,12.28395061728395,0)" xlink:href="#bf"/><use transform="matrix(0.06172839506172839,0,0,0.06172839506172839,23.39506172839506,0)" xlink:href="#aH"/><use transform="matrix(0.06172839506172839,0,0,0.06172839506172839,35.74074074074074,0)" xlink:href="#aD"/></g><path fill="#333" d="M101-234c-31-9-42 10-38 44h38v23H63V0H32v-167H5v-23h27c-7-52 17-82 69-68v24" id="bg"/><g id="n"><use transform="matrix(0.06172839506172839,0,0,0.06172839506172839,0,0)" xlink:href="#aB"/><use transform="matrix(0.06172839506172839,0,0,0.06172839506172839,12.345679012345679,0)" xlink:href="#bg"/></g><path fill="#333" d="M212-179c-10-28-35-45-73-45-59 0-87 40-87 99 0 60 29 101 89 101 43 0 62-24 78-52l27 14C228-24 195 4 139 4 59 4 22-46 18-125c-6-104 99-153 187-111 19 9 31 26 39 46" id="bh"/><g id="o"><use transform="matrix(0.06172839506172839,0,0,0.06172839506172839,0,0)" xlink:href="#bh"/><use transform="matrix(0.06172839506172839,0,0,0.06172839506172839,15.987654320987653,0)" xlink:href="#aI"/><use transform="matrix(0.06172839506172839,0,0,0.06172839506172839,28.333333333333332,0)" xlink:href="#aJ"/><use transform="matrix(0.06172839506172839,0,0,0.06172839506172839,40.67901234567901,0)" xlink:href="#aK"/><use transform="matrix(0.06172839506172839,0,0,0.06172839506172839,53.02469135802469,0)" xlink:href="#aL"/><use transform="matrix(0.06172839506172839,0,0,0.06172839506172839,65.37037037037037,0)" xlink:href="#aD"/></g><path fill="#333" d="M87 75C49 33 22-17 22-94c0-76 28-126 65-167h31c-38 41-64 92-64 168S80 34 118 75H87" id="bi"/><path fill="#333" d="M24-231v-30h32v30H24zM24 0v-190h32V0H24" id="bj"/><path fill="#333" d="M24 0v-261h32V0H24" id="bk"/><path fill="#333" d="M84 4C-5 8 30-112 23-190h32v120c0 31 7 50 39 49 72-2 45-101 50-169h31l1 190h-30c-1-10 1-25-2-33-11 22-28 36-60 37" id="bl"/><path fill="#333" d="M85-194c31 0 48 13 60 33l-1-100h32l1 261h-30c-2-10 0-23-3-31C134-8 116 4 85 4 32 4 16-35 15-94c0-66 23-100 70-100zm9 24c-40 0-46 34-46 75 0 40 6 74 45 74 42 0 51-32 51-76 0-42-9-74-50-73" id="bm"/><g id="p"><use transform="matrix(0.06172839506172839,0,0,0.06172839506172839,0,0)" xlink:href="#bi"/><use transform="matrix(0.06172839506172839,0,0,0.06172839506172839,7.345679012345679,0)" xlink:href="#bj"/><use transform="matrix(0.06172839506172839,0,0,0.06172839506172839,12.222222222222221,0)" xlink:href="#aK"/><use transform="matrix(0.06172839506172839,0,0,0.06172839506172839,24.5679012345679,0)" xlink:href="#aC"/><use transform="matrix(0.06172839506172839,0,0,0.06172839506172839,35.67901234567901,0)" xlink:href="#bk"/><use transform="matrix(0.06172839506172839,0,0,0.06172839506172839,40.55555555555556,0)" xlink:href="#bl"/><use transform="matrix(0.06172839506172839,0,0,0.06172839506172839,52.901234567901234,0)" xlink:href="#bm"/><use transform="matrix(0.06172839506172839,0,0,0.06172839506172839,65.24691358024691,0)" xlink:href="#bj"/><use transform="matrix(0.06172839506172839,0,0,0.06172839506172839,70.12345679012346,0)" xlink:href="#aK"/><use transform="matrix(0.06172839506172839,0,0,0.06172839506172839,82.46913580246914,0)" xlink:href="#aL"/></g><path fill="#333" d="M59-47c-2 24 18 29 38 22v24C64 9 27 4 27-40v-127H5v-23h24l9-43h21v43h35v23H59v120" id="bn"/><path fill="#333" d="M33-261c38 41 65 92 65 168S71 34 33 75H2C39 34 66-17 66-93S39-220 2-261h31" id="bo"/><g id="q"><use transform="matrix(0.06172839506172839,0,0,0.06172839506172839,0,0)" xlink:href="#bn"/><use transform="matrix(0.06172839506172839,0,0,0.06172839506172839,6.172839506172839,0)" xlink:href="#aI"/><use transform="matrix(0.06172839506172839,0,0,0.06172839506172839,18.51851851851852,0)" xlink:href="#aD"/><use transform="matrix(0.06172839506172839,0,0,0.06172839506172839,30.864197530864196,0)" xlink:href="#aE"/><use transform="matrix(0.06172839506172839,0,0,0.06172839506172839,41.9753086419753,0)" xlink:href="#aD"/><use transform="matrix(0.06172839506172839,0,0,0.06172839506172839,54.32098765432098,0)" xlink:href="#bo"/></g><g id="r"><use transform="matrix(0.06172839506172839,0,0,0.06172839506172839,0,0)" xlink:href="#bh"/><use transform="matrix(0.06172839506172839,0,0,0.06172839506172839,15.987654320987653,0)" xlink:href="#aA"/><use transform="matrix(0.06172839506172839,0,0,0.06172839506172839,23.333333333333332,0)" xlink:href="#aD"/><use transform="matrix(0.06172839506172839,0,0,0.06172839506172839,35.67901234567901,0)" xlink:href="#aJ"/><use transform="matrix(0.06172839506172839,0,0,0.06172839506172839,48.02469135802469,0)" xlink:href="#bn"/><use transform="matrix(0.06172839506172839,0,0,0.06172839506172839,54.19753086419753,0)" xlink:href="#aD"/></g><path fill="#333" d="M33 0v-248h34V0H33" id="bp"/><g id="s"><use transform="matrix(0.06172839506172839,0,0,0.06172839506172839,0,0)" xlink:href="#bp"/><use transform="matrix(0.06172839506172839,0,0,0.06172839506172839,6.172839506172839,0)" xlink:href="#aE"/><use transform="matrix(0.06172839506172839,0,0,0.06172839506172839,17.28395061728395,0)" xlink:href="#aE"/><use transform="matrix(0.06172839506172839,0,0,0.06172839506172839,28.39506172839506,0)" xlink:href="#bl"/><use transform="matrix(0.06172839506172839,0,0,0.06172839506172839,40.74074074074074,0)" xlink:href="#aD"/></g><g id="t"><use transform="matrix(0.06172839506172839,0,0,0.06172839506172839,0,0)" xlink:href="#bp"/><use transform="matrix(0.06172839506172839,0,0,0.06172839506172839,6.172839506172839,0)" xlink:href="#aE"/><use transform="matrix(0.06172839506172839,0,0,0.06172839506172839,17.28395061728395,0)" xlink:href="#aE"/><use transform="matrix(0.06172839506172839,0,0,0.06172839506172839,28.39506172839506,0)" xlink:href="#bl"/><use transform="matrix(0.06172839506172839,0,0,0.06172839506172839,40.74074074074074,0)" xlink:href="#aD"/></g><g id="u"><use transform="matrix(0.06172839506172839,0,0,0.06172839506172839,0,0)" xlink:href="#bj"/><use transform="matrix(0.06172839506172839,0,0,0.06172839506172839,4.876543209876543,0)" xlink:href="#aK"/></g><g id="v"><use transform="matrix(0.06172839506172839,0,0,0.06172839506172839,0,0)" xlink:href="#be"/><use transform="matrix(0.06172839506172839,0,0,0.06172839506172839,12.716049382716047,0)" xlink:href="#aA"/><use transform="matrix(0.06172839506172839,0,0,0.06172839506172839,20.061728395061728,0)" xlink:href="#aJ"/><use transform="matrix(0.06172839506172839,0,0,0.06172839506172839,32.407407407407405,0)" xlink:href="#aK"/><use transform="matrix(0.06172839506172839,0,0,0.06172839506172839,44.75308641975308,0)" xlink:href="#aE"/><use transform="matrix(0.06172839506172839,0,0,0.06172839506172839,55.86419753086419,0)" xlink:href="#bk"/><use transform="matrix(0.06172839506172839,0,0,0.06172839506172839,60.74074074074073,0)" xlink:href="#aJ"/><use transform="matrix(0.06172839506172839,0,0,0.06172839506172839,73.08641975308642,0)" xlink:href="#bn"/><use transform="matrix(0.06172839506172839,0,0,0.06172839506172839,79.25925925925925,0)" xlink:href="#bj"/><use transform="matrix(0.06172839506172839,0,0,0.06172839506172839,84.1358024691358,0)" xlink:href="#aB"/><use transform="matrix(0.06172839506172839,0,0,0.06172839506172839,96.48148148148148,0)" xlink:href="#aK"/><use transform="matrix(0.06172839506172839,0,0,0.06172839506172839,108.82716049382717,0)" xlink:href="#aE"/></g><path fill="#333" d="M233-177c-1 41-23 64-60 70L243 0h-38l-65-103H63V0H30v-248c88 3 205-21 203 71zM63-129c60-2 137 13 137-47 0-61-80-42-137-45v92" id="bq"/><g id="w"><use transform="matrix(0.06172839506172839,0,0,0.06172839506172839,0,0)" xlink:href="#bq"/><use transform="matrix(0.06172839506172839,0,0,0.06172839506172839,15.987654320987653,0)" xlink:href="#aD"/><use transform="matrix(0.06172839506172839,0,0,0.06172839506172839,28.333333333333332,0)" xlink:href="#aH"/><use transform="matrix(0.06172839506172839,0,0,0.06172839506172839,40.67901234567901,0)" xlink:href="#aB"/><use transform="matrix(0.06172839506172839,0,0,0.06172839506172839,53.02469135802469,0)" xlink:href="#aE"/><use transform="matrix(0.06172839506172839,0,0,0.06172839506172839,64.1358024691358,0)" xlink:href="#bj"/><use transform="matrix(0.06172839506172839,0,0,0.06172839506172839,69.01234567901234,0)" xlink:href="#bn"/><use transform="matrix(0.06172839506172839,0,0,0.06172839506172839,75.18518518518518,0)" xlink:href="#aB"/><use transform="matrix(0.06172839506172839,0,0,0.06172839506172839,87.53086419753086,0)" xlink:href="#aA"/><use transform="matrix(0.06172839506172839,0,0,0.06172839506172839,94.87654320987654,0)" xlink:href="#bf"/></g><path fill="#333" d="M205 0l-28-72H64L36 0H1l101-248h38L239 0h-34zm-38-99l-47-123c-12 45-31 82-46 123h93" id="br"/><g id="x"><use transform="matrix(0.06172839506172839,0,0,0.06172839506172839,0,0)" xlink:href="#br"/><use transform="matrix(0.06172839506172839,0,0,0.06172839506172839,14.814814814814813,0)" xlink:href="#bm"/><use transform="matrix(0.06172839506172839,0,0,0.06172839506172839,27.160493827160494,0)" xlink:href="#bm"/></g><path fill="#333" d="M30 0v-248h33v221h125V0H30" id="bs"/><g id="y"><use transform="matrix(0.06172839506172839,0,0,0.06172839506172839,0,0)" xlink:href="#bs"/><use transform="matrix(0.06172839506172839,0,0,0.06172839506172839,12.345679012345679,0)" xlink:href="#aJ"/><use transform="matrix(0.06172839506172839,0,0,0.06172839506172839,24.691358024691358,0)" xlink:href="#aK"/><use transform="matrix(0.06172839506172839,0,0,0.06172839506172839,37.03703703703704,0)" xlink:href="#aL"/><use transform="matrix(0.06172839506172839,0,0,0.06172839506172839,49.382716049382715,0)" xlink:href="#bl"/><use transform="matrix(0.06172839506172839,0,0,0.06172839506172839,61.72839506172839,0)" xlink:href="#aJ"/><use transform="matrix(0.06172839506172839,0,0,0.06172839506172839,74.07407407407408,0)" xlink:href="#aL"/><use transform="matrix(0.06172839506172839,0,0,0.06172839506172839,86.41975308641976,0)" xlink:href="#aD"/></g><path fill="#333" d="M27 0v-27h64v-190l-56 39v-29l58-41h29v221h61V0H27" id="bt"/><use transform="matrix(0.06172839506172839,0,0,0.06172839506172839,0,0)" xlink:href="#bt" id="z"/><path fill="#333" d="M115-194c53 0 69 39 70 98 0 66-23 100-70 100C84 3 66-7 56-30L54 0H23l1-261h32v101c10-23 28-34 59-34zm-8 174c40 0 45-34 45-75 0-40-5-75-45-74-42 0-51 32-51 76 0 43 10 73 51 73" id="bu"/><g id="A"><use transform="matrix(0.06172839506172839,0,0,0.06172839506172839,0,0)" xlink:href="#bs"/><use transform="matrix(0.06172839506172839,0,0,0.06172839506172839,12.345679012345679,0)" xlink:href="#aJ"/><use transform="matrix(0.06172839506172839,0,0,0.06172839506172839,24.691358024691358,0)" xlink:href="#bu"/><use transform="matrix(0.06172839506172839,0,0,0.06172839506172839,37.03703703703704,0)" xlink:href="#aD"/><use transform="matrix(0.06172839506172839,0,0,0.06172839506172839,49.382716049382715,0)" xlink:href="#bk"/></g><path fill="#333" d="M101-251c82-7 93 87 43 132L82-64C71-53 59-42 53-27h129V0H18c2-99 128-94 128-182 0-28-16-43-45-43s-46 15-49 41l-32-3c6-41 34-60 81-64" id="bv"/><use transform="matrix(0.06172839506172839,0,0,0.06172839506172839,0,0)" xlink:href="#bv" id="B"/><path fill="#333" d="M210-169c-67 3-38 105-44 169h-31v-121c0-29-5-50-35-48C34-165 62-65 56 0H25l-1-190h30c1 10-1 24 2 32 10-44 99-50 107 0 11-21 27-35 58-36 85-2 47 119 55 194h-31v-121c0-29-5-49-35-48" id="bw"/><path fill="#333" d="M108 0H70L1-190h34L89-25l56-165h34" id="bx"/><g id="C"><use transform="matrix(0.06172839506172839,0,0,0.06172839506172839,0,0)" xlink:href="#bq"/><use transform="matrix(0.06172839506172839,0,0,0.06172839506172839,15.987654320987653,0)" xlink:href="#aD"/><use transform="matrix(0.06172839506172839,0,0,0.06172839506172839,28.333333333333332,0)" xlink:href="#bw"/><use transform="matrix(0.06172839506172839,0,0,0.06172839506172839,46.79012345679012,0)" xlink:href="#aB"/><use transform="matrix(0.06172839506172839,0,0,0.06172839506172839,59.1358024691358,0)" xlink:href="#bx"/><use transform="matrix(0.06172839506172839,0,0,0.06172839506172839,70.24691358024691,0)" xlink:href="#aD"/></g><g id="D"><use transform="matrix(0.06172839506172839,0,0,0.06172839506172839,0,0)" xlink:href="#bs"/><use transform="matrix(0.06172839506172839,0,0,0.06172839506172839,12.345679012345679,0)" xlink:href="#aJ"/><use transform="matrix(0.06172839506172839,0,0,0.06172839506172839,24.691358024691358,0)" xlink:href="#aK"/><use transform="matrix(0.06172839506172839,0,0,0.06172839506172839,37.03703703703704,0)" xlink:href="#aL"/><use transform="matrix(0.06172839506172839,0,0,0.06172839506172839,49.382716049382715,0)" xlink:href="#bl"/><use transform="matrix(0.06172839506172839,0,0,0.06172839506172839,61.72839506172839,0)" xlink:href="#aJ"/><use transform="matrix(0.06172839506172839,0,0,0.06172839506172839,74.07407407407408,0)" xlink:href="#aL"/><use transform="matrix(0.06172839506172839,0,0,0.06172839506172839,86.41975308641976,0)" xlink:href="#aD"/></g><path fill="#333" d="M240 0l2-218c-23 76-54 145-80 218h-23L58-218 59 0H30v-248h44l77 211c21-75 51-140 76-211h43V0h-30" id="by"/><g id="E"><use transform="matrix(0.06172839506172839,0,0,0.06172839506172839,0,0)" xlink:href="#by"/><use transform="matrix(0.06172839506172839,0,0,0.06172839506172839,18.456790123456788,0)" xlink:href="#aD"/><use transform="matrix(0.06172839506172839,0,0,0.06172839506172839,30.80246913580247,0)" xlink:href="#bn"/><use transform="matrix(0.06172839506172839,0,0,0.06172839506172839,36.97530864197531,0)" xlink:href="#aA"/><use transform="matrix(0.06172839506172839,0,0,0.06172839506172839,44.32098765432099,0)" xlink:href="#bj"/><use transform="matrix(0.06172839506172839,0,0,0.06172839506172839,49.19753086419753,0)" xlink:href="#aC"/></g><g id="F"><use transform="matrix(0.06172839506172839,0,0,0.06172839506172839,0,0)" xlink:href="#bq"/><use transform="matrix(0.06172839506172839,0,0,0.06172839506172839,15.987654320987653,0)" xlink:href="#aD"/><use transform="matrix(0.06172839506172839,0,0,0.06172839506172839,28.333333333333332,0)" xlink:href="#bk"/><use transform="matrix(0.06172839506172839,0,0,0.06172839506172839,33.20987654320987,0)" xlink:href="#aD"/><use transform="matrix(0.06172839506172839,0,0,0.06172839506172839,45.55555555555555,0)" xlink:href="#aJ"/><use transform="matrix(0.06172839506172839,0,0,0.06172839506172839,57.90123456790123,0)" xlink:href="#aE"/><use transform="matrix(0.06172839506172839,0,0,0.06172839506172839,69.01234567901234,0)" xlink:href="#aD"/></g><g id="G"><use transform="matrix(0.06172839506172839,0,0,0.06172839506172839,0,0)" xlink:href="#bg"/><use transform="matrix(0.06172839506172839,0,0,0.06172839506172839,6.172839506172839,0)" xlink:href="#aB"/><use transform="matrix(0.06172839506172839,0,0,0.06172839506172839,18.51851851851852,0)" xlink:href="#aA"/></g><g id="H"><use transform="matrix(0.06172839506172839,0,0,0.06172839506172839,0,0)" xlink:href="#bs"/><use transform="matrix(0.06172839506172839,0,0,0.06172839506172839,12.345679012345679,0)" xlink:href="#aJ"/><use transform="matrix(0.06172839506172839,0,0,0.06172839506172839,24.691358024691358,0)" xlink:href="#aK"/><use transform="matrix(0.06172839506172839,0,0,0.06172839506172839,37.03703703703704,0)" xlink:href="#aL"/><use transform="matrix(0.06172839506172839,0,0,0.06172839506172839,49.382716049382715,0)" xlink:href="#bl"/><use transform="matrix(0.06172839506172839,0,0,0.06172839506172839,61.72839506172839,0)" xlink:href="#aJ"/><use transform="matrix(0.06172839506172839,0,0,0.06172839506172839,74.07407407407408,0)" xlink:href="#aL"/><use transform="matrix(0.06172839506172839,0,0,0.06172839506172839,86.41975308641976,0)" xlink:href="#aD"/></g><g id="I"><use transform="matrix(0.06172839506172839,0,0,0.06172839506172839,0,0)" xlink:href="#bj"/><use transform="matrix(0.06172839506172839,0,0,0.06172839506172839,4.876543209876543,0)" xlink:href="#aK"/><use transform="matrix(0.06172839506172839,0,0,0.06172839506172839,17.22222222222222,0)" xlink:href="#bg"/><use transform="matrix(0.06172839506172839,0,0,0.06172839506172839,23.39506172839506,0)" xlink:href="#aB"/><use transform="matrix(0.06172839506172839,0,0,0.06172839506172839,35.74074074074074,0)" xlink:href="#aA"/><use transform="matrix(0.06172839506172839,0,0,0.06172839506172839,43.08641975308642,0)" xlink:href="#bw"/><use transform="matrix(0.06172839506172839,0,0,0.06172839506172839,61.5432098765432,0)" xlink:href="#aE"/></g><g id="J"><use transform="matrix(0.06172839506172839,0,0,0.06172839506172839,0,0)" xlink:href="#bn"/><use transform="matrix(0.06172839506172839,0,0,0.06172839506172839,6.172839506172839,0)" xlink:href="#aA"/><use transform="matrix(0.06172839506172839,0,0,0.06172839506172839,13.518518518518519,0)" xlink:href="#aJ"/><use transform="matrix(0.06172839506172839,0,0,0.06172839506172839,25.864197530864196,0)" xlink:href="#aK"/><use transform="matrix(0.06172839506172839,0,0,0.06172839506172839,38.20987654320987,0)" xlink:href="#aE"/><use transform="matrix(0.06172839506172839,0,0,0.06172839506172839,49.32098765432099,0)" xlink:href="#bk"/><use transform="matrix(0.06172839506172839,0,0,0.06172839506172839,54.19753086419753,0)" xlink:href="#aJ"/><use transform="matrix(0.06172839506172839,0,0,0.06172839506172839,66.54320987654322,0)" xlink:href="#bn"/><use transform="matrix(0.06172839506172839,0,0,0.06172839506172839,72.71604938271605,0)" xlink:href="#bj"/><use transform="matrix(0.06172839506172839,0,0,0.06172839506172839,77.5925925925926,0)" xlink:href="#aB"/><use transform="matrix(0.06172839506172839,0,0,0.06172839506172839,89.93827160493828,0)" xlink:href="#aK"/></g><g id="K"><use transform="matrix(0.06172839506172839,0,0,0.06172839506172839,0,0)" xlink:href="#bn"/><use transform="matrix(0.06172839506172839,0,0,0.06172839506172839,6.172839506172839,0)" xlink:href="#aD"/><use transform="matrix(0.06172839506172839,0,0,0.06172839506172839,18.51851851851852,0)" xlink:href="#aJ"/><use transform="matrix(0.06172839506172839,0,0,0.06172839506172839,30.864197530864196,0)" xlink:href="#bw"/></g><g id="L"><use transform="matrix(0.06172839506172839,0,0,0.06172839506172839,0,0)" xlink:href="#bu"/><use transform="matrix(0.06172839506172839,0,0,0.06172839506172839,12.345679012345679,0)" xlink:href="#bf"/></g><g id="M"><use transform="matrix(0.06172839506172839,0,0,0.06172839506172839,0,0)" xlink:href="#aC"/><use transform="matrix(0.06172839506172839,0,0,0.06172839506172839,11.11111111111111,0)" xlink:href="#aA"/><use transform="matrix(0.06172839506172839,0,0,0.06172839506172839,18.45679012345679,0)" xlink:href="#aD"/><use transform="matrix(0.06172839506172839,0,0,0.06172839506172839,30.80246913580247,0)" xlink:href="#aJ"/><use transform="matrix(0.06172839506172839,0,0,0.06172839506172839,43.148148148148145,0)" xlink:href="#bn"/><use transform="matrix(0.06172839506172839,0,0,0.06172839506172839,49.32098765432099,0)" xlink:href="#bj"/><use transform="matrix(0.06172839506172839,0,0,0.06172839506172839,54.19753086419753,0)" xlink:href="#aK"/><use transform="matrix(0.06172839506172839,0,0,0.06172839506172839,66.54320987654322,0)" xlink:href="#aL"/></g><g id="N"><use transform="matrix(0.06172839506172839,0,0,0.06172839506172839,0,0)" xlink:href="#bj"/><use transform="matrix(0.06172839506172839,0,0,0.06172839506172839,4.876543209876543,0)" xlink:href="#aE"/><use transform="matrix(0.06172839506172839,0,0,0.06172839506172839,15.987654320987653,0)" xlink:href="#aE"/><use transform="matrix(0.06172839506172839,0,0,0.06172839506172839,27.098765432098766,0)" xlink:href="#bl"/><use transform="matrix(0.06172839506172839,0,0,0.06172839506172839,39.44444444444444,0)" xlink:href="#aD"/></g><g id="O"><use transform="matrix(0.06172839506172839,0,0,0.06172839506172839,0,0)" xlink:href="#bj"/><use transform="matrix(0.06172839506172839,0,0,0.06172839506172839,4.876543209876543,0)" xlink:href="#aK"/></g><path fill="#333" d="M197 0v-115H63V0H30v-248h33v105h134v-105h34V0h-34" id="bz"/><path fill="#333" d="M140-251c81 0 123 46 123 126C263-46 219 4 140 4 59 4 17-45 17-125s42-126 123-126zm0 227c63 0 89-41 89-101s-29-99-89-99c-61 0-89 39-89 99S79-25 140-24" id="bA"/><path fill="#333" d="M185-189c-5-48-123-54-124 2 14 75 158 14 163 119 3 78-121 87-175 55-17-10-28-26-33-46l33-7c5 56 141 63 141-1 0-78-155-14-162-118-5-82 145-84 179-34 5 7 8 16 11 25" id="bB"/><path fill="#333" d="M0 4l72-265h28L28 4H0" id="bC"/><g id="P"><use transform="matrix(0.06172839506172839,0,0,0.06172839506172839,0,0)" xlink:href="#bh"/><use transform="matrix(0.06172839506172839,0,0,0.06172839506172839,15.987654320987653,0)" xlink:href="#bz"/><use transform="matrix(0.06172839506172839,0,0,0.06172839506172839,31.975308641975307,0)" xlink:href="#br"/><use transform="matrix(0.06172839506172839,0,0,0.06172839506172839,46.79012345679012,0)" xlink:href="#bA"/><use transform="matrix(0.06172839506172839,0,0,0.06172839506172839,64.07407407407408,0)" xlink:href="#bB"/><use transform="matrix(0.06172839506172839,0,0,0.06172839506172839,78.88888888888889,0)" xlink:href="#bB"/><use transform="matrix(0.06172839506172839,0,0,0.06172839506172839,93.7037037037037,0)" xlink:href="#bC"/><use transform="matrix(0.06172839506172839,0,0,0.06172839506172839,99.87654320987653,0)" xlink:href="#bn"/><use transform="matrix(0.06172839506172839,0,0,0.06172839506172839,106.04938271604937,0)" xlink:href="#aA"/><use transform="matrix(0.06172839506172839,0,0,0.06172839506172839,113.39506172839505,0)" xlink:href="#aJ"/><use transform="matrix(0.06172839506172839,0,0,0.06172839506172839,125.74074074074073,0)" xlink:href="#aK"/><use transform="matrix(0.06172839506172839,0,0,0.06172839506172839,138.0864197530864,0)" xlink:href="#aE"/><use transform="matrix(0.06172839506172839,0,0,0.06172839506172839,149.19753086419752,0)" xlink:href="#bk"/><use transform="matrix(0.06172839506172839,0,0,0.06172839506172839,154.07407407407405,0)" xlink:href="#aJ"/><use transform="matrix(0.06172839506172839,0,0,0.06172839506172839,166.41975308641972,0)" xlink:href="#bn"/><use transform="matrix(0.06172839506172839,0,0,0.06172839506172839,172.59259259259255,0)" xlink:href="#bj"/><use transform="matrix(0.06172839506172839,0,0,0.06172839506172839,177.46913580246908,0)" xlink:href="#aB"/><use transform="matrix(0.06172839506172839,0,0,0.06172839506172839,189.81481481481475,0)" xlink:href="#aK"/><use transform="matrix(0.06172839506172839,0,0,0.06172839506172839,202.16049382716042,0)" xlink:href="#aE"/></g><g id="Q"><use transform="matrix(0.06172839506172839,0,0,0.06172839506172839,0,0)" xlink:href="#aA"/><use transform="matrix(0.06172839506172839,0,0,0.06172839506172839,7.345679012345679,0)" xlink:href="#aD"/><use transform="matrix(0.06172839506172839,0,0,0.06172839506172839,19.691358024691358,0)" xlink:href="#aH"/><use transform="matrix(0.06172839506172839,0,0,0.06172839506172839,32.03703703703704,0)" xlink:href="#aB"/></g><g id="R"><use transform="matrix(0.06172839506172839,0,0,0.06172839506172839,0,0)" xlink:href="#aJ"/><use transform="matrix(0.06172839506172839,0,0,0.06172839506172839,12.345679012345679,0)" xlink:href="#aK"/><use transform="matrix(0.06172839506172839,0,0,0.06172839506172839,24.691358024691358,0)" xlink:href="#bm"/></g><g id="S"><use transform="matrix(0.06172839506172839,0,0,0.06172839506172839,0,0)" xlink:href="#aA"/><use transform="matrix(0.06172839506172839,0,0,0.06172839506172839,7.345679012345679,0)" xlink:href="#aD"/><use transform="matrix(0.06172839506172839,0,0,0.06172839506172839,19.691358024691358,0)" xlink:href="#bg"/><use transform="matrix(0.06172839506172839,0,0,0.06172839506172839,25.864197530864196,0)" xlink:href="#aD"/><use transform="matrix(0.06172839506172839,0,0,0.06172839506172839,38.20987654320987,0)" xlink:href="#aA"/><use transform="matrix(0.06172839506172839,0,0,0.06172839506172839,45.55555555555555,0)" xlink:href="#aD"/><use transform="matrix(0.06172839506172839,0,0,0.06172839506172839,57.90123456790123,0)" xlink:href="#aK"/><use transform="matrix(0.06172839506172839,0,0,0.06172839506172839,70.24691358024691,0)" xlink:href="#aC"/><use transform="matrix(0.06172839506172839,0,0,0.06172839506172839,81.35802469135803,0)" xlink:href="#aD"/></g><g id="T"><use transform="matrix(0.06172839506172839,0,0,0.06172839506172839,0,0)" xlink:href="#bn"/><use transform="matrix(0.06172839506172839,0,0,0.06172839506172839,6.172839506172839,0)" xlink:href="#aI"/><use transform="matrix(0.06172839506172839,0,0,0.06172839506172839,18.51851851851852,0)" xlink:href="#aD"/></g><g id="U"><use transform="matrix(0.06172839506172839,0,0,0.06172839506172839,0,0)" xlink:href="#by"/><use transform="matrix(0.06172839506172839,0,0,0.06172839506172839,18.456790123456788,0)" xlink:href="#aD"/><use transform="matrix(0.06172839506172839,0,0,0.06172839506172839,30.80246913580247,0)" xlink:href="#bn"/><use transform="matrix(0.06172839506172839,0,0,0.06172839506172839,36.97530864197531,0)" xlink:href="#aA"/><use transform="matrix(0.06172839506172839,0,0,0.06172839506172839,44.32098765432099,0)" xlink:href="#bj"/><use transform="matrix(0.06172839506172839,0,0,0.06172839506172839,49.19753086419753,0)" xlink:href="#aC"/></g><g id="V"><use transform="matrix(0.06172839506172839,0,0,0.06172839506172839,0,0)" xlink:href="#bh"/><use transform="matrix(0.06172839506172839,0,0,0.06172839506172839,15.987654320987653,0)" xlink:href="#aJ"/><use transform="matrix(0.06172839506172839,0,0,0.06172839506172839,28.333333333333332,0)" xlink:href="#aK"/><use transform="matrix(0.06172839506172839,0,0,0.06172839506172839,40.67901234567901,0)" xlink:href="#bm"/><use transform="matrix(0.06172839506172839,0,0,0.06172839506172839,53.02469135802469,0)" xlink:href="#bj"/><use transform="matrix(0.06172839506172839,0,0,0.06172839506172839,57.901234567901234,0)" xlink:href="#bm"/><use transform="matrix(0.06172839506172839,0,0,0.06172839506172839,70.24691358024691,0)" xlink:href="#aJ"/><use transform="matrix(0.06172839506172839,0,0,0.06172839506172839,82.5925925925926,0)" xlink:href="#bn"/><use transform="matrix(0.06172839506172839,0,0,0.06172839506172839,88.76543209876543,0)" xlink:href="#aD"/></g><path d="M30 0v-248h33v221h125V0H30" id="bD"/><path d="M177-190C167-65 218 103 67 71c-23-6-38-20-44-43l32-5c15 47 100 32 89-28v-30C133-14 115 1 83 1 29 1 15-40 15-95c0-56 16-97 71-98 29-1 48 16 59 35 1-10 0-23 2-32h30zM94-22c36 0 50-32 50-73 0-42-14-75-50-75-39 0-46 34-46 75s6 73 46 73" id="bE"/><g id="W"><use transform="matrix(0.06049382716049383,0,0,0.06049382716049383,0,0)" xlink:href="#bD"/><use transform="matrix(0.06049382716049383,0,0,0.06049382716049383,12.098765432098766,0)" xlink:href="#aS"/><use transform="matrix(0.06049382716049383,0,0,0.06049382716049383,24.19753086419753,0)" xlink:href="#aX"/><use transform="matrix(0.06049382716049383,0,0,0.06049382716049383,36.2962962962963,0)" xlink:href="#bE"/><use transform="matrix(0.06049382716049383,0,0,0.06049382716049383,48.39506172839506,0)" xlink:href="#aV"/><use transform="matrix(0.06049382716049383,0,0,0.06049382716049383,60.49382716049383,0)" xlink:href="#aS"/><use transform="matrix(0.06049382716049383,0,0,0.06049382716049383,72.5925925925926,0)" xlink:href="#bE"/><use transform="matrix(0.06049382716049383,0,0,0.06049382716049383,84.69135802469137,0)" xlink:href="#aN"/></g><path d="M27 0v-27h64v-190l-56 39v-29l58-41h29v221h61V0H27" id="bF"/><use transform="matrix(0.06049382716049383,0,0,0.06049382716049383,0,0)" xlink:href="#bF" id="X"/><g id="Y"><use transform="matrix(0.06049382716049383,0,0,0.06049382716049383,0,0)" xlink:href="#aO"/><use transform="matrix(0.06049382716049383,0,0,0.06049382716049383,6.049382716049383,0)" xlink:href="#aN"/><use transform="matrix(0.06049382716049383,0,0,0.06049382716049383,18.14814814814815,0)" xlink:href="#aS"/><use transform="matrix(0.06049382716049383,0,0,0.06049382716049383,30.246913580246915,0)" xlink:href="#aY"/></g><g id="Z"><use transform="matrix(0.06049382716049383,0,0,0.06049382716049383,0,0)" xlink:href="#aR"/><use transform="matrix(0.06049382716049383,0,0,0.06049382716049383,10.88888888888889,0)" xlink:href="#aP"/><use transform="matrix(0.06049382716049383,0,0,0.06049382716049383,18.087654320987653,0)" xlink:href="#aN"/><use transform="matrix(0.06049382716049383,0,0,0.06049382716049383,30.18641975308642,0)" xlink:href="#aS"/><use transform="matrix(0.06049382716049383,0,0,0.06049382716049383,42.285185185185185,0)" xlink:href="#aO"/><use transform="matrix(0.06049382716049383,0,0,0.06049382716049383,48.334567901234564,0)" xlink:href="#aN"/><use transform="matrix(0.06049382716049383,0,0,0.06049382716049383,60.43333333333333,0)" xlink:href="#bc"/></g><path d="M24 0v-261h32V0H24" id="bG"/><g id="aa"><use transform="matrix(0.06049382716049383,0,0,0.06049382716049383,0,0)" xlink:href="#aO"/><use transform="matrix(0.06049382716049383,0,0,0.06049382716049383,6.049382716049383,0)" xlink:href="#aP"/><use transform="matrix(0.06049382716049383,0,0,0.06049382716049383,13.248148148148148,0)" xlink:href="#aS"/><use transform="matrix(0.06049382716049383,0,0,0.06049382716049383,25.346913580246913,0)" xlink:href="#aX"/><use transform="matrix(0.06049382716049383,0,0,0.06049382716049383,37.44567901234568,0)" xlink:href="#bc"/><use transform="matrix(0.06049382716049383,0,0,0.06049382716049383,48.334567901234564,0)" xlink:href="#bG"/><use transform="matrix(0.06049382716049383,0,0,0.06049382716049383,53.11358024691358,0)" xlink:href="#aS"/><use transform="matrix(0.06049382716049383,0,0,0.06049382716049383,65.21234567901234,0)" xlink:href="#aO"/><use transform="matrix(0.06049382716049383,0,0,0.06049382716049383,71.26172839506172,0)" xlink:href="#aQ"/><use transform="matrix(0.06049382716049383,0,0,0.06049382716049383,76.04074074074073,0)" xlink:href="#aZ"/><use transform="matrix(0.06049382716049383,0,0,0.06049382716049383,88.1395061728395,0)" xlink:href="#aX"/></g><path d="M101-251c82-7 93 87 43 132L82-64C71-53 59-42 53-27h129V0H18c2-99 128-94 128-182 0-28-16-43-45-43s-46 15-49 41l-32-3c6-41 34-60 81-64" id="bH"/><use transform="matrix(0.06049382716049383,0,0,0.06049382716049383,0,0)" xlink:href="#bH" id="ab"/><path fill="#333" d="M33-154v-36h34v36H33zM33 0v-36h34V0H33" id="bI"/><g id="ac"><use transform="matrix(0.06172839506172839,0,0,0.06172839506172839,0,0)" xlink:href="#bs"/><use transform="matrix(0.06172839506172839,0,0,0.06172839506172839,12.345679012345679,0)" xlink:href="#aJ"/><use transform="matrix(0.06172839506172839,0,0,0.06172839506172839,24.691358024691358,0)" xlink:href="#bu"/><use transform="matrix(0.06172839506172839,0,0,0.06172839506172839,37.03703703703704,0)" xlink:href="#aD"/><use transform="matrix(0.06172839506172839,0,0,0.06172839506172839,49.382716049382715,0)" xlink:href="#bk"/><use transform="matrix(0.06172839506172839,0,0,0.06172839506172839,54.25925925925926,0)" xlink:href="#bI"/></g><g id="ad"><use transform="matrix(0.06172839506172839,0,0,0.06172839506172839,0,0)" xlink:href="#by"/><use transform="matrix(0.06172839506172839,0,0,0.06172839506172839,18.456790123456788,0)" xlink:href="#aD"/><use transform="matrix(0.06172839506172839,0,0,0.06172839506172839,30.80246913580247,0)" xlink:href="#bn"/><use transform="matrix(0.06172839506172839,0,0,0.06172839506172839,36.97530864197531,0)" xlink:href="#aA"/><use transform="matrix(0.06172839506172839,0,0,0.06172839506172839,44.32098765432099,0)" xlink:href="#bj"/><use transform="matrix(0.06172839506172839,0,0,0.06172839506172839,49.19753086419753,0)" xlink:href="#aC"/><use transform="matrix(0.06172839506172839,0,0,0.06172839506172839,60.308641975308646,0)" xlink:href="#aE"/></g><g id="ae"><use transform="matrix(0.06172839506172839,0,0,0.06172839506172839,0,0)" xlink:href="#bh"/><use transform="matrix(0.06172839506172839,0,0,0.06172839506172839,15.987654320987653,0)" xlink:href="#aJ"/><use transform="matrix(0.06172839506172839,0,0,0.06172839506172839,28.333333333333332,0)" xlink:href="#aK"/><use transform="matrix(0.06172839506172839,0,0,0.06172839506172839,40.67901234567901,0)" xlink:href="#bm"/><use transform="matrix(0.06172839506172839,0,0,0.06172839506172839,53.02469135802469,0)" xlink:href="#bj"/><use transform="matrix(0.06172839506172839,0,0,0.06172839506172839,57.901234567901234,0)" xlink:href="#bm"/><use transform="matrix(0.06172839506172839,0,0,0.06172839506172839,70.24691358024691,0)" xlink:href="#aJ"/><use transform="matrix(0.06172839506172839,0,0,0.06172839506172839,82.5925925925926,0)" xlink:href="#bn"/><use transform="matrix(0.06172839506172839,0,0,0.06172839506172839,88.76543209876543,0)" xlink:href="#aD"/></g><path fill="#333" d="M232-93c-1 65-40 97-104 97C67 4 28-28 28-90v-158h33c8 89-33 224 67 224 102 0 64-133 71-224h33v155" id="bJ"/><g id="af"><use transform="matrix(0.06172839506172839,0,0,0.06172839506172839,0,0)" xlink:href="#bJ"/><use transform="matrix(0.06172839506172839,0,0,0.06172839506172839,15.987654320987653,0)" xlink:href="#aE"/><use transform="matrix(0.06172839506172839,0,0,0.06172839506172839,27.098765432098766,0)" xlink:href="#aD"/></g><g id="ag"><use transform="matrix(0.06172839506172839,0,0,0.06172839506172839,0,0)" xlink:href="#bp"/><use transform="matrix(0.06172839506172839,0,0,0.06172839506172839,6.172839506172839,0)" xlink:href="#aE"/><use transform="matrix(0.06172839506172839,0,0,0.06172839506172839,17.28395061728395,0)" xlink:href="#aE"/><use transform="matrix(0.06172839506172839,0,0,0.06172839506172839,28.39506172839506,0)" xlink:href="#bl"/><use transform="matrix(0.06172839506172839,0,0,0.06172839506172839,40.74074074074074,0)" xlink:href="#aD"/></g><g id="ah"><use transform="matrix(0.06172839506172839,0,0,0.06172839506172839,0,0)" xlink:href="#bn"/><use transform="matrix(0.06172839506172839,0,0,0.06172839506172839,6.172839506172839,0)" xlink:href="#aD"/><use transform="matrix(0.06172839506172839,0,0,0.06172839506172839,18.51851851851852,0)" xlink:href="#bw"/><use transform="matrix(0.06172839506172839,0,0,0.06172839506172839,36.9753086419753,0)" xlink:href="#aH"/><use transform="matrix(0.06172839506172839,0,0,0.06172839506172839,49.32098765432098,0)" xlink:href="#bk"/><use transform="matrix(0.06172839506172839,0,0,0.06172839506172839,54.197530864197525,0)" xlink:href="#aJ"/><use transform="matrix(0.06172839506172839,0,0,0.06172839506172839,66.5432098765432,0)" xlink:href="#bn"/><use transform="matrix(0.06172839506172839,0,0,0.06172839506172839,72.71604938271604,0)" xlink:href="#aD"/></g><g id="ai"><use transform="matrix(0.06172839506172839,0,0,0.06172839506172839,0,0)" xlink:href="#aE"/><use transform="matrix(0.06172839506172839,0,0,0.06172839506172839,11.11111111111111,0)" xlink:href="#bn"/><use transform="matrix(0.06172839506172839,0,0,0.06172839506172839,17.28395061728395,0)" xlink:href="#aJ"/><use transform="matrix(0.06172839506172839,0,0,0.06172839506172839,29.629629629629626,0)" xlink:href="#bf"/><use transform="matrix(0.06172839506172839,0,0,0.06172839506172839,40.74074074074073,0)" xlink:href="#aE"/></g><g id="aj"><use transform="matrix(0.06172839506172839,0,0,0.06172839506172839,0,0)" xlink:href="#aB"/><use transform="matrix(0.06172839506172839,0,0,0.06172839506172839,12.345679012345679,0)" xlink:href="#aH"/><use transform="matrix(0.06172839506172839,0,0,0.06172839506172839,24.691358024691358,0)" xlink:href="#aD"/><use transform="matrix(0.06172839506172839,0,0,0.06172839506172839,37.03703703703704,0)" xlink:href="#aK"/></g><g id="ak"><use transform="matrix(0.06172839506172839,0,0,0.06172839506172839,0,0)" xlink:href="#bl"/><use transform="matrix(0.06172839506172839,0,0,0.06172839506172839,12.345679012345679,0)" xlink:href="#aK"/><use transform="matrix(0.06172839506172839,0,0,0.06172839506172839,24.691358024691358,0)" xlink:href="#bn"/><use transform="matrix(0.06172839506172839,0,0,0.06172839506172839,30.864197530864196,0)" xlink:href="#bj"/><use transform="matrix(0.06172839506172839,0,0,0.06172839506172839,35.74074074074074,0)" xlink:href="#bk"/></g><g id="al"><use transform="matrix(0.06172839506172839,0,0,0.06172839506172839,0,0)" xlink:href="#by"/><use transform="matrix(0.06172839506172839,0,0,0.06172839506172839,18.456790123456788,0)" xlink:href="#aD"/><use transform="matrix(0.06172839506172839,0,0,0.06172839506172839,30.80246913580247,0)" xlink:href="#bn"/><use transform="matrix(0.06172839506172839,0,0,0.06172839506172839,36.97530864197531,0)" xlink:href="#aA"/><use transform="matrix(0.06172839506172839,0,0,0.06172839506172839,44.32098765432099,0)" xlink:href="#bj"/><use transform="matrix(0.06172839506172839,0,0,0.06172839506172839,49.19753086419753,0)" xlink:href="#aC"/></g><g id="am"><use transform="matrix(0.06172839506172839,0,0,0.06172839506172839,0,0)" xlink:href="#az"/><use transform="matrix(0.06172839506172839,0,0,0.06172839506172839,14.814814814814813,0)" xlink:href="#aA"/><use transform="matrix(0.06172839506172839,0,0,0.06172839506172839,22.160493827160494,0)" xlink:href="#aB"/><use transform="matrix(0.06172839506172839,0,0,0.06172839506172839,34.50617283950617,0)" xlink:href="#aC"/><use transform="matrix(0.06172839506172839,0,0,0.06172839506172839,45.61728395061728,0)" xlink:href="#aD"/><use transform="matrix(0.06172839506172839,0,0,0.06172839506172839,57.962962962962955,0)" xlink:href="#aE"/><use transform="matrix(0.06172839506172839,0,0,0.06172839506172839,69.07407407407406,0)" xlink:href="#aE"/></g><g id="an"><use transform="matrix(0.06172839506172839,0,0,0.06172839506172839,0,0)" xlink:href="#aF"/><use transform="matrix(0.06172839506172839,0,0,0.06172839506172839,20.925925925925924,0)" xlink:href="#aG"/></g><g id="ao"><use transform="matrix(0.06172839506172839,0,0,0.06172839506172839,0,0)" xlink:href="#bJ"/><use transform="matrix(0.06172839506172839,0,0,0.06172839506172839,15.987654320987653,0)" xlink:href="#aK"/><use transform="matrix(0.06172839506172839,0,0,0.06172839506172839,28.333333333333332,0)" xlink:href="#bm"/><use transform="matrix(0.06172839506172839,0,0,0.06172839506172839,40.67901234567901,0)" xlink:href="#aD"/><use transform="matrix(0.06172839506172839,0,0,0.06172839506172839,53.02469135802469,0)" xlink:href="#aA"/></g><path fill="#333" d="M206 0h-36l-40-164L89 0H53L-1-190h32L70-26l43-164h34l41 164 42-164h31" id="bK"/><g id="ap"><use transform="matrix(0.06172839506172839,0,0,0.06172839506172839,0,0)" xlink:href="#bq"/><use transform="matrix(0.06172839506172839,0,0,0.06172839506172839,15.987654320987653,0)" xlink:href="#aD"/><use transform="matrix(0.06172839506172839,0,0,0.06172839506172839,28.333333333333332,0)" xlink:href="#bx"/><use transform="matrix(0.06172839506172839,0,0,0.06172839506172839,39.44444444444444,0)" xlink:href="#bj"/><use transform="matrix(0.06172839506172839,0,0,0.06172839506172839,44.32098765432099,0)" xlink:href="#aD"/><use transform="matrix(0.06172839506172839,0,0,0.06172839506172839,56.666666666666664,0)" xlink:href="#bK"/></g><g id="aq"><use transform="matrix(0.06172839506172839,0,0,0.06172839506172839,0,0)" xlink:href="#bJ"/><use transform="matrix(0.06172839506172839,0,0,0.06172839506172839,15.987654320987653,0)" xlink:href="#aH"/><use transform="matrix(0.06172839506172839,0,0,0.06172839506172839,28.333333333333332,0)" xlink:href="#bm"/><use transform="matrix(0.06172839506172839,0,0,0.06172839506172839,40.67901234567901,0)" xlink:href="#aJ"/><use transform="matrix(0.06172839506172839,0,0,0.06172839506172839,53.02469135802469,0)" xlink:href="#bn"/><use transform="matrix(0.06172839506172839,0,0,0.06172839506172839,59.19753086419753,0)" xlink:href="#aD"/></g><g id="ar"><use transform="matrix(0.06172839506172839,0,0,0.06172839506172839,0,0)" xlink:href="#aF"/><use transform="matrix(0.06172839506172839,0,0,0.06172839506172839,20.493827160493826,0)" xlink:href="#aD"/><use transform="matrix(0.06172839506172839,0,0,0.06172839506172839,32.839506172839506,0)" xlink:href="#bu"/><use transform="matrix(0.06172839506172839,0,0,0.06172839506172839,45.18518518518518,0)" xlink:href="#aE"/><use transform="matrix(0.06172839506172839,0,0,0.06172839506172839,56.29629629629629,0)" xlink:href="#bj"/><use transform="matrix(0.06172839506172839,0,0,0.06172839506172839,61.172839506172835,0)" xlink:href="#bn"/><use transform="matrix(0.06172839506172839,0,0,0.06172839506172839,67.34567901234567,0)" xlink:href="#aD"/></g><path fill="#333" d="M190 0L58-211 59 0H30v-248h39L202-35l-2-213h31V0h-41" id="bL"/><g id="as"><use transform="matrix(0.06172839506172839,0,0,0.06172839506172839,0,0)" xlink:href="#bL"/><use transform="matrix(0.06172839506172839,0,0,0.06172839506172839,15.987654320987653,0)" xlink:href="#aB"/><use transform="matrix(0.06172839506172839,0,0,0.06172839506172839,28.333333333333332,0)" xlink:href="#bn"/><use transform="matrix(0.06172839506172839,0,0,0.06172839506172839,34.50617283950617,0)" xlink:href="#aD"/><use transform="matrix(0.06172839506172839,0,0,0.06172839506172839,46.85185185185185,0)" xlink:href="#aE"/></g><path fill="#333" d="M16-82v-28h88v28H16" id="bM"/><use transform="matrix(0.06172839506172839,0,0,0.06172839506172839,0,0)" xlink:href="#bM" id="at"/><g id="au"><use transform="matrix(0.06172839506172839,0,0,0.06172839506172839,0,0)" xlink:href="#be"/><use transform="matrix(0.06172839506172839,0,0,0.06172839506172839,12.716049382716047,0)" xlink:href="#aA"/><use transform="matrix(0.06172839506172839,0,0,0.06172839506172839,20.061728395061728,0)" xlink:href="#aJ"/><use transform="matrix(0.06172839506172839,0,0,0.06172839506172839,32.407407407407405,0)" xlink:href="#aK"/><use transform="matrix(0.06172839506172839,0,0,0.06172839506172839,44.75308641975308,0)" xlink:href="#aE"/><use transform="matrix(0.06172839506172839,0,0,0.06172839506172839,55.86419753086419,0)" xlink:href="#bk"/><use transform="matrix(0.06172839506172839,0,0,0.06172839506172839,60.74074074074073,0)" xlink:href="#aJ"/><use transform="matrix(0.06172839506172839,0,0,0.06172839506172839,73.08641975308642,0)" xlink:href="#bn"/><use transform="matrix(0.06172839506172839,0,0,0.06172839506172839,79.25925925925925,0)" xlink:href="#bj"/><use transform="matrix(0.06172839506172839,0,0,0.06172839506172839,84.1358024691358,0)" xlink:href="#aB"/><use transform="matrix(0.06172839506172839,0,0,0.06172839506172839,96.48148148148148,0)" xlink:href="#aK"/></g><g id="av"><use transform="matrix(0.06172839506172839,0,0,0.06172839506172839,0,0)" xlink:href="#be"/><use transform="matrix(0.06172839506172839,0,0,0.06172839506172839,11.049382716049381,0)" xlink:href="#aD"/><use transform="matrix(0.06172839506172839,0,0,0.06172839506172839,23.39506172839506,0)" xlink:href="#aJ"/><use transform="matrix(0.06172839506172839,0,0,0.06172839506172839,35.74074074074074,0)" xlink:href="#bw"/><use transform="matrix(0.06172839506172839,0,0,0.06172839506172839,54.19753086419753,0)" xlink:href="#aE"/></g><path fill="#333" d="M143 0L79-87 56-68V0H24v-261h32v163l83-92h37l-77 82L181 0h-38" id="bN"/><g id="aw"><use transform="matrix(0.06172839506172839,0,0,0.06172839506172839,0,0)" xlink:href="#aF"/><use transform="matrix(0.06172839506172839,0,0,0.06172839506172839,20.493827160493826,0)" xlink:href="#aB"/><use transform="matrix(0.06172839506172839,0,0,0.06172839506172839,32.839506172839506,0)" xlink:href="#aA"/><use transform="matrix(0.06172839506172839,0,0,0.06172839506172839,40.18518518518518,0)" xlink:href="#bN"/><use transform="matrix(0.06172839506172839,0,0,0.06172839506172839,51.29629629629629,0)" xlink:href="#bj"/><use transform="matrix(0.06172839506172839,0,0,0.06172839506172839,56.172839506172835,0)" xlink:href="#aK"/><use transform="matrix(0.06172839506172839,0,0,0.06172839506172839,68.51851851851852,0)" xlink:href="#aL"/></g><g id="ax"><use transform="matrix(0.06172839506172839,0,0,0.06172839506172839,0,0)" xlink:href="#aG"/><use transform="matrix(0.06172839506172839,0,0,0.06172839506172839,17.28395061728395,0)" xlink:href="#aA"/><use transform="matrix(0.06172839506172839,0,0,0.06172839506172839,24.629629629629626,0)" xlink:href="#aB"/><use transform="matrix(0.06172839506172839,0,0,0.06172839506172839,36.9753086419753,0)" xlink:href="#bl"/><use transform="matrix(0.06172839506172839,0,0,0.06172839506172839,49.32098765432098,0)" xlink:href="#aH"/><use transform="matrix(0.06172839506172839,0,0,0.06172839506172839,61.66666666666666,0)" xlink:href="#aE"/></g><g id="ay"><use transform="matrix(0.06172839506172839,0,0,0.06172839506172839,0,0)" xlink:href="#bq"/><use transform="matrix(0.06172839506172839,0,0,0.06172839506172839,15.987654320987653,0)" xlink:href="#aD"/><use transform="matrix(0.06172839506172839,0,0,0.06172839506172839,28.333333333333332,0)" xlink:href="#bg"/><use transform="matrix(0.06172839506172839,0,0,0.06172839506172839,34.50617283950617,0)" xlink:href="#aD"/><use transform="matrix(0.06172839506172839,0,0,0.06172839506172839,46.85185185185185,0)" xlink:href="#aA"/><use transform="matrix(0.06172839506172839,0,0,0.06172839506172839,54.197530864197525,0)" xlink:href="#aD"/><use transform="matrix(0.06172839506172839,0,0,0.06172839506172839,66.5432098765432,0)" xlink:href="#aK"/><use transform="matrix(0.06172839506172839,0,0,0.06172839506172839,78.88888888888889,0)" xlink:href="#aC"/><use transform="matrix(0.06172839506172839,0,0,0.06172839506172839,90,0)" xlink:href="#aD"/></g></defs></g></svg>