<svg id="Layer_1" data-name="Layer 1" xmlns="http://www.w3.org/2000/svg" viewBox="0 0 405.35 176.39"><defs><style>.cls-1{fill:#1d1d1b;}.cls-2{fill:#d61d5b;}.cls-3{fill:#fff;}.cls-4{fill:#6ec2b7;}.cls-5{fill:#1d99d6;}.cls-6{fill:#bb9bc8;}</style></defs><path class="cls-1" d="M57.9,84.43l19.35,19.34-6.48,3.6q-7.51,3.28-12.87,3.28h-.4a26.83,26.83,0,0,1-19.67-8.15,26.8,26.8,0,0,1-8.15-19.67,25.49,25.49,0,0,1,8.23-19.15A27.38,27.38,0,0,1,57.5,55.8h1.12q6.47,0,13.91,4.08l6,4.24Z"/><path d="M57.9,122.65h-.4A39.83,39.83,0,0,1,17.68,82.83,37.65,37.65,0,0,1,29.62,55,39.09,39.09,0,0,1,57.5,43.8h1.12c6.33,0,13,1.87,19.68,5.56.4.22.78.46,1.16.72l6,4.24a12,12,0,0,1,1.49,18.35l-12,11.82,10.8,10.8a12,12,0,0,1-2.66,19l-6.47,3.6a10.94,10.94,0,0,1-1,.51C69,121.25,63.19,122.65,57.9,122.65ZM57.5,67.8a15.49,15.49,0,0,0-11.3,4.55,13.52,13.52,0,0,0-4.52,10.48A14.91,14.91,0,0,0,46.32,94,14.76,14.76,0,0,0,55,98.48l-5.57-5.57a12,12,0,0,1,.07-17l8.2-8.08Z"/><path class="cls-1" d="M102.15,57.4V75.15h4.4V57.4H128.3v53.25H106.55V93.78h-4.4v16.87H81.21V57.4Z"/><path d="M128.3,122.65H106.55a12.25,12.25,0,0,1-2.2-.2,12.25,12.25,0,0,1-2.2.2H81.21a12,12,0,0,1-12-12V57.4a12,12,0,0,1,12-12h20.94a12.25,12.25,0,0,1,2.2.2,12.25,12.25,0,0,1,2.2-.2H128.3a12,12,0,0,1,12,12v53.25a12,12,0,0,1-12,12ZM114.12,84.47a12.57,12.57,0,0,1,2.18,2.31V82.15A12.32,12.32,0,0,1,114.12,84.47ZM93.21,83.15v2.63a11.42,11.42,0,0,1,1.38-1.31A12.34,12.34,0,0,1,93.21,83.15Z"/><path class="cls-1" d="M130.46,110.65l27.59-55.11,28.06,55.11H160V92.58h-3.83v18.07Z"/><path d="M186.11,122.65H160a12,12,0,0,1-1.91-.15,12.23,12.23,0,0,1-1.92.15H130.46a12,12,0,0,1-10.73-17.37l27.58-55.11A12,12,0,0,1,158,43.54h.05a12,12,0,0,1,10.69,6.56l28.06,55.1a12,12,0,0,1-10.69,17.45Z"/><path class="cls-1" d="M229.4,64a28.93,28.93,0,0,1,.19,38.41q-7.18,8.24-19.82,8.24a31.57,31.57,0,0,1-11.76-2q-5.12-2-10.59-8.11t-5.48-17.35A28.21,28.21,0,0,1,189.1,64q7.16-8.19,19.87-8.2Q222,55.8,229.4,64Z"/><path d="M209.77,122.65a43.56,43.56,0,0,1-16.2-2.89c-5.19-2.07-10.11-5.74-15.06-11.23-5.69-6.3-8.57-14.84-8.57-25.38a40,40,0,0,1,10.12-27c7-8,17-12.31,28.91-12.31S231.13,48,238.3,56h0a39.7,39.7,0,0,1,10.48,27.35,40,40,0,0,1-10.16,27C231.58,118.38,221.6,122.65,209.77,122.65ZM209,67.8c-6.51,0-9.3,2.34-10.83,4.09a16.25,16.25,0,0,0-4.2,11.26c0,3,.42,7.12,2.39,9.31,3.14,3.48,5.19,4.63,6.12,5a19.89,19.89,0,0,0,7.32,1.19c6.36,0,9.11-2.21,10.79-4.13a16.16,16.16,0,0,0,4.23-11.21A15.93,15.93,0,0,0,220.49,72h0C218.85,70.22,215.87,67.8,209,67.8Z"/><path class="cls-1" d="M238.19,57.88h49.17V72.83H275.29v37.82H251.06V72.43H238.19Z"/><path d="M275.29,122.65H251.06a12,12,0,0,1-12-12V84.43h-.87a12,12,0,0,1-12-12V57.88a12,12,0,0,1,12-12h49.17a12,12,0,0,1,12,12V72.83a12,12,0,0,1-12,12h-.07v25.82A12,12,0,0,1,275.29,122.65Zm-12.23-24h.23V72.83a12.54,12.54,0,0,1,.36-3h-.86a11.93,11.93,0,0,1,.27,2.55Z"/><path class="cls-1" d="M314.1,57.4v53.25h-23V57.4Z"/><rect x="279.08" y="45.4" width="47.03" height="77.25" rx="12"/><path class="cls-1" d="M343.49,84.43l19.35,19.34-6.48,3.6q-7.51,3.28-12.87,3.28h-.4a27.84,27.84,0,0,1-27.83-27.82,25.5,25.5,0,0,1,8.24-19.15,27.38,27.38,0,0,1,19.59-7.88h1.12q6.46,0,13.91,4.08l6,4.24Z"/><path d="M343.49,122.65h-.4a39.84,39.84,0,0,1-39.83-39.82A37.69,37.69,0,0,1,315.2,55,39.13,39.13,0,0,1,343.09,43.8h1.12c6.33,0,13,1.87,19.68,5.56a12.33,12.33,0,0,1,1.15.72l6,4.24a12,12,0,0,1,1.49,18.35l-12,11.82,10.8,10.8a12,12,0,0,1-2.66,19l-6.47,3.6a10.94,10.94,0,0,1-1,.51C354.55,121.25,348.77,122.65,343.49,122.65Zm-.4-54.85a15.49,15.49,0,0,0-11.3,4.55,13.53,13.53,0,0,0-4.53,10.48,15.92,15.92,0,0,0,13.31,15.65L335,92.91a12,12,0,0,1,.07-17l8.2-8.07Z"/><path class="cls-2" d="M57.9,84.43l19.35,19.34-6.48,3.6q-7.51,3.28-12.87,3.28h-.4a26.83,26.83,0,0,1-19.67-8.15,26.8,26.8,0,0,1-8.15-19.67,25.49,25.49,0,0,1,8.23-19.15A27.38,27.38,0,0,1,57.5,55.8h1.12q6.47,0,13.91,4.08l6,4.24Z"/><path class="cls-3" d="M102.15,57.4V75.15h4.4V57.4H128.3v53.25H106.55V93.78h-4.4v16.87H81.21V57.4Z"/><path class="cls-4" d="M130.46,110.65l27.59-55.11,28.06,55.11H160V92.58h-3.83v18.07Z"/><path class="cls-5" d="M229.4,64a28.93,28.93,0,0,1,.19,38.41q-7.18,8.24-19.82,8.24a31.57,31.57,0,0,1-11.76-2q-5.12-2-10.59-8.11t-5.48-17.35A28.21,28.21,0,0,1,189.1,64q7.16-8.19,19.87-8.2Q222,55.8,229.4,64Z"/><path class="cls-6" d="M238.19,57.88h49.17V72.83H275.29v37.82H251.06V72.43H238.19Z"/><path class="cls-3" d="M314.1,57.4v53.25h-23V57.4Z"/><path class="cls-2" d="M343.49,84.43l19.35,19.34-6.48,3.6q-7.51,3.28-12.87,3.28h-.4a27.84,27.84,0,0,1-27.83-27.82,25.5,25.5,0,0,1,8.24-19.15,27.38,27.38,0,0,1,19.59-7.88h1.12q6.46,0,13.91,4.08l6,4.24Z"/></svg>