<?xml version="1.0" encoding="utf-8"?>
<!-- Generator: Adobe Illustrator 24.1.1, SVG Export Plug-In . SVG Version: 6.00 Build 0)  -->
<svg version="1.1" id="Layer_1" xmlns="http://www.w3.org/2000/svg" xmlns:xlink="http://www.w3.org/1999/xlink" x="0px" y="0px"
	 viewBox="0 0 1000 208.2" style="enable-background:new 0 0 1000 208.2;" xml:space="preserve">
<g>
	<path d="M93.4,195.7c-12.9,0-25-2.5-36.3-7.4c-11.3-4.9-21.2-11.6-29.6-20.1C19,159.9,12.3,150,7.4,138.7
		C2.5,127.4,0,115.4,0,102.5c0-12.9,2.5-24.9,7.4-36.2C12.3,55,19,45.1,27.5,36.7c8.5-8.4,18.3-15.1,29.6-20.1
		c11.3-4.9,23.4-7.4,36.3-7.4c16.6,0,32,4.1,46.4,12.2c2.8,1.5,4.6,3.7,5.4,6.6c0.8,2.9,0.4,5.7-1.1,8.4c-1.5,2.8-3.8,4.6-6.8,5.4
		c-3,0.8-5.9,0.4-8.5-1.1c-5.4-3.2-11-5.5-16.9-7c-5.9-1.5-12.1-2.3-18.5-2.3c-9.9,0-19.1,1.9-27.7,5.7c-8.6,3.8-16.1,8.8-22.5,15.2
		C36.8,58.5,31.8,66.1,28,74.8c-3.8,8.7-5.6,17.9-5.6,27.6c0,9.9,1.9,19.1,5.6,27.7c3.8,8.6,8.8,16.2,15.2,22.6
		c6.4,6.4,13.8,11.5,22.5,15.3c8.6,3.8,17.9,5.6,27.7,5.6c6.9,0,13.5-1,20-2.9c6.4-1.9,12.5-4.6,18.2-8.2c2.7-1.8,5.5-2.4,8.5-1.8
		c3,0.7,5.3,2.3,7,5c1.7,2.7,2.2,5.5,1.5,8.4c-0.7,2.9-2.3,5.3-5,7.2C128.2,191,111.4,195.7,93.4,195.7z"/>
	<path d="M172.2,10.3c3,0,5.7,1,7.9,3.1c2.3,2.1,3.4,4.7,3.4,7.9v162.7c0,3-1.1,5.6-3.4,7.8c-2.3,2.2-4.9,3.3-7.9,3.3
		c-3.2,0-5.8-1.1-7.9-3.3c-2.1-2.2-3.1-4.8-3.1-7.8V21.3c0-3.2,1-5.8,3.1-7.9C166.4,11.3,169,10.3,172.2,10.3z M291.7,10.3
		c3.2,0,5.8,1,7.9,3.1c2.1,2.1,3.1,4.7,3.1,7.9v162.7c0,3-1,5.6-3.1,7.8c-2.1,2.2-4.7,3.3-7.9,3.3c-3,0-5.6-1.1-7.9-3.3
		c-2.3-2.2-3.4-4.8-3.4-7.8v-70.3h-70.8c-3,0-5.6-1-7.8-3.1c-2.2-2.1-3.3-4.7-3.3-7.8c0-3.1,1.1-5.8,3.3-7.9
		c2.2-2.2,4.8-3.2,7.8-3.2h70.8V21.3c0-3.2,1.1-5.8,3.4-7.9C286,11.3,288.7,10.3,291.7,10.3z"/>
	<path d="M491,187.8c-1,2.8-2.9,4.8-5.8,6.1c-2.8,1.3-5.7,1.5-8.5,0.5c-2.8-1-4.9-2.9-6.3-5.8L450.6,146h-50.5c-3.2,0-5.8-1-7.9-3.1
		c-2.1-2.1-3.1-4.7-3.1-7.9c0-3,1-5.6,3.1-7.8c2.1-2.2,4.7-3.3,7.9-3.3H440l-35.1-75.3l-62,139.8c-1,2.2-2.4,3.8-4.3,4.9
		c-1.8,1.1-3.8,1.6-6,1.6c-1.5,0-3-0.2-4.5-0.8c-2.9-1.3-4.8-3.4-5.9-6.3c-1.1-2.8-1-5.7,0.4-8.5l72-161.9c0.8-2,2.2-3.6,4-4.8
		c1.8-1.2,3.8-1.8,6-1.8c2.2,0,4.2,0.5,6,1.6c1.8,1.1,3.2,2.6,4,4.6l75.8,162.2C491.8,182.3,492,185.1,491,187.8z"/>
	<path d="M795.3,197H791c-7.9,0-15.7-1.2-23.4-3.5c-7.7-2.3-14.7-5.9-20.9-10.7c-6.2-4.8-11.2-10.8-15.1-18.2
		c-3.9-7.4-5.8-16.1-5.8-26.1c0-3,1.1-5.6,3.3-7.8c2.2-2.2,4.9-3.3,8-3.3c3,0,5.6,1.1,7.8,3.3c2.2,2.2,3.3,4.8,3.3,7.8
		c0,5.9,1,10.8,2.9,14.9c1.9,4.1,4.3,7.5,7.3,10.2c2.9,2.7,6.1,4.8,9.5,6.3c3.4,1.5,6.7,2.6,9.9,3.4c3.2,0.8,6,1.2,8.4,1.4
		c2.4,0.2,4,0.2,4.6,0.2h4.3c4.5,0,9-0.8,13.6-2.3c4.5-1.5,8.6-3.6,12.3-6.3c3.7-2.7,6.7-5.8,9-9.4c2.3-3.6,3.5-7.5,3.5-11.7
		c0-6.7-3.2-12.5-9.7-17.4c-6.4-4.9-17.4-9.8-32.8-14.7l-4.5-1.5c-7-2.5-14.2-5.2-21.5-8c-7.3-2.8-13.8-6.4-19.6-10.5
		c-5.8-4.2-10.5-9.2-14.2-14.9c-3.7-5.8-5.5-12.8-5.5-21.2c0-7,1.6-13.5,4.7-19.5c3.1-5.9,7.4-11.1,13-15.4
		c5.5-4.3,12.1-7.7,19.6-10.2c7.5-2.4,15.7-3.6,24.4-3.6c4.5,0,9.4,0.3,14.7,0.8c5.3,0.5,10.6,1.6,15.8,3.3
		c5.3,1.7,10.4,4.1,15.3,7.3c4.9,3.2,9.3,7.4,13.2,12.8c1,1.5,2.1,3.4,3.3,5.5c1.2,2.2,2.2,4.4,3,6.8c0.8,2.4,1.6,4.6,2.1,6.8
		c0.6,2.2,0.9,4.1,0.9,5.8c0,3-1.1,5.6-3.2,7.8c-2.1,2.2-4.8,3.3-8,3.3c-3,0-5.7-1.1-7.9-3.3c-2.2-2.2-3.3-4.8-3.3-7.8
		c-0.2-0.8-0.8-2.6-1.9-5.4c-1.1-2.8-2.2-5-3.4-6.7c-6.9-9.9-20.5-14.8-40.9-14.8c-4.9,0-9.6,0.6-14.2,1.8
		c-4.6,1.2-8.8,2.9-12.6,5.1c-3.8,2.3-6.8,5-9,8.3c-2.3,3.3-3.4,7.1-3.4,11.4c0,4.2,1,7.8,3.1,10.9s5.1,5.9,9.1,8.5
		c3.9,2.6,8.8,5,14.5,7.2c5.7,2.2,12.1,4.5,19.1,7l4.3,1.5c5,1.7,10.9,3.7,17.5,6.1c6.6,2.4,12.9,5.7,18.9,9.8
		c6,4.1,11,9.2,15.1,15.2c4.1,6,6.2,13.4,6.2,22.1c0,7.5-1.8,14.5-5.4,20.8c-3.6,6.4-8.3,11.8-14.1,16.4
		c-5.8,4.6-12.3,8.2-19.5,10.7C809.7,195.7,802.5,197,795.3,197z"/>
	<path d="M939.4,197h-4.3c-7.9,0-15.7-1.2-23.4-3.5c-7.7-2.3-14.7-5.9-20.9-10.7s-11.2-10.8-15.1-18.2c-3.9-7.4-5.8-16.1-5.8-26.1
		c0-3,1.1-5.6,3.3-7.8c2.2-2.2,4.9-3.3,8-3.3c3,0,5.6,1.1,7.8,3.3c2.2,2.2,3.3,4.8,3.3,7.8c0,5.9,1,10.8,2.9,14.9
		c1.9,4.1,4.3,7.5,7.3,10.2c2.9,2.7,6.1,4.8,9.5,6.3c3.4,1.5,6.7,2.6,9.9,3.4c3.2,0.8,6,1.2,8.4,1.4c2.4,0.2,4,0.2,4.6,0.2h4.3
		c4.5,0,9-0.8,13.6-2.3c4.5-1.5,8.6-3.6,12.3-6.3c3.7-2.7,6.7-5.8,9-9.4c2.3-3.6,3.5-7.5,3.5-11.7c0-6.7-3.2-12.5-9.7-17.4
		c-6.4-4.9-17.4-9.8-32.8-14.7l-4.5-1.5c-7-2.5-14.2-5.2-21.5-8c-7.3-2.8-13.8-6.4-19.6-10.5c-5.8-4.2-10.5-9.2-14.2-14.9
		c-3.7-5.8-5.5-12.8-5.5-21.2c0-7,1.6-13.5,4.7-19.5c3.1-5.9,7.4-11.1,13-15.4c5.5-4.3,12.1-7.7,19.6-10.2
		c7.5-2.4,15.7-3.6,24.4-3.6c4.5,0,9.4,0.3,14.7,0.8c5.3,0.5,10.6,1.6,15.8,3.3c5.3,1.7,10.4,4.1,15.3,7.3
		c4.9,3.2,9.3,7.4,13.2,12.8c1,1.5,2.1,3.4,3.3,5.5c1.2,2.2,2.2,4.4,3,6.8c0.8,2.4,1.6,4.6,2.1,6.8c0.6,2.2,0.9,4.1,0.9,5.8
		c0,3-1.1,5.6-3.2,7.8c-2.1,2.2-4.8,3.3-8,3.3c-3,0-5.7-1.1-7.9-3.3c-2.2-2.2-3.3-4.8-3.3-7.8c-0.2-0.8-0.8-2.6-1.9-5.4
		c-1.1-2.8-2.2-5-3.4-6.7c-6.9-9.9-20.5-14.8-40.9-14.8c-4.9,0-9.6,0.6-14.2,1.8c-4.6,1.2-8.8,2.9-12.6,5.1c-3.8,2.3-6.8,5-9,8.3
		c-2.3,3.3-3.4,7.1-3.4,11.4c0,4.2,1,7.8,3.1,10.9s5.1,5.9,9.1,8.5c3.9,2.6,8.8,5,14.5,7.2c5.7,2.2,12.1,4.5,19.1,7l4.3,1.5
		c5,1.7,10.9,3.7,17.5,6.1c6.6,2.4,12.9,5.7,18.9,9.8c6,4.1,11,9.2,15.1,15.2c4.1,6,6.2,13.4,6.2,22.1c0,7.5-1.8,14.5-5.4,20.8
		c-3.6,6.4-8.3,11.8-14.1,16.4c-5.8,4.6-12.3,8.2-19.5,10.7C953.8,195.7,946.6,197,939.4,197z"/>
	<g>
		<g>
			<path d="M648.4,47.2l-0.5,0.9c1.7,1.4,3.4,2.9,5,4.4c6.6,6.6,11.9,14.3,15.7,23.2c0.5,1.2,1,2.5,1.5,3.7c0.1,0.3,0.2,0.6,0.3,0.9
				c0.4,1,0.7,2,1,3.1c0.1,0.2,0.1,0.5,0.2,0.7c0.3,1.1,0.6,2.3,0.9,3.4c0,0.1,0.1,0.3,0.1,0.4c0.3,1.3,0.6,2.6,0.8,3.9c0,0,0,0,0,0
				h1h30.1l0,0c-0.2-1.6-0.4-3.2-0.6-4.7c-0.1-0.4-0.1-0.7-0.2-1.1c-0.3-1.5-0.5-3.1-0.9-4.6c0-0.2-0.1-0.4-0.2-0.7
				c-1.1-4.8-2.5-9.5-4.2-14.1c-0.1-0.3-0.2-0.5-0.3-0.8c-0.5-1.4-1.1-2.8-1.7-4.2c-0.1-0.3-0.3-0.7-0.4-1
				c-2.7-5.9-5.9-11.6-9.7-16.8c-0.2-0.3-0.4-0.6-0.6-0.9c-0.9-1.2-1.8-2.4-2.7-3.6c-0.2-0.2-0.3-0.4-0.5-0.6
				c-3.1-3.8-6.5-7.3-10.1-10.7c-0.2-0.1-0.3-0.3-0.5-0.5c-1.2-1-2.3-2-3.5-3c-0.3-0.2-0.6-0.5-0.9-0.7c-1.2-1-2.5-2-3.8-2.9
				L648.4,47.2z"/>
		</g>
		<g>
			<path d="M575.9,35.8c1.9-0.7,3.8-1.3,5.8-1.9c0.2,0,0.3-0.1,0.5-0.1c1.9-0.5,3.8-0.9,5.7-1.3c0.3,0,0.5-0.1,0.8-0.1
				c1.9-0.3,3.8-0.6,5.8-0.8c0.2,0,0.5,0,0.7-0.1c2-0.2,4.1-0.3,6.1-0.3c2.1,0,4.1,0.1,6.1,0.3c0.2,0,0.5,0,0.7,0.1
				c1.9,0.2,3.8,0.4,5.7,0.8c0.3,0,0.6,0.1,0.8,0.1c1.9,0.3,3.8,0.8,5.6,1.3c0.2,0.1,0.4,0.1,0.6,0.2c1.9,0.5,3.8,1.1,5.7,1.9
				c0,0,0,0,0,0l0.5-0.8L642,8.8c0,0,0,0,0,0c-1.4-0.6-2.9-1.2-4.4-1.8c-0.4-0.2-0.8-0.3-1.2-0.5c-1.4-0.5-2.8-1-4.2-1.5
				c-0.5-0.1-0.9-0.3-1.4-0.4c-2.6-0.8-5.3-1.5-7.9-2.1c-0.4-0.1-0.9-0.2-1.3-0.3c-1-0.2-2-0.4-2.9-0.5c-1.1-0.2-2.1-0.4-3.2-0.5
				c-0.9-0.1-1.7-0.2-2.6-0.3c-1.3-0.2-2.5-0.3-3.8-0.4c-0.7-0.1-1.4-0.1-2.1-0.2c-2-0.1-4-0.2-6-0.2s-4,0.1-6,0.2
				c-0.7,0-1.4,0.1-2.1,0.2c-1.3,0.1-2.5,0.2-3.8,0.4c-0.9,0.1-1.7,0.2-2.6,0.3c-1.1,0.2-2.1,0.3-3.2,0.5c-1,0.2-2,0.3-2.9,0.5
				c-0.4,0.1-0.9,0.2-1.3,0.3c-2.6,0.6-5.3,1.3-7.9,2.1c-0.5,0.1-0.9,0.3-1.4,0.4c-1.4,0.5-2.8,0.9-4.2,1.5
				c-0.4,0.1-0.8,0.3-1.2,0.5c-1.5,0.6-2.9,1.2-4.4,1.8c0,0,0,0,0,0L575.4,35L575.9,35.8z"/>
		</g>
		<g>
			<path d="M537.5,141.6l0.8-0.7c-0.8-1.3-1.5-2.6-2.2-4c-0.7-1.4-1.4-2.9-2.1-4.3c-1-2.2-1.8-4.5-2.5-6.7c-0.7-2.3-1.3-4.6-1.8-7
				c-1-4.7-1.4-9.6-1.4-14.7c0-5,0.5-9.9,1.4-14.6c0.5-2.4,1.1-4.7,1.8-7c0.7-2.3,1.6-4.6,2.5-6.8c3.8-8.9,9.1-16.6,15.7-23.2
				c1.5-1.5,3.1-2.9,4.8-4.3l-0.5-0.9l-15.1-26.2c0,0,0,0,0,0c-0.6,0.4-1.2,0.9-1.8,1.4c-0.9,0.7-1.8,1.4-2.7,2.2c0,0,0,0,0,0
				c0,0,0,0-0.1,0.1c-1.3,1.1-2.6,2.2-3.8,3.4c-0.4,0.4-0.8,0.8-1.2,1.2c-0.8,0.8-1.6,1.6-2.4,2.4c-0.5,0.5-0.9,1-1.4,1.5
				c-0.7,0.7-1.4,1.5-2,2.2c-0.5,0.5-0.9,1.1-1.4,1.7c-0.6,0.7-1.2,1.4-1.8,2.2c-0.5,0.6-0.9,1.2-1.4,1.8c-0.6,0.7-1.1,1.4-1.6,2.2
				c-0.5,0.6-0.9,1.3-1.3,1.9c-0.5,0.7-1,1.4-1.5,2.2c-0.4,0.7-0.9,1.3-1.3,2c-0.5,0.7-0.9,1.4-1.3,2.2c-0.4,0.7-0.8,1.4-1.2,2.1
				c-0.4,0.7-0.8,1.4-1.2,2.2c-0.4,0.7-0.8,1.4-1.1,2.2c-0.4,0.7-0.7,1.4-1,2.1c-0.4,0.8-0.7,1.5-1.1,2.3c-0.3,0.7-0.6,1.4-0.9,2.1
				c-0.3,0.8-0.7,1.6-1,2.4c-0.2,0.6-0.5,1.3-0.7,1.9c-0.3,0.9-0.7,1.8-1,2.7c-0.2,0.5-0.3,0.9-0.4,1.4c-1.7,5.3-2.9,10.7-3.8,16.1
				c0,0.2-0.1,0.5-0.1,0.7c-0.2,1.2-0.3,2.5-0.5,3.7c0,0.3-0.1,0.6-0.1,1c-0.1,1.2-0.2,2.4-0.3,3.7c0,0.3,0,0.7-0.1,1
				c-0.1,1.2-0.1,2.4-0.1,3.7c0,0.3,0,0.7,0,1c0,1.2,0,2.5,0,3.7c0,0.3,0,0.6,0,0.9c0,1.3,0.1,2.5,0.2,3.8c0,0.3,0,0.5,0.1,0.8
				c0.1,1.3,0.2,2.6,0.4,3.9c0,0.2,0.1,0.4,0.1,0.6c0.2,1.4,0.4,2.8,0.6,4.1c0,0.1,0,0.2,0.1,0.3c2.3,13.7,7.5,27,15.4,39.2
				L537.5,141.6z"/>
		</g>
		<g>
			<path d="M686,164.2c0.8-1.1,1.5-2.2,2.2-3.3c0.1-0.2,0.2-0.3,0.3-0.5c0.8-1.2,1.5-2.4,2.2-3.6c0-0.1,0.1-0.2,0.1-0.2
				c7-12,11.7-25.5,13.4-39.9h-30h-1.1l0,0c-0.2,1.3-0.5,2.6-0.8,3.9c0,0.1,0,0.2-0.1,0.3c-0.3,1.2-0.6,2.3-0.9,3.4
				c-0.1,0.2-0.1,0.4-0.2,0.6c-0.3,1-0.6,2.1-1,3.1c-0.1,0.3-0.2,0.5-0.3,0.8c-0.5,1.2-0.9,2.5-1.5,3.7c-1,2.2-2,4.3-3.1,6.4
				c-3.4,6.2-7.6,11.8-12.6,16.7c-3.3,3.3-6.9,6.2-10.8,8.8c-3.9,2.6-8.1,4.9-12.5,6.8c-3.3,1.4-6.7,2.6-10.2,3.5
				c-5.8,1.5-11.9,2.2-18.1,2.2c-10,0-19.4-1.9-28.2-5.7c-2-0.9-3.9-1.8-5.7-2.8c-0.7-0.4-1.5-0.8-2.2-1.2c-1.1-0.6-2.1-1.2-3.1-1.9
				c-0.9-0.6-1.8-1.2-2.6-1.8c-0.8-0.5-1.5-1.1-2.3-1.7c-0.9-0.7-1.9-1.4-2.8-2.2l0,0l-0.9,0.7L530,180.1c2.1,2.1,4.4,4,6.6,5.8
				c0.3,0.2,0.6,0.5,0.9,0.8c0.9,0.7,1.8,1.3,2.7,2c0.5,0.4,1,0.8,1.6,1.1c0.8,0.6,1.7,1.2,2.6,1.8c0.6,0.4,1.2,0.8,1.8,1.1
				c0.8,0.5,1.7,1.1,2.6,1.6c0.6,0.4,1.3,0.7,1.9,1.1c0.8,0.5,1.7,0.9,2.5,1.4c0.7,0.4,1.4,0.7,2.1,1c0.8,0.4,1.7,0.8,2.5,1.2
				c0.8,0.4,1.6,0.7,2.4,1c0.8,0.3,1.6,0.7,2.4,1c1.5,0.6,3.1,1.2,4.6,1.7c0.7,0.2,1.4,0.4,2.1,0.7c1,0.3,1.9,0.6,2.9,0.9
				c0.7,0.2,1.5,0.4,2.2,0.6c1,0.2,1.9,0.5,2.9,0.7c0.8,0.2,1.5,0.3,2.3,0.5c1,0.2,2,0.4,3,0.6c0.7,0.1,1.5,0.2,2.3,0.4
				c1.1,0.2,2.1,0.3,3.2,0.4c0.7,0.1,1.4,0.2,2.1,0.2c1.2,0.1,2.4,0.2,3.6,0.3c0.6,0,1.2,0.1,1.8,0.1c1.8,0.1,3.7,0.1,5.6,0.1
				c1.7,0,3.4,0,5.2-0.1c0.6,0,1.1-0.1,1.7-0.1c1.1-0.1,2.3-0.1,3.4-0.3c0.7-0.1,1.4-0.2,2-0.2c1-0.1,2-0.2,3-0.4
				c0.7-0.1,1.4-0.2,2.1-0.4c0.9-0.2,1.9-0.3,2.8-0.5c0.7-0.1,1.5-0.3,2.2-0.5c0.9-0.2,1.8-0.4,2.7-0.6c0.7-0.2,1.5-0.4,2.2-0.6
				c0.8-0.2,1.7-0.5,2.5-0.7c0.8-0.2,1.5-0.5,2.2-0.7c0.8-0.3,1.6-0.5,2.4-0.8c0.7-0.3,1.5-0.5,2.2-0.8c0.8-0.3,1.5-0.6,2.3-0.9
				c0.8-0.3,1.5-0.6,2.2-0.9c0.7-0.3,1.5-0.6,2.2-1c0.8-0.4,1.5-0.7,2.3-1.1c0.7-0.3,1.3-0.7,2-1c0.8-0.4,1.6-0.8,2.3-1.2
				c0.6-0.3,1.2-0.7,1.7-1c0.8-0.5,1.7-0.9,2.5-1.4c0.4-0.3,0.8-0.5,1.2-0.8c4.7-3,9.1-6.3,13.2-9.9c0.2-0.2,0.4-0.3,0.6-0.5
				c0.9-0.8,1.8-1.7,2.7-2.6c0.2-0.2,0.5-0.5,0.7-0.7c0.9-0.9,1.7-1.7,2.6-2.6c0.2-0.3,0.5-0.5,0.7-0.8c0.8-0.9,1.6-1.8,2.4-2.7
				c0.2-0.3,0.5-0.5,0.7-0.8c0.8-0.9,1.6-1.9,2.3-2.9c0.2-0.3,0.4-0.5,0.6-0.8c0.8-1,1.5-2,2.3-3C685.7,164.7,685.9,164.4,686,164.2
				z"/>
		</g>
	</g>
</g>
</svg>
