<svg xmlns="http://www.w3.org/2000/svg" viewBox="0 0 916.85 359.89"><defs><style>.cls-1,.cls-6{fill:#231f20;}.cls-2{fill:#6ac7b9;}.cls-3{fill:#1d99d6;}.cls-4{fill:#d51c5a;}.cls-5{fill:#bc9bc8;}.cls-6{font-size:163.05px;font-family:Porto, "Porto 400";}</style></defs><g id="Layer_2" data-name="Layer 2"><g id="Layer_1-2" data-name="Layer 1"><path class="cls-1" d="M83.27,174.38a80.44,80.44,0,0,1-32.36-6.6,83.28,83.28,0,0,1-26.39-17.92A81.89,81.89,0,0,1,6.6,123.56,82.19,82.19,0,0,1,6.6,59,83.28,83.28,0,0,1,24.52,32.63,87.33,87.33,0,0,1,50.91,14.71a80.44,80.44,0,0,1,32.36-6.6A82.87,82.87,0,0,1,124.63,19a9.31,9.31,0,0,1,4.82,5.88,9.68,9.68,0,0,1-1,7.49,9.41,9.41,0,0,1-6.07,4.82,9.77,9.77,0,0,1-7.57-1A56.71,56.71,0,0,0,99.76,30,67.23,67.23,0,0,0,83.27,27.9,60.3,60.3,0,0,0,58.57,33,65.19,65.19,0,0,0,38.51,46.54,62.23,62.23,0,0,0,25,66.6a60.64,60.64,0,0,0-5,24.6,61.73,61.73,0,0,0,5,24.7A65.79,65.79,0,0,0,38.51,136a64.38,64.38,0,0,0,20.06,13.64,60.54,60.54,0,0,0,24.7,5,62.77,62.77,0,0,0,17.83-2.59,64.62,64.62,0,0,0,16.22-7.31,9.72,9.72,0,0,1,7.58-1.6,9.6,9.6,0,0,1,6.24,4.45,9.43,9.43,0,0,1,1.34,7.49,10.68,10.68,0,0,1-4.46,6.42A82.39,82.39,0,0,1,83.27,174.38Z"/><path class="cls-1" d="M153.52,9.09a9.87,9.87,0,0,1,7,2.77,9,9,0,0,1,3,7V164a9.26,9.26,0,0,1-3,7,9.86,9.86,0,0,1-7,2.94,9.28,9.28,0,0,1-7-2.94,9.66,9.66,0,0,1-2.77-7V18.9a9.48,9.48,0,0,1,9.81-9.81Zm106.53,0a9.46,9.46,0,0,1,9.81,9.81V164a9.69,9.69,0,0,1-2.76,7,9.3,9.3,0,0,1-7.05,2.94,9.86,9.86,0,0,1-7-2.94,9.26,9.26,0,0,1-3-7V101.28H186.86a9.7,9.7,0,0,1-7-2.77,9.22,9.22,0,0,1-2.94-7,9.9,9.9,0,0,1,9.89-9.9H250V18.9a9,9,0,0,1,3-7A9.87,9.87,0,0,1,260.05,9.09Z"/><path class="cls-1" d="M437.73,167.34a9.14,9.14,0,0,1-5.17,5.44,9.81,9.81,0,0,1-7.58.44,9.67,9.67,0,0,1-5.61-5.17l-17.65-38h-45a9.45,9.45,0,0,1-9.8-9.8,9.7,9.7,0,0,1,2.76-7,9.28,9.28,0,0,1,7-2.94h35.58L361,43.24,305.7,167.87a9.25,9.25,0,0,1-3.83,4.37,10,10,0,0,1-5.35,1.43,10.47,10.47,0,0,1-4-.72,9.59,9.59,0,0,1-5.26-5.61,9,9,0,0,1,.35-7.58L351.79,15.42a9.25,9.25,0,0,1,3.57-4.28,9.4,9.4,0,0,1,5.35-1.6A10,10,0,0,1,366.06,11a8.39,8.39,0,0,1,3.56,4.1l67.58,144.6A9.71,9.71,0,0,1,437.73,167.34Z"/><path class="cls-1" d="M709,175.54h-3.83a72.53,72.53,0,0,1-20.86-3.12,56.79,56.79,0,0,1-18.64-9.54,49.13,49.13,0,0,1-13.46-16.23c-3.48-6.59-5.17-14.35-5.17-23.26a9.51,9.51,0,0,1,2.94-7,9.76,9.76,0,0,1,7.13-2.94,10,10,0,0,1,9.9,9.9,31.13,31.13,0,0,0,2.59,13.28,27.57,27.57,0,0,0,6.5,9.09,30.55,30.55,0,0,0,8.47,5.62,54.1,54.1,0,0,0,8.83,3,47.14,47.14,0,0,0,7.49,1.25c2.14.18,3.56.18,4.1.18h3.83A39.14,39.14,0,0,0,721,153.79a39.86,39.86,0,0,0,11-5.62,31.25,31.25,0,0,0,8-8.38,19.07,19.07,0,0,0,3.12-10.43c0-6-2.86-11.15-8.65-15.51s-15.51-8.74-29.24-13.11l-4-1.34c-6.24-2.23-12.65-4.63-19.16-7.13a79,79,0,0,1-17.48-9.36,49.67,49.67,0,0,1-12.66-13.28c-3.29-5.17-4.9-11.41-4.9-18.9a37.42,37.42,0,0,1,4.19-17.39,41.56,41.56,0,0,1,11.59-13.73,58,58,0,0,1,17.47-9.09A71.32,71.32,0,0,1,702,7.31c4,0,8.38.27,13.1.71a65,65,0,0,1,14.09,3,56.19,56.19,0,0,1,13.64,6.5,44.68,44.68,0,0,1,11.77,11.41c.89,1.34,1.87,3,2.94,4.91a36.44,36.44,0,0,1,2.67,6.06,62.49,62.49,0,0,1,1.87,6.06,19.66,19.66,0,0,1,.81,5.17A9.76,9.76,0,0,1,760,58,9.46,9.46,0,0,1,752.88,61a9.71,9.71,0,0,1-7-2.94,9.51,9.51,0,0,1-2.94-7,50.48,50.48,0,0,0-1.7-4.81,28.13,28.13,0,0,0-3-6C732,31.47,719.9,27.1,701.71,27.1a49.76,49.76,0,0,0-12.66,1.61,44.85,44.85,0,0,0-11.23,4.54,24.76,24.76,0,0,0-8,7.4,17.31,17.31,0,0,0-3,10.17,16.74,16.74,0,0,0,2.77,9.71,27.75,27.75,0,0,0,8.11,7.58,66.8,66.8,0,0,0,12.93,6.42c5.08,2,10.78,4,17,6.24l3.84,1.34c4.45,1.51,9.71,3.3,15.6,5.44a76.05,76.05,0,0,1,16.85,8.73,51.47,51.47,0,0,1,13.46,13.55c3.65,5.35,5.53,12,5.53,19.71a36.89,36.89,0,0,1-4.82,18.54,49.34,49.34,0,0,1-12.57,14.62A59.52,59.52,0,0,1,709,175.54Z"/><path class="cls-1" d="M837.49,175.54h-3.84a72.63,72.63,0,0,1-20.86-3.12,56.84,56.84,0,0,1-18.63-9.54,48.89,48.89,0,0,1-13.46-16.23c-3.48-6.59-5.17-14.35-5.17-23.26a9.51,9.51,0,0,1,2.94-7,9.76,9.76,0,0,1,7.13-2.94,10.06,10.06,0,0,1,9.9,9.9,31.28,31.28,0,0,0,2.58,13.28,27.74,27.74,0,0,0,6.51,9.09,30.55,30.55,0,0,0,8.47,5.62,53.78,53.78,0,0,0,8.83,3,47,47,0,0,0,7.48,1.25c2.14.18,3.57.18,4.11.18h3.83a39.08,39.08,0,0,0,12.12-2.05,39.92,39.92,0,0,0,11-5.62,31.06,31.06,0,0,0,8-8.38,19.07,19.07,0,0,0,3.12-10.43c0-6-2.85-11.15-8.65-15.51s-15.51-8.74-29.24-13.11l-4-1.34c-6.24-2.23-12.66-4.63-19.17-7.13A79.17,79.17,0,0,1,793,82.91a49.67,49.67,0,0,1-12.66-13.28c-3.3-5.17-4.9-11.41-4.9-18.9a37.3,37.3,0,0,1,4.19-17.39,41.44,41.44,0,0,1,11.59-13.73,57.93,57.93,0,0,1,17.47-9.09,71.3,71.3,0,0,1,21.75-3.21c4,0,8.38.27,13.11.71a65.14,65.14,0,0,1,14.09,3,56.19,56.19,0,0,1,13.64,6.5A44.65,44.65,0,0,1,883,28.88c.89,1.34,1.88,3,3,4.91a36.44,36.44,0,0,1,2.67,6.06c.71,2.14,1.43,4.1,1.87,6.06a19.6,19.6,0,0,1,.8,5.17,9.79,9.79,0,0,1-2.85,7A9.48,9.48,0,0,1,881.35,61a9.69,9.69,0,0,1-7-2.94,9.48,9.48,0,0,1-2.95-7,46.55,46.55,0,0,0-1.69-4.81,28.13,28.13,0,0,0-3-6c-6.15-8.83-18.28-13.2-36.46-13.2a49.76,49.76,0,0,0-12.66,1.61,45.08,45.08,0,0,0-11.24,4.54,24.83,24.83,0,0,0-8,7.4,17.31,17.31,0,0,0-3,10.17A16.81,16.81,0,0,0,798,60.53a27.79,27.79,0,0,0,8.12,7.58A66.69,66.69,0,0,0,819,74.53c5.08,2,10.79,4,17,6.24l3.83,1.34c4.46,1.51,9.72,3.3,15.61,5.44a75.76,75.76,0,0,1,16.84,8.73,51.51,51.51,0,0,1,13.47,13.55c3.65,5.35,5.52,12,5.52,19.71a36.88,36.88,0,0,1-4.81,18.54A49.34,49.34,0,0,1,874,162.7a59.52,59.52,0,0,1-36.46,12.84Z"/><path class="cls-2" d="M578.06,42l-.45.8c1.52,1.25,3,2.59,4.46,3.93a65.22,65.22,0,0,1,14,20.68c.44,1.07.89,2.23,1.33,3.3l.27.8a24.76,24.76,0,0,1,.89,2.76c.09.18.09.45.18.63.27,1,.53,2,.8,3,0,.09.09.27.09.35.27,1.16.54,2.32.71,3.48h27.73l-.53-4.19c-.09-.36-.09-.62-.18-1-.27-1.34-.45-2.76-.8-4.1a2.15,2.15,0,0,0-.18-.62,100.92,100.92,0,0,0-3.75-12.57c-.09-.27-.18-.45-.27-.72-.44-1.25-1-2.49-1.51-3.74-.09-.27-.27-.63-.36-.89a85.88,85.88,0,0,0-8.64-15l-.54-.8L608.9,35c-.18-.18-.26-.36-.44-.54a101.32,101.32,0,0,0-9-9.54c-.18-.09-.26-.26-.44-.44-1.07-.89-2-1.79-3.12-2.68-.27-.18-.54-.44-.81-.62-1.07-.89-2.22-1.78-3.38-2.59Z"/><path class="cls-3" d="M513.42,31.83c1.7-.63,3.39-1.16,5.17-1.7.18,0,.27-.09.45-.09,1.69-.44,3.39-.8,5.08-1.15.27,0,.45-.09.71-.09,1.7-.27,3.39-.54,5.17-.72a1.53,1.53,0,0,0,.63-.09c1.78-.17,3.65-.26,5.44-.26s3.65.09,5.43.26a1.53,1.53,0,0,1,.63.09,49.27,49.27,0,0,1,5.08.72c.27,0,.54.09.71.09a44.89,44.89,0,0,1,5,1.15c.17.09.35.09.53.18a37.4,37.4,0,0,1,5.08,1.7h0l.45-.72L572.35,7.76h0c-1.25-.54-2.58-1.07-3.92-1.61-.36-.18-.71-.27-1.07-.44l-3.75-1.34c-.44-.09-.8-.27-1.24-.36-2.32-.71-4.73-1.34-7-1.87l-1.16-.27c-.89-.18-1.78-.35-2.58-.44-1-.18-1.87-.36-2.85-.45L546.41.71C545.25.53,544.18.45,543,.36c-.62-.09-1.25-.09-1.87-.18C539.37.09,537.58,0,535.8,0s-3.57.09-5.35.18a13.15,13.15,0,0,0-1.87.18c-1.16.09-2.23.17-3.39.35L522.87,1c-1,.18-1.87.27-2.85.45s-1.78.26-2.59.44l-1.16.27c-2.31.53-4.72,1.16-7,1.87-.44.09-.8.27-1.25.36-1.24.44-2.49.8-3.74,1.34a4.84,4.84,0,0,0-1.07.44c-1.34.54-2.59,1.07-3.92,1.61h0L513,31.11Z"/><path class="cls-4" d="M479.19,126.15l.71-.63c-.71-1.15-1.34-2.31-2-3.56s-1.25-2.59-1.87-3.83a54.46,54.46,0,0,1-2.23-6c-.63-2.05-1.16-4.1-1.61-6.24A63,63,0,0,1,471,92.81a69.51,69.51,0,0,1,1.24-13c.45-2.14,1-4.19,1.61-6.24s1.43-4.1,2.23-6.06a65.35,65.35,0,0,1,14-20.69c1.34-1.33,2.77-2.58,4.28-3.83l-.44-.8L480.44,18.81h0a19.49,19.49,0,0,0-1.61,1.25c-.8.62-1.6,1.25-2.41,2h0l-.08.09c-1.16,1-2.32,2-3.39,3l-1.07,1.07-2.14,2.14c-.45.45-.8.89-1.25,1.34-.62.62-1.25,1.33-1.78,2-.45.44-.81,1-1.25,1.51s-1.07,1.25-1.61,2c-.44.53-.8,1.07-1.24,1.6a15.63,15.63,0,0,0-1.43,2,19,19,0,0,0-1.16,1.7c-.45.62-.89,1.24-1.34,2s-.8,1.16-1.16,1.78a14,14,0,0,0-1.15,2L455.3,48c-.36.63-.72,1.25-1.07,2a13.43,13.43,0,0,0-1,2,18.69,18.69,0,0,0-.89,1.87c-.35.71-.62,1.34-1,2.05l-.8,1.87c-.27.71-.62,1.43-.89,2.14-.18.54-.45,1.16-.63,1.69-.26.81-.62,1.61-.89,2.41a7.3,7.3,0,0,0-.35,1.25,100.59,100.59,0,0,0-3.39,14.35c0,.18-.09.45-.09.63-.18,1.07-.27,2.23-.45,3.3,0,.26-.09.53-.09.89-.08,1.07-.17,2.14-.26,3.3a3,3,0,0,1-.09.89c-.09,1.07-.09,2.14-.09,3.3v5c0,1.16.09,2.23.18,3.39a2,2,0,0,0,.09.71c.09,1.16.17,2.32.35,3.48,0,.17.09.35.09.53.18,1.25.36,2.5.54,3.66a.31.31,0,0,0,.09.26,92.33,92.33,0,0,0,13.73,35Z"/><path class="cls-5" d="M611.58,146.3c.71-1,1.33-2,2-2.94.09-.18.18-.27.27-.45.71-1.07,1.33-2.14,2-3.21a.31.31,0,0,1,.09-.18A91.81,91.81,0,0,0,627.8,104H600.08c-.18,1.16-.45,2.32-.72,3.48a.3.3,0,0,1-.09.26c-.26,1.07-.53,2.06-.8,3-.09.17-.09.35-.18.53-.26.89-.53,1.87-.89,2.76-.09.27-.18.45-.26.72-.45,1.07-.81,2.23-1.34,3.3-.89,2-1.79,3.83-2.77,5.7a64.73,64.73,0,0,1-20.86,22.74A71.53,71.53,0,0,1,561,152.54a63.69,63.69,0,0,1-9.09,3.12,64.46,64.46,0,0,1-16.14,2,62.65,62.65,0,0,1-25.14-5.08c-1.78-.8-3.48-1.61-5.08-2.5-.63-.36-1.34-.71-2-1.07a27.25,27.25,0,0,1-2.77-1.69c-.8-.54-1.6-1.07-2.32-1.61s-1.33-1-2-1.51-1.69-1.25-2.49-2h0l-.81.62L472.5,160.47a76.19,76.19,0,0,0,5.89,5.17,6.41,6.41,0,0,1,.8.72c.8.62,1.6,1.16,2.41,1.78a8,8,0,0,0,1.42,1c.71.53,1.52,1.07,2.32,1.6a15.43,15.43,0,0,0,1.6,1c.72.44,1.52,1,2.32,1.42.54.36,1.16.63,1.7,1,.71.45,1.51.8,2.22,1.25a17.74,17.74,0,0,0,1.88.89c.71.36,1.51.72,2.23,1.07a18.63,18.63,0,0,0,2.14.89c.71.27,1.42.63,2.13.89,1.34.54,2.77,1.07,4.11,1.52a17.78,17.78,0,0,1,1.87.62l2.58.81c.63.18,1.34.35,2,.53.9.18,1.7.45,2.59.63.71.17,1.34.26,2.05.44l2.68.54a20,20,0,0,1,2.05.35c1,.18,1.87.27,2.85.36a13.15,13.15,0,0,0,1.87.18l3.21.27c.53,0,1.07.08,1.6.08,1.61.09,3.3.09,5,.09,1.51,0,3,0,4.63-.09.54,0,1-.08,1.52-.08,1-.09,2-.09,3-.27a13.25,13.25,0,0,1,1.78-.18c.89-.09,1.79-.18,2.68-.36a15.36,15.36,0,0,0,1.87-.35c.8-.18,1.69-.27,2.5-.45a17.74,17.74,0,0,0,2-.44l2.4-.54c.63-.18,1.34-.36,2-.53s1.51-.45,2.22-.63,1.34-.44,2-.62,1.42-.45,2.14-.72,1.33-.44,2-.71,1.33-.53,2-.8,1.33-.54,2-.8a19,19,0,0,0,2-.9c.71-.35,1.34-.62,2-1s1.16-.62,1.78-.89,1.43-.71,2.05-1.07,1.07-.62,1.52-.89c.71-.44,1.51-.8,2.23-1.25.35-.26.71-.44,1.07-.71a96.36,96.36,0,0,0,11.77-8.83c.17-.17.35-.26.53-.44.8-.72,1.61-1.52,2.41-2.32l.62-.62c.8-.81,1.52-1.52,2.32-2.32.18-.27.45-.45.62-.72l2.14-2.4c.18-.27.45-.45.63-.72a30.54,30.54,0,0,0,2-2.58c.18-.27.35-.45.53-.71.72-.9,1.34-1.79,2.05-2.68A1.38,1.38,0,0,0,611.58,146.3Z"/><text class="cls-6" transform="translate(349.61 322.07)">AFRICA</text></g></g></svg>