<svg xmlns="http://www.w3.org/2000/svg" viewBox="0 0 932.04 404.68"><defs><style>.cls-1{fill:#6bc7b8;}.cls-2{fill:#2299ca;}.cls-3{fill:#bf9cc9;}.cls-4{fill:#d51b5e;}.cls-10,.cls-5{fill:#231f20;}.cls-6{fill:#6ac7b9;}.cls-7{fill:#1d99d6;}.cls-8{fill:#d51c5a;}.cls-9{fill:#bc9bc8;}.cls-10{font-size:103.07px;font-family:Porto, "Porto 400";}</style></defs><g id="Layer_2" data-name="Layer 2"><g id="Layer_1-2" data-name="Layer 1"><path class="cls-1" d="M301.42,366.22a9.35,9.35,0,0,1-2.53-.33h-.05c-2.06-.61-4.68-3-5-3.29-3.52-3.3-3.89-5.19-4.75-11.91a12.57,12.57,0,0,0-1.36-4.55c-2.7-5.11-1.91-8.87-.76-11.12a27,27,0,0,1,3.35-4.4l.06-.06a6.22,6.22,0,0,0,1.62-2.3,18,18,0,0,1,2.62-5.88,4.56,4.56,0,0,0,.27-3.3c-.17-.54-.47-1.56-.65-2.38a4.38,4.38,0,0,0-.56-.91c-2.77-3.11-2.78-5.77-1.87-9.3s1.92-5.68,3.65-7.57l0,0a1.26,1.26,0,0,0,.07-.28c.11-1.28.37-4.23,3.94-5.2a4.58,4.58,0,0,0,.89-.49,7.66,7.66,0,0,1,3.8-1.58,2.87,2.87,0,0,0,.54-.25A36.76,36.76,0,0,1,309.2,289a11.63,11.63,0,0,0,1.58-.72,4.48,4.48,0,0,1,1.69-2.89,4.34,4.34,0,0,1,1.37-.7,4.91,4.91,0,0,1,1.36-1.75,5.84,5.84,0,0,1,2.84-1.26,6.82,6.82,0,0,1,1.34-1.85,6,6,0,0,1,4.74-5.47c.23-.17.53-.42.84-.68a4.21,4.21,0,0,1-.84-2.48c0-1.17.39-2.22,2.42-4.45,1.7-1.88,3.37-2.83,4.94-2.83,3.2,0,6,3.05,6.66,5.83a13.34,13.34,0,0,0,.91,2c1.52,2.6,1.49,4,1.42,8.19,0,3.56,0,3.73.37,4.36a7.85,7.85,0,0,1,.74,6.42,10.28,10.28,0,0,0-.17,2.08,4.9,4.9,0,0,1-1.88,5.21,4.58,4.58,0,0,1-1.65.68,10,10,0,0,1-1.9,4.16,11,11,0,0,0-1.92,6.72v0c0,4-.53,7.11-2.77,9.5a6,6,0,0,0-.76,1.43c-1.73,5.27-2.66,7.49-4.35,9.21l-.17.19a8.25,8.25,0,0,0-.06.83,10.51,10.51,0,0,1-1.73,5.68l0,.05a10.71,10.71,0,0,0-1.12,3.66,21.93,21.93,0,0,1-2.27,6.8l0,0a13.26,13.26,0,0,0-1.27,4.05c-1,5.84-1.61,7.35-5.56,10.15C311.1,363.21,306.08,366.22,301.42,366.22Zm-.34-7.57c1.16.17,4.29-.63,8.49-3.61a6,6,0,0,0,1.58-1.32,20.86,20.86,0,0,0,.9-4,20.68,20.68,0,0,1,2.21-6.58,14.87,14.87,0,0,0,1.37-4.37v0a17.81,17.81,0,0,1,2.28-6.47,3.21,3.21,0,0,0,.48-1.88,7.86,7.86,0,0,1,2.28-5.83l.1-.11c.63-.64,1.46-2.88,2.58-6.3a12.9,12.9,0,0,1,2.42-4.22c.46-.5.7-1.94.73-4.4a18.42,18.42,0,0,1,3.26-11c.72-1,.72-1,.72-2,0-1.77,0-4.43,2.39-5.73a4.26,4.26,0,0,1,1.11-.41c.05-.43.11-.83.18-1.18l0-.08c.1-.49.15-.77.18-.92l-.25-.5c-1.22-2.37-1.25-4-1.21-7.92a17.25,17.25,0,0,0-.07-3.6,14.82,14.82,0,0,1-2.46,2.7,13,13,0,0,1-3.59,2.52,7,7,0,0,1-1.88,3.49,4.42,4.42,0,0,1-1.56,3.42,4.23,4.23,0,0,1-3.07.91,5.37,5.37,0,0,1-1.24,1.5,5.48,5.48,0,0,1-1.42.87c-1.22,2.58-3.89,3.65-5.61,4.34a26.78,26.78,0,0,0-3.24,1.51l0,0a9.89,9.89,0,0,1-3.61,1.32l-.06,0-.12.09a12.72,12.72,0,0,1-1.94,1.16,7.85,7.85,0,0,1-2,3.92c-.69.77-1.22,1.74-1.87,4.3a5.64,5.64,0,0,0-.31,1.77,6.06,6.06,0,0,0,.5.64,10.92,10.92,0,0,1,2.22,4l.05.23c.08.38.3,1.21.5,1.84a12,12,0,0,1-1,9.48,11.06,11.06,0,0,0-1.76,3.83,13.16,13.16,0,0,1-3.43,5.61,24.38,24.38,0,0,0-2.19,2.73c-.6,1.22.06,2.94.72,4.18l.05.09a20.17,20.17,0,0,1,2.12,7c.73,5.76.76,5.79,2.41,7.33A13.55,13.55,0,0,0,301.08,358.65Zm3.52-67.33h0Zm16.34-4.62h0Zm-7.55,0Zm6-6.36Zm5.81-6.12h0Z"/><path class="cls-2" d="M284.11,221.84a6.09,6.09,0,0,1-1.62-.23,6,6,0,0,1-4.12-7.36c2.36-8.4,9.1-13.35,15-17.71a56,56,0,0,0,7.8-6.46c2.78-3,4.91-7,7-10.88l7.3-13.78c2.86-5.38,5.42-10.63,5.92-15.5a31.92,31.92,0,0,0-6.3,1.76l-1.29.48c-4.41,1.63-9.4,3.49-15,3.18-7.28-.42-15.17-5.72-15.76-13.87a19.59,19.59,0,0,1,0-2.16c0-.33,0-.79,0-.94-.3-.67-2.71-2-4-2.69a39.26,39.26,0,0,1-4.46-2.7c-5.87-4.27-8.22-10.72-10.29-16.4-1.27-3.51-2.48-6.82-4.33-9.26-.38-.5-.84-1-1.33-1.59a23.17,23.17,0,0,1-3.93-5.71,23.24,23.24,0,0,1-1.62-6.66,22.76,22.76,0,0,0-.45-2.69c-.6-2.24-2.29-4.4-4.25-6.9a49.74,49.74,0,0,1-4.21-6,48.49,48.49,0,0,1-3.49-8.11c-.22-.63-.44-1.25-.67-1.86-2.89-7.77-7.14-15.31-11.26-22.61a11.41,11.41,0,0,0-1.55-2.32c-.64-.17-2.86.51-4.06.88-.81.25-1.66.5-2.55.73-8.35,2.13-17.69.17-28.56-6l-.9-.52a36.34,36.34,0,0,0-5.5-2.77l-.46.86a6,6,0,1,1-10.52-5.62l2.42-4.53A6,6,0,0,1,182,22.8c6-.35,11,2.53,15.07,4.85l.87.49c8.05,4.57,14.51,6.14,19.73,4.81.61-.16,1.29-.36,2-.58,3.55-1.09,8.4-2.57,13.22,0,3.38,1.82,5.12,4.91,6.28,7,4.33,7.7,8.82,15.66,12,24.31l.72,2a39.05,39.05,0,0,0,2.61,6.19,40.25,40.25,0,0,0,3.25,4.56c2.41,3.08,5.15,6.57,6.38,11.16a31.73,31.73,0,0,1,.76,4.23,14,14,0,0,0,.69,3.35,14,14,0,0,0,2.06,2.77c.59.68,1.19,1.38,1.79,2.17,2.95,3.88,4.6,8.4,6,12.4,1.7,4.67,3.17,8.71,6.1,10.84a29.23,29.23,0,0,0,3.15,1.86c3.85,2.11,9.14,5,10.1,11.4a16.28,16.28,0,0,1,.12,3.1c0,.35,0,.71,0,.91.08,1.16,2.19,2.68,4.53,2.82,3.07.17,6.5-1.1,10.14-2.45l1.33-.5c5.25-1.92,11.46-3.65,17.68-1.89a6,6,0,0,1,4.22,4.53c2.22,10.73-3.25,21.06-6.87,27.89l-7.29,13.77c-2.31,4.36-4.92,9.29-8.78,13.43a65.69,65.69,0,0,1-9.47,7.94c-5,3.69-9.37,6.89-10.62,11.34A6,6,0,0,1,284.11,221.84Z"/><path class="cls-1" d="M178.29,404.68h-.1a6,6,0,0,1-5.87-6.06c.08-5.19,4.1-9.8,9.76-11.22a25.6,25.6,0,0,1,8.26-.39c.54,0,1.08.08,1.62.1a32.1,32.1,0,0,0,24.91-10.54c4.7-5.32,7.6-12.15,10.66-19.38,1.6-3.75,3.24-7.63,5.19-11.38a17.89,17.89,0,0,1,3.77-5.26,18.83,18.83,0,0,1,5.07-3.12c.6-.27,1.16-.54,1.59-.79a7,7,0,0,0,1.35-9.94l-.3-.3a12.06,12.06,0,0,1-2.53-3.28c-1.21-2.46-3-8.87,6.63-15.18a59.39,59.39,0,0,0,23.59-30.56,17.28,17.28,0,0,0,1.21-6.7,23,23,0,0,0-2.21-6.51c-.26-.59-.53-1.19-.78-1.78a69.65,69.65,0,0,1-5.5-30.89c.43-8.16,4.72-10.78,7.23-11.62a6,6,0,0,1,4.87,10.82,8.54,8.54,0,0,0-.19,1.43,57.72,57.72,0,0,0,4.55,25.56l.72,1.63A32.48,32.48,0,0,1,285,269.56a28.51,28.51,0,0,1-1.78,11.63,71.34,71.34,0,0,1-28.35,36.72,16.09,16.09,0,0,0-1.34,1A18.9,18.9,0,0,1,249.15,347c-.91.52-1.79.93-2.57,1.29a10.35,10.35,0,0,0-2.05,1.11,8.72,8.72,0,0,0-1.22,1.94c-1.74,3.34-3.22,6.84-4.79,10.55-3.31,7.79-6.73,15.85-12.72,22.62A43.72,43.72,0,0,1,191.42,399l-1.89-.12A16.54,16.54,0,0,0,185,399a2,2,0,0,0-.75.37A6,6,0,0,1,178.29,404.68Z"/><path class="cls-3" d="M173.35,400.35a6.41,6.41,0,0,1-1.22-.13A15.32,15.32,0,0,1,160.23,385c0-.65.09-1.23.15-1.73,0-.32.08-.74.09-.93a13.05,13.05,0,0,0-1.24-2l-.19-.28a69.54,69.54,0,0,1-12.55-37.69c0-.83,0-1.67,0-2.5a42.57,42.57,0,0,0-.27-5.45c-.7-5-3.5-9.92-6.47-15.11-4-6.91-8.42-14.74-8-23.93.23-4.8,1.78-9.15,3.15-13a44.69,44.69,0,0,1,4.51-9.89c.55-.83,1.1-1.57,1.64-2.29a11.07,11.07,0,0,0,2-3.37,10.8,10.8,0,0,0-.49-3.21,27.86,27.86,0,0,1-.8-4.57,26.78,26.78,0,0,1,.24-5.2c.08-.68.15-1.32.18-1.9.46-7.74-3.23-12.43-10.35-20.73l-.07-.09a6,6,0,0,1,9-7.77l.08.09c7.18,8.38,14,16.29,13.2,29.21,0,.9-.15,1.74-.24,2.55a11.31,11.31,0,0,0,.32,5.65,19.58,19.58,0,0,1,.65,7.91c-.61,3.68-2.63,6.39-4.25,8.56-.45.61-.88,1.19-1.24,1.72a35.28,35.28,0,0,0-3.24,7.34c-1.14,3.2-2.32,6.51-2.46,9.53-.27,5.73,3,11.42,6.43,17.45s6.9,12.08,7.92,19.37a51.5,51.5,0,0,1,.39,7c0,.76,0,1.51,0,2.27a57.47,57.47,0,0,0,10.36,31.16l.19.26a13.57,13.57,0,0,1,3.27,11.12c0,.33-.08.65-.09.87a3.38,3.38,0,0,0,2.42,3.1,6,6,0,0,1-1.22,11.81Z"/><path class="cls-4" d="M129.82,224.09a6,6,0,0,1-4-1.51c-7.22-6.41-5.07-17.14-4.16-21.72,1.44-7.17.23-9.33-.61-10s-3.06-1-5.1-1.2c-.69-.07-1.38-.15-2-.25-6.86-.95-11.67-4.41-13.19-9.48-.06-.2-.11-.39-.16-.57-5-.51-10.38,1.28-16.07,3.17-6.39,2.12-13,4.31-20.25,3.85-.68,0-1.31-.1-1.92-.16a14.77,14.77,0,0,0-2.94-.12,15.55,15.55,0,0,0-2.23.6,17.72,17.72,0,0,1-7,1.14,17.33,17.33,0,0,1-8-3A110.82,110.82,0,0,1,9.07,153c-4.22-6.24-9.73-15.8-9-26.73a49.36,49.36,0,0,1,1.32-7.86c.19-.87.37-1.68.54-2.49A54.85,54.85,0,0,0,1.5,92.48l0-.12a12.52,12.52,0,0,1-.14-6.84A12.48,12.48,0,0,1,5,80.11l.49-.48c2-2,3.14-5.14,4.44-8.74a45.5,45.5,0,0,1,4.39-9.65C17.23,56.79,21.2,53.54,25,50.4c4.61-3.77,8.59-7,9.13-11.16.08-.56.1-1.27.13-2A17.11,17.11,0,0,1,36,29.29c1.66-3.12,4.27-4.84,6.36-6.22.58-.37,1.12-.73,1.56-1.07a26.89,26.89,0,0,0,4.16-4.4c.86-1,1.75-2.12,2.74-3.18,4.47-4.8,9.5-7.15,14.56-6.78a6,6,0,0,1,5,3.49c1.1-.06,2.26-.21,3.5-.37,1.59-.2,3.24-.41,5-.49a6.64,6.64,0,0,0,2.36-.34,10,10,0,0,0,1.47-1.62,28,28,0,0,1,2-2.26C90.62.08,99-.18,106.35.05L120.93.5c3.75.12,8.89.28,13.4,3,5.42,3.27,9.07,10.77,5.51,17.21a13.37,13.37,0,0,1-1,1.55c7.75,5.15,16.42,10.65,25.37,11.52l.14,0a11.92,11.92,0,0,1,5.19,1.46A11.69,11.69,0,0,1,172.62,38l.35.4a2.7,2.7,0,0,0,2,.83,6,6,0,0,1,.62,11.91,14.61,14.61,0,0,1-11.43-4.68c-.24-.26-.47-.54-.7-.81h0l-.25,0h-.16c-12.44-1.21-22.92-8.2-32.16-14.36-1.32-.87-4.39-2.92-5.09-6.83-.74-4.13,1.63-7.06,2.9-8.63.18-.22.42-.51.57-.72a2.73,2.73,0,0,0-1.1-1.4c-1.84-1.11-4.91-1.2-7.62-1.29L106,12c-5.09-.16-10.27-.1-12.82,2.47-.33.34-.72.83-1.14,1.34a17.13,17.13,0,0,1-4.75,4.44,16.38,16.38,0,0,1-7.8,1.95c-1.33.06-2.68.23-4.11.42A34.59,34.59,0,0,1,65,22.78a6,6,0,0,1-3.54-2,14.79,14.79,0,0,0-1.95,1.78c-.75.8-1.48,1.69-2.26,2.64a37.57,37.57,0,0,1-6.16,6.32c-.76.57-1.53,1.08-2.2,1.52a10.43,10.43,0,0,0-2.4,1.87,10.26,10.26,0,0,0-.29,2.73c0,.95-.07,2-.22,3.16-1.16,8.83-7.67,14.15-13.41,18.84-3.27,2.68-6.36,5.21-8.23,8.09a36.36,36.36,0,0,0-3.18,7.22C19.63,79.24,17.86,84.13,14,88c-.23.24-.47.47-.71.7l-.33.32c0,.18.09.37.12.53l0,.12a66.69,66.69,0,0,1,.52,28.54c-.19.94-.39,1.86-.59,2.75A40,40,0,0,0,12,127c-.37,5.54,1.85,11.66,7,19.26A98.76,98.76,0,0,0,48.5,174.71,9.65,9.65,0,0,0,51.08,176a10.23,10.23,0,0,0,2.48-.61,24.09,24.09,0,0,1,4.26-1.06,23.7,23.7,0,0,1,5.69.07l1.5.13c5,.31,10.2-1.43,15.75-3.27,7.38-2.45,15-5,23.42-3.36a9.76,9.76,0,0,1,5.26,2.58,10.06,10.06,0,0,1,2.62,5.52c0,.15.06.34.09.46a6.88,6.88,0,0,0,3.43,1.19c.58.08,1.16.15,1.75.21,3.31.38,7.42.84,11,3.56,8.19,6.25,5.85,18,5.08,21.8-.47,2.35-1.72,8.6.38,10.47a6,6,0,0,1-4,10.42Z"/><path class="cls-5" d="M412.72,228.08a50.84,50.84,0,0,1-20.45-4.17,52.75,52.75,0,0,1-16.69-11.33A51.65,51.65,0,0,1,364.26,196a51.89,51.89,0,0,1,0-40.81,52.68,52.68,0,0,1,11.32-16.68,55.43,55.43,0,0,1,16.69-11.33A50.84,50.84,0,0,1,412.72,123a52.33,52.33,0,0,1,26.15,6.88,5.84,5.84,0,0,1,3.05,3.72,6.11,6.11,0,0,1-.62,4.73,6,6,0,0,1-3.83,3,6.21,6.21,0,0,1-4.8-.62,35.67,35.67,0,0,0-9.52-3.95,42,42,0,0,0-10.43-1.3,38,38,0,0,0-15.61,3.22,41.45,41.45,0,0,0-12.68,8.56,39.34,39.34,0,0,0-8.56,12.68,38.29,38.29,0,0,0-3.16,15.56,39,39,0,0,0,3.16,15.61,41.43,41.43,0,0,0,8.56,12.74,40.9,40.9,0,0,0,12.68,8.62,38.32,38.32,0,0,0,15.61,3.16A39.92,39.92,0,0,0,424,214a40.89,40.89,0,0,0,10.25-4.62,6.14,6.14,0,0,1,4.79-1,6.08,6.08,0,0,1,3.95,2.81,5.94,5.94,0,0,1,.84,4.74A6.74,6.74,0,0,1,441,220,52.16,52.16,0,0,1,412.72,228.08Z"/><path class="cls-5" d="M457.13,123.59a6.28,6.28,0,0,1,4.46,1.75,5.73,5.73,0,0,1,1.91,4.45v91.7a5.86,5.86,0,0,1-1.91,4.39,6.24,6.24,0,0,1-4.46,1.86,5.88,5.88,0,0,1-4.45-1.86,6.12,6.12,0,0,1-1.74-4.39v-91.7a6,6,0,0,1,6.19-6.2Zm67.35,0a6,6,0,0,1,6.2,6.2v91.7a6.12,6.12,0,0,1-1.74,4.39,5.89,5.89,0,0,1-4.46,1.86,6.23,6.23,0,0,1-4.45-1.86,5.86,5.86,0,0,1-1.91-4.39V181.87H478.21a6.13,6.13,0,0,1-4.39-1.75,5.83,5.83,0,0,1-1.86-4.4,6.25,6.25,0,0,1,6.25-6.25h39.91V129.79a5.73,5.73,0,0,1,1.91-4.45A6.27,6.27,0,0,1,524.48,123.59Z"/><path class="cls-5" d="M636.81,223.63a5.83,5.83,0,0,1-3.27,3.44,6.2,6.2,0,0,1-4.79.28,6.12,6.12,0,0,1-3.55-3.27l-11.16-24H585.58a6,6,0,0,1-6.2-6.2,6.12,6.12,0,0,1,1.74-4.39,5.89,5.89,0,0,1,4.46-1.86h22.48l-19.78-42.44L553.34,224a5.81,5.81,0,0,1-2.42,2.76,6.38,6.38,0,0,1-3.39.9,6.64,6.64,0,0,1-2.53-.45,6.06,6.06,0,0,1-3.33-3.55,5.71,5.71,0,0,1,.23-4.79l40.58-91.25a5.87,5.87,0,0,1,2.25-2.7,6,6,0,0,1,3.38-1,6.32,6.32,0,0,1,3.38.91,5.29,5.29,0,0,1,2.26,2.59l42.72,91.41A6.16,6.16,0,0,1,636.81,223.63Z"/><path class="cls-5" d="M808.31,228.81h-2.43a45.71,45.71,0,0,1-13.18-2,35.66,35.66,0,0,1-11.78-6,30.26,30.26,0,0,1-11.78-25,6,6,0,0,1,1.86-4.39,6.17,6.17,0,0,1,4.51-1.86,6.35,6.35,0,0,1,6.25,6.25,19.74,19.74,0,0,0,1.64,8.4,17.44,17.44,0,0,0,4.11,5.75,19.22,19.22,0,0,0,5.36,3.55,33.61,33.61,0,0,0,5.58,1.92,30.36,30.36,0,0,0,4.73.79c1.35.11,2.25.11,2.59.11h2.43a24.45,24.45,0,0,0,7.66-1.3,25,25,0,0,0,6.93-3.55,19.44,19.44,0,0,0,5.07-5.3,12,12,0,0,0,2-6.59c0-3.78-1.81-7-5.47-9.81s-9.81-5.52-18.49-8.28l-2.53-.85c-4-1.4-8-2.93-12.12-4.5a50.53,50.53,0,0,1-11.05-5.92,31.7,31.7,0,0,1-8-8.4,21.71,21.71,0,0,1-3.1-12,23.59,23.59,0,0,1,2.65-11,26.36,26.36,0,0,1,7.33-8.68,36.78,36.78,0,0,1,11-5.75,45.19,45.19,0,0,1,13.76-2c2.53,0,5.29.16,8.28.45a41,41,0,0,1,8.91,1.86,35.42,35.42,0,0,1,8.62,4.11,28.16,28.16,0,0,1,7.44,7.21c.56.85,1.18,1.92,1.86,3.1a23.54,23.54,0,0,1,1.69,3.84c.45,1.35.9,2.59,1.18,3.83a12.46,12.46,0,0,1,.51,3.27,6.18,6.18,0,0,1-1.8,4.39,6,6,0,0,1-4.51,1.86,6.15,6.15,0,0,1-4.46-1.86,6,6,0,0,1-1.86-4.39,29.85,29.85,0,0,0-1.07-3,18.49,18.49,0,0,0-1.91-3.77c-3.89-5.58-11.56-8.34-23-8.34a31.35,31.35,0,0,0-8,1,28.56,28.56,0,0,0-7.1,2.88,15.57,15.57,0,0,0-5.07,4.67,10.92,10.92,0,0,0-1.92,6.43,10.65,10.65,0,0,0,1.75,6.14,17.54,17.54,0,0,0,5.13,4.79,42.27,42.27,0,0,0,8.17,4.06c3.21,1.24,6.82,2.54,10.77,3.94l2.42.85c2.82,1,6.14,2.09,9.86,3.44a47.73,47.73,0,0,1,10.65,5.52,32.27,32.27,0,0,1,8.51,8.57,21.53,21.53,0,0,1,3.5,12.45,23.42,23.42,0,0,1-3,11.73,31.28,31.28,0,0,1-7.95,9.24,37.59,37.59,0,0,1-23.05,8.11Z"/><path class="cls-5" d="M889.52,228.81H887.1a45.78,45.78,0,0,1-13.19-2,35.76,35.76,0,0,1-11.78-6,30.26,30.26,0,0,1-11.78-25,6,6,0,0,1,1.86-4.39,6.17,6.17,0,0,1,4.51-1.86,6.35,6.35,0,0,1,6.26,6.25,19.75,19.75,0,0,0,1.63,8.4,17.44,17.44,0,0,0,4.11,5.75,19.22,19.22,0,0,0,5.36,3.55,33.93,33.93,0,0,0,5.58,1.92,30.36,30.36,0,0,0,4.73.79c1.36.11,2.26.11,2.6.11h2.42a24.45,24.45,0,0,0,7.66-1.3,25.15,25.15,0,0,0,6.94-3.55,19.74,19.74,0,0,0,5.07-5.3,12.05,12.05,0,0,0,2-6.59c0-3.78-1.8-7-5.47-9.81s-9.8-5.52-18.48-8.28l-2.54-.85c-3.94-1.4-8-2.93-12.12-4.5a50.45,50.45,0,0,1-11-5.92,31.39,31.39,0,0,1-8-8.4,21.63,21.63,0,0,1-3.1-12,23.7,23.7,0,0,1,2.64-11,26.36,26.36,0,0,1,7.33-8.68,36.71,36.71,0,0,1,11.05-5.75,45.12,45.12,0,0,1,13.75-2c2.54,0,5.3.16,8.28.45a40.86,40.86,0,0,1,8.91,1.86,35.25,35.25,0,0,1,8.62,4.11,28.16,28.16,0,0,1,7.44,7.21c.56.85,1.18,1.92,1.86,3.1a22.71,22.71,0,0,1,1.69,3.84c.45,1.35.9,2.59,1.18,3.83a12.46,12.46,0,0,1,.51,3.27,6.18,6.18,0,0,1-1.8,4.39,6,6,0,0,1-4.51,1.86,6.13,6.13,0,0,1-4.45-1.86,6,6,0,0,1-1.86-4.39c-.12-.45-.45-1.47-1.07-3a18,18,0,0,0-1.92-3.77c-3.89-5.58-11.55-8.34-23.05-8.34a31.27,31.27,0,0,0-8,1,28.4,28.4,0,0,0-7.1,2.88,15.51,15.51,0,0,0-5.08,4.67,11,11,0,0,0-1.91,6.43,10.64,10.64,0,0,0,1.74,6.14,17.66,17.66,0,0,0,5.13,4.79,42.27,42.27,0,0,0,8.17,4.06c3.22,1.24,6.82,2.54,10.77,3.94l2.42.85c2.82,1,6.15,2.09,9.87,3.44a47.73,47.73,0,0,1,10.65,5.52,32.42,32.42,0,0,1,8.51,8.57,21.6,21.6,0,0,1,3.49,12.45,23.32,23.32,0,0,1-3,11.73,31.28,31.28,0,0,1-7.95,9.24,37.59,37.59,0,0,1-23.05,8.11Z"/><path class="cls-6" d="M725.52,144.39l-.29.51c1,.79,1.92,1.63,2.82,2.48a41.26,41.26,0,0,1,8.85,13.07c.28.68.56,1.41.85,2.09l.17.5a17.91,17.91,0,0,1,.56,1.75c.06.11.06.28.11.4.17.62.34,1.29.51,1.91,0,.06.06.17.06.23.16.73.33,1.46.45,2.19h17.52c-.11-.9-.22-1.8-.33-2.64-.06-.23-.06-.4-.12-.62-.17-.85-.28-1.75-.5-2.6a1.38,1.38,0,0,0-.12-.39,65.47,65.47,0,0,0-2.36-8c-.06-.17-.12-.28-.17-.45-.28-.79-.62-1.58-1-2.37-.06-.16-.17-.39-.23-.56a54.56,54.56,0,0,0-5.46-9.47l-.34-.5-1.52-2c-.12-.12-.17-.23-.29-.34a62.2,62.2,0,0,0-5.69-6c-.11-.06-.17-.17-.28-.28-.68-.57-1.3-1.13-2-1.69-.17-.12-.34-.29-.51-.4-.68-.56-1.41-1.13-2.14-1.63Z"/><path class="cls-7" d="M684.66,138c1.07-.39,2.14-.73,3.27-1.07.11,0,.16,0,.28,0,1.07-.29,2.14-.51,3.21-.74.17,0,.28,0,.45,0,1.07-.17,2.14-.34,3.27-.45a.89.89,0,0,0,.39-.06c1.13-.11,2.31-.17,3.44-.17s2.31.06,3.44.17a.89.89,0,0,1,.39.06,29.67,29.67,0,0,1,3.22.45c.17,0,.33,0,.45,0a26.76,26.76,0,0,1,3.15.74,3.38,3.38,0,0,1,.34.11,23.69,23.69,0,0,1,3.21,1.07h0l.29-.45,8.45-14.82h0c-.79-.34-1.63-.68-2.48-1-.23-.11-.45-.17-.68-.28l-2.36-.84c-.29-.06-.51-.17-.79-.23-1.47-.45-3-.85-4.46-1.18l-.73-.17a15.06,15.06,0,0,0-1.63-.28c-.62-.12-1.19-.23-1.81-.29l-1.46-.17c-.73-.11-1.41-.16-2.14-.22-.4-.06-.79-.06-1.19-.11-1.12-.06-2.25-.12-3.38-.12s-2.25.06-3.38.12a7.85,7.85,0,0,0-1.18.11c-.74.06-1.41.11-2.14.22l-1.47.17c-.62.12-1.18.17-1.8.29s-1.13.16-1.64.28l-.73.17c-1.47.33-3,.73-4.45,1.18-.28.06-.51.17-.79.23-.79.28-1.58.5-2.37.84a4.25,4.25,0,0,0-.68.28l-2.47,1h0l8.67,14.76Z"/><path class="cls-8" d="M663,197.59l.46-.39c-.46-.74-.85-1.47-1.24-2.26s-.79-1.63-1.19-2.42a36.22,36.22,0,0,1-1.41-3.78c-.39-1.29-.73-2.59-1-3.94a39.33,39.33,0,0,1-.79-8.29,43.48,43.48,0,0,1,.79-8.22c.28-1.36.62-2.65,1-3.95s.9-2.59,1.41-3.83a41.19,41.19,0,0,1,8.85-13.08c.85-.84,1.75-1.63,2.71-2.42l-.29-.51-8.51-14.76h0c-.33.22-.67.5-1,.78-.51.4-1,.79-1.52,1.24h0l-.06.06c-.73.62-1.46,1.24-2.14,1.92l-.68.67L657,135.77c-.28.28-.51.56-.79.84s-.79.85-1.13,1.24-.5.62-.78,1-.68.79-1,1.24-.51.68-.79,1a10.06,10.06,0,0,0-.9,1.24,12.73,12.73,0,0,0-.73,1.07c-.28.4-.57.79-.85,1.24s-.51.74-.73,1.13a9,9,0,0,0-.73,1.24l-.68,1.18c-.23.4-.45.79-.68,1.24a9.56,9.56,0,0,0-.62,1.24,12.75,12.75,0,0,0-.56,1.19c-.23.45-.39.84-.62,1.29l-.51,1.19c-.17.45-.39.9-.56,1.35s-.28.73-.4,1.07c-.16.51-.39,1-.56,1.52a3.89,3.89,0,0,0-.22.79,64.33,64.33,0,0,0-2.15,9.08c0,.11,0,.28,0,.39-.11.68-.17,1.41-.28,2.09,0,.16-.06.33-.06.56-.06.68-.11,1.35-.17,2.08a1.85,1.85,0,0,1-.06.57c0,.67,0,1.35,0,2.08v3.16c0,.73,0,1.41.11,2.14a1.17,1.17,0,0,0,.06.45c.05.73.11,1.47.22,2.2,0,.11.06.23.06.34.11.79.22,1.58.34,2.31a.23.23,0,0,0,.05.17,58.51,58.51,0,0,0,8.68,22.09Z"/><path class="cls-9" d="M746.71,210.33c.45-.62.84-1.24,1.24-1.86,0-.11.11-.17.17-.28.45-.68.84-1.36,1.24-2a.18.18,0,0,1,0-.11A58,58,0,0,0,757,183.56H739.44c-.12.73-.28,1.46-.45,2.2a.21.21,0,0,1-.06.17c-.17.67-.34,1.29-.51,1.91,0,.11,0,.23-.11.34-.17.56-.34,1.18-.56,1.75-.06.17-.12.28-.17.45-.28.67-.51,1.41-.85,2.08-.56,1.24-1.13,2.43-1.75,3.61a41,41,0,0,1-13.18,14.37,44.32,44.32,0,0,1-7,3.83,38.91,38.91,0,0,1-16,3.22,39.53,39.53,0,0,1-15.89-3.22c-1.13-.5-2.2-1-3.21-1.57-.4-.23-.85-.45-1.24-.68a19,19,0,0,1-1.75-1.07c-.51-.34-1-.68-1.47-1s-.84-.62-1.29-1-1.07-.79-1.58-1.24h0l-.51.39-13.07,11.16c1.18,1.18,2.48,2.25,3.72,3.27a3,3,0,0,1,.5.45c.51.39,1,.73,1.53,1.13a5.31,5.31,0,0,0,.9.62c.45.33,1,.67,1.46,1a9.27,9.27,0,0,0,1,.62c.45.28,1,.62,1.46.9.34.23.74.4,1.07.62s1,.51,1.41.79a10.73,10.73,0,0,0,1.19.57l1.41.67a13,13,0,0,0,1.35.57c.45.16.9.39,1.35.56.85.34,1.75.68,2.59,1a9.18,9.18,0,0,1,1.19.39l1.63.51c.4.11.85.22,1.24.34.56.11,1.07.28,1.64.39s.84.17,1.29.28l1.69.34a11.53,11.53,0,0,1,1.3.23c.62.11,1.18.17,1.8.22a8,8,0,0,0,1.19.12l2,.16c.34,0,.68.06,1,.06,1,.06,2.08.06,3.15.06s1.92,0,2.94-.06c.33,0,.62-.06.95-.06.62,0,1.3,0,1.92-.16a7.91,7.91,0,0,1,1.13-.12,16.64,16.64,0,0,0,1.69-.22,9.83,9.83,0,0,0,1.18-.23c.51-.11,1.07-.17,1.58-.28a11.57,11.57,0,0,0,1.24-.28l1.52-.34,1.24-.34c.45-.11,1-.28,1.41-.39s.85-.28,1.24-.4.9-.28,1.35-.45.85-.28,1.24-.45l1.3-.51c.45-.17.84-.33,1.24-.5a12.34,12.34,0,0,0,1.24-.57c.45-.22.84-.39,1.29-.62s.74-.39,1.13-.56.9-.45,1.3-.68.67-.39,1-.56c.45-.28,1-.51,1.41-.79.22-.17.45-.28.67-.45a60.65,60.65,0,0,0,7.44-5.58c.11-.11.23-.17.34-.28.51-.45,1-1,1.52-1.47l.4-.39,1.46-1.47c.11-.17.28-.28.4-.45L743,215c.11-.17.28-.28.39-.45a20.63,20.63,0,0,0,1.3-1.63c.11-.17.22-.29.34-.46.45-.56.84-1.12,1.29-1.69A.88.88,0,0,0,746.71,210.33Z"/><text class="cls-10" transform="translate(573.45 331.84)">AFRICA</text></g></g></svg>